#N canvas 1699 158 999 605 12;
#N canvas 0 50 450 250 (subpatch) 0;
#X array 16STEPSEQ-\$0 16 float 3;
#A 0 3 23 40 12 48 43 48 33 48 24 24 24 24 24 24 24;
#X coords 0 48 16 0 120 40 1 0 0;
#X restore 108 126 graph;
#X obj 57 256 i 0;
#X obj 90 256 + 1;
#X obj 620 173 bng 15 250 50 0 empty empty empty 17 7 0 10 -262144
-1 -1;
#X obj 596 242 list-abs/list-map;
#X obj 607 136 metro 100;
#X obj 591 43 loadbang;
#X obj 585 82 t b b b;
#X obj 549 58 bng 15 250 50 0 empty empty empty 17 7 0 10 -262144 -1
-1;
#X obj 30 45 inlet bang;
#X obj 23 533 outlet out;
#X obj 106 313 == 15;
#X obj 55 361 route 0 1;
#X msg 124 387 0;
#X obj 57 337 pack f f;
#X obj 78 387 t f b;
#X obj 22 217 bng 15 250 50 0 empty empty empty 17 7 0 10 -262144 -1
-1;
#X obj 58 286 t f f f;
#X obj 218 536 pack f f;
#X obj 120 542 print >>;
#X obj 592 212 array get 16STEPSEQ-\$0;
#X obj 596 269 array set 16STEPSEQ-\$0;
#X obj 48 468 tabread 16STEPSEQ-\$0;
#N canvas 0 50 450 250 (subpatch) 0;
#X array on-\$0 16 float 3;
#A 0 1 1 1 1 1 1 1 1 1 1 1 1 1 1 1 1;
#X coords 0 1.5 16 -1.5 120 8 1 0 0;
#X restore 107 180 graph;
#X obj 518 171 t b b;
#X obj 264 254 list-abs/list-map;
#X obj 260 224 array get on-\$0;
#X obj 264 281 array set on-\$0;
#X obj 403 252 expr if( $f1 <= 0 \, -1 \, 1 );
#X obj 47 410 t f f;
#X obj 254 399 tabread on-\$0;
#X obj 254 422 <= 0;
#X obj 147 429 route 0 1;
#X obj 49 442 f;
#X text 103 101 b;
#X text 256 101 c;
#X obj 191 37 inlet cmd;
#X msg 345 109 0;
#X msg 558 111 0;
#X floatatom 230 147 5 0 0 0 - - -;
#X obj 345 462 +;
#X obj 731 242 expr int(abs(max(0 \, min(48 \, $f1))));
#X obj 522 364 list \$0;
#X obj 230 131 bng 8 250 50 0 empty empty const 10 4 0 8 -262144 -1
-1;
#X msg 479 425 \; 16STEPSEQ-\$1 const 24;
#X text 105 136 -----------------;
#X obj 338 164 array set 16STEPSEQ-\$0;
#X obj 299 66 route init reset steps on;
#X msg 378 11 steps 3 23 40 12 48 43 93 33;
#X obj 353 140 array set on-\$0;
#X connect 1 0 2 0;
#X connect 1 0 17 0;
#X connect 2 0 1 1;
#X connect 3 0 20 0;
#X connect 4 0 21 0;
#X connect 4 1 41 0;
#X connect 5 0 24 0;
#X connect 6 0 7 0;
#X connect 7 1 38 0;
#X connect 7 2 5 0;
#X connect 8 0 7 0;
#X connect 9 0 16 0;
#X connect 11 0 14 0;
#X connect 12 0 29 0;
#X connect 12 1 15 0;
#X connect 13 0 1 1;
#X connect 14 0 12 0;
#X connect 15 0 29 0;
#X connect 15 1 13 0;
#X connect 16 0 1 0;
#X connect 17 1 11 0;
#X connect 17 2 14 1;
#X connect 20 0 4 0;
#X connect 22 0 40 0;
#X connect 24 0 26 0;
#X connect 24 1 20 0;
#X connect 25 0 27 0;
#X connect 25 1 28 0;
#X connect 26 0 25 0;
#X connect 28 0 25 1;
#X connect 29 0 30 0;
#X connect 29 1 33 1;
#X connect 30 0 31 0;
#X connect 31 0 32 0;
#X connect 32 0 33 0;
#X connect 33 0 22 0;
#X connect 36 0 47 0;
#X connect 37 0 1 1;
#X connect 38 0 1 1;
#X connect 39 0 40 1;
#X connect 40 0 10 0;
#X connect 41 0 4 1;
#X connect 42 0 44 0;
#X connect 43 0 42 0;
#X connect 47 0 8 0;
#X connect 47 1 37 0;
#X connect 47 2 46 0;
#X connect 47 3 49 0;
#X connect 48 0 47 0;
#X coords 0 -1 1 1 170 95 2 100 100;
