#N canvas 2037 214 450 369 12;
#X obj 191 73 inlet~;
#X obj 66 68 env~;
#X floatatom 103 116 5 0 0 0 - - -;
#X obj 119 200 outlet~;
#X obj 248 74 inlet~;
#X obj 104 68 env~;
#X floatatom 143 116 5 0 0 0 - - -;
#X obj 248 198 outlet~;
#X obj 105 103 bng 8 250 50 0 empty empty 2METERS~ 12 7 0 9 -262144
-1 -1;
#X obj 44 163 flicker;
#X obj 48 211 flicker;
#X obj 178 201 outlet;
#X obj 327 204 outlet;
#X connect 0 0 1 0;
#X connect 0 0 3 0;
#X connect 1 0 2 0;
#X connect 1 0 9 0;
#X connect 2 0 11 0;
#X connect 4 0 5 0;
#X connect 4 0 7 0;
#X connect 5 0 6 0;
#X connect 5 0 10 0;
#X connect 6 0 12 0;
#X connect 9 0 8 0;
#X connect 10 0 8 0;
#X coords 0 -1 1 1 84 42 2 100 100;
