#N canvas 2026 292 450 365 12;
#X obj 191 73 inlet~;
#X obj 66 68 env~;
#X floatatom 103 116 5 0 0 0 - - -;
#X obj 191 197 outlet~;
#X obj 248 74 inlet~;
#X obj 104 68 env~;
#X floatatom 143 116 5 0 0 0 - - -;
#X obj 248 198 outlet~;
#X obj 308 74 inlet~;
#X obj 71 30 env~;
#X floatatom 184 116 5 0 0 0 - - -;
#X obj 308 198 outlet~;
#X obj 367 73 inlet~;
#X obj 108 29 env~;
#X floatatom 225 116 5 0 0 0 - - -;
#X obj 367 197 outlet~;
#X obj 105 103 bng 8 250 50 0 empty empty 4METERS~ 17 7 0 9 -262144
-1 -1;
#X obj 10 114 flicker;
#X obj 15 153 flicker;
#X obj 15 190 flicker;
#X obj 16 222 flicker;
#X connect 0 0 1 0;
#X connect 0 0 3 0;
#X connect 1 0 2 0;
#X connect 1 0 17 0;
#X connect 4 0 5 0;
#X connect 4 0 7 0;
#X connect 5 0 6 0;
#X connect 5 0 18 0;
#X connect 8 0 9 0;
#X connect 8 0 11 0;
#X connect 9 0 10 0;
#X connect 9 0 19 0;
#X connect 12 0 13 0;
#X connect 12 0 15 0;
#X connect 13 0 14 0;
#X connect 13 0 20 0;
#X connect 17 0 16 0;
#X connect 18 0 16 0;
#X connect 19 0 16 0;
#X connect 20 0 16 0;
#X coords 0 -1 1 1 165 42 2 100 100;
