#N canvas 1607 61 983 687 12;
#X obj 76 27 inlet~;
#X obj 129 27 inlet~;
#X obj 178 26 inlet~;
#X obj 26 27 inlet~;
#X obj 93 491 *~;
#X obj 125 491 *~;
#X obj 155 491 *~;
#X obj 187 493 *~;
#X obj 193 525 *~;
#X obj 230 525 *~;
#X obj 257 525 *~;
#X obj 286 525 *~;
#X obj -17 569 outlet~ L;
#X obj 377 569 outlet~ R;
#X obj 554 289 *~;
#X obj 191 134 vsl 8 55 0 1.5 0 1 empty empty empty 0 -9 0 10 -262144
-1 -1 3600 0;
#X obj 554 314 *~;
#X obj 191 195 tgl 8 0 empty empty empty 17 7 0 10 -262144 -1 -1 1
1;
#X obj 609 289 *~;
#X obj 204 134 vsl 8 55 0 1.5 0 1 empty empty empty 0 -9 0 10 -262144
-1 -1 3600 0;
#X obj 608 314 *~;
#X obj 204 195 tgl 8 0 empty empty empty 17 7 0 10 -262144 -1 -1 1
1;
#X obj 105 185 tgl 8 0 empty empty empty 17 7 0 10 -262144 -1 -1 1
1;
#X obj 127 185 tgl 8 0 empty empty empty 17 7 0 10 -262144 -1 -1 1
1;
#X obj 148 185 tgl 8 0 empty empty empty 17 7 0 10 -262144 -1 -1 1
1;
#X obj 169 185 tgl 8 0 empty empty empty 17 7 0 10 -262144 -1 -1 1
1;
#X obj 436 26 inlet cmd;
#X msg 495 108 1;
#X obj 286 20 t b b;
#X obj 527 64 bng 15 250 50 0 empty empty empty 17 7 0 10 -262144 -1
-1;
#X obj 492 193 pack s f;
#X obj 584 191 list trim;
#X obj 425 176 symbol;
#X obj 108 196 hsl 12 8 0 1 0 0 empty empty empty -2 -8 0 10 -262144
-1 -1 0 0;
#X obj 169 334 - 1;
#X obj 167 360 * -1;
#X obj 111 335 *~;
#X obj 140 334 *~;
#X obj 115 185 bng 8 250 50 0 empty empty empty 17 7 0 10 -262144 -1
-1;
#X msg 94 300 0.5;
#X obj 129 196 hsl 12 8 0 1 0 0 empty empty empty -2 -8 0 10 -262144
-1 -1 1100 0;
#X obj 288 335 - 1;
#X obj 286 361 * -1;
#X obj 227 335 *~;
#X obj 259 335 *~;
#X obj 137 185 bng 8 250 50 0 empty empty empty 17 7 0 10 -262144 -1
-1;
#X msg 219 303 0.5;
#X obj 151 196 hsl 12 8 0 1 0 0 empty empty empty -2 -8 0 10 -262144
-1 -1 0 0;
#X obj 384 333 - 1;
#X obj 382 359 * -1;
#X obj 323 333 *~;
#X obj 355 333 *~;
#X obj 158 185 bng 8 250 50 0 empty empty empty 17 7 0 10 -262144 -1
-1;
#X msg 348 309 0.5;
#X obj 173 196 hsl 12 8 0 1 0 0 empty empty empty -2 -8 0 10 -262144
-1 -1 1100 0;
#X obj 480 331 - 1;
#X obj 478 357 * -1;
#X obj 419 331 *~;
#X obj 451 331 *~;
#X obj 179 185 bng 8 250 50 0 empty empty empty 17 7 0 10 -262144 -1
-1;
#X msg 444 307 0.5;
#X obj 474 -3 route L R m1 m2 m3 m4 m5 m6 m7 m8 t1 t2 t3 t4 t5 t6 t7
t8 Lt Rt, f 66;
#X text 206 101 c;
#X obj 192 208 hsl 12 8 -1 1 0 1 empty empty empty -2 -8 0 10 -262144
-1 -1 550 0;
#X obj 574 364 else/balance~;
#X msg 532 108 0;
#X obj 208 208 bng 8 250 50 0 empty empty empty 17 7 0 10 -262144 -1
-1;
#X obj 191 122 bng 8 250 50 0 empty empty empty 17 7 0 10 -262144 -1
-1;
#X msg 646 328 1;
#X obj 202 122 bng 8 250 50 0 empty empty empty 17 7 0 10 -262144 -1
-1;
#X msg 684 329 1;
#X obj 53 569 outlet~ m1;
#X obj 134 569 outlet~ m2;
#X obj 210 569 outlet~ m3;
#X obj 296 569 outlet~ m4;
#N canvas 0 50 450 250 (subpatch) 0;
#X array \$0-mixer 4 float 3;
#A 0 1 1 1 1;
#X coords 0 1 4 0 60 50 2 0 0;
#X restore 110 121 graph;
#X obj 766 242 cyclone/iter;
#X msg 769 314 m\$1;
#X obj 786 375 pack s f;
#X obj 766 219 array get \$0-mixer;
#X obj 774 161 metro 90;
#X obj 850 156 bng 15 250 50 0 empty empty empty 17 7 0 10 -262144
-1 -1;
#X obj 787 402 list trim;
#X obj 174 137 tgl 8 0 empty empty link -1 14 0 6 -262144 -1 -1 1 1
;
#X obj 663 90 change;
#X obj 653 57 spigot;
#X obj 745 92 change;
#X obj 735 59 spigot;
#X floatatom 147 221 5 0 0 0 - - -;
#X floatatom 107 244 5 0 0 0 - - -;
#X floatatom 107 221 5 0 0 0 - - -;
#X floatatom 147 244 5 0 0 0 - - -;
#X obj 772 290 else/count 1 4;
#X text 166 101 m1.m4;
#X text 101 203 4MIXERTOUCH~;
#X msg 394 138 L \, R \, m1 \, m2 \, m3 \, m4 \, t1 \, t2 \, t3 \,
t4 \, Lt \, Rt;
#X text 100 255 l;
#X text 206 253 r;
#X obj 764 121 loadbang;
#X obj 106 174 hradio 8 1 0 2 empty empty empty 0 -8 0 10 -262144 -1
-1 1;
#X obj 566 607 array set \$0-mixer;
#X obj 558 477 t f b;
#X msg 598 510 0;
#X obj 126 174 hradio 8 1 0 2 empty empty empty 0 -8 0 10 -262144 -1
-1 1;
#X obj 604 476 t f b;
#X msg 644 509 1;
#X obj 149 174 hradio 8 1 0 2 empty empty empty 0 -8 0 10 -262144 -1
-1 1;
#X obj 649 475 t f b;
#X obj 169 174 hradio 8 1 0 2 empty empty empty 0 -8 0 10 -262144 -1
-1 1;
#X obj 695 474 t f b;
#X msg 689 508 2;
#X msg 735 507 3;
#X msg 707 177 1;
#X msg 235 53 0;
#X msg 267 57 1;
#X obj 874 326 <= 0 1;
#X obj 867 350 route 0 1;
#X obj 770 265 t b f f;
#X obj 864 378 f;
#X msg 895 378 0;
#X obj 776 186 t a b;
#X msg 832 185 reset;
#X connect 0 0 5 0;
#X connect 1 0 6 0;
#X connect 2 0 7 0;
#X connect 3 0 4 0;
#X connect 4 0 8 0;
#X connect 4 0 71 0;
#X connect 5 0 9 0;
#X connect 5 0 72 0;
#X connect 6 0 10 0;
#X connect 6 0 73 0;
#X connect 7 0 11 0;
#X connect 7 0 74 0;
#X connect 8 0 37 0;
#X connect 8 0 36 0;
#X connect 9 0 43 0;
#X connect 9 0 44 0;
#X connect 10 0 50 0;
#X connect 10 0 51 0;
#X connect 11 0 57 0;
#X connect 11 0 58 0;
#X connect 14 0 16 0;
#X connect 15 0 14 1;
#X connect 15 0 87 0;
#X connect 16 0 64 0;
#X connect 17 0 16 1;
#X connect 18 0 20 0;
#X connect 19 0 18 1;
#X connect 19 0 85 0;
#X connect 20 0 64 1;
#X connect 21 0 20 1;
#X connect 22 0 8 1;
#X connect 23 0 9 1;
#X connect 24 0 10 1;
#X connect 25 0 11 1;
#X connect 26 0 61 0;
#X connect 27 0 30 1;
#X connect 27 0 83 0;
#X connect 28 0 95 0;
#X connect 28 0 113 0;
#X connect 28 0 114 0;
#X connect 28 1 27 0;
#X connect 28 1 65 0;
#X connect 29 0 28 0;
#X connect 30 0 31 0;
#X connect 31 0 61 0;
#X connect 32 0 30 0;
#X connect 33 0 34 0;
#X connect 33 0 37 1;
#X connect 34 0 35 0;
#X connect 35 0 36 1;
#X connect 36 0 14 0;
#X connect 37 0 18 0;
#X connect 38 0 39 0;
#X connect 39 0 33 0;
#X connect 40 0 41 0;
#X connect 40 0 44 1;
#X connect 41 0 42 0;
#X connect 42 0 43 1;
#X connect 43 0 14 0;
#X connect 44 0 18 0;
#X connect 45 0 46 0;
#X connect 46 0 40 0;
#X connect 47 0 48 0;
#X connect 47 0 51 1;
#X connect 48 0 49 0;
#X connect 49 0 50 1;
#X connect 50 0 14 0;
#X connect 51 0 18 0;
#X connect 52 0 53 0;
#X connect 53 0 47 0;
#X connect 54 0 55 0;
#X connect 54 0 58 1;
#X connect 55 0 56 0;
#X connect 56 0 57 1;
#X connect 57 0 14 0;
#X connect 58 0 18 0;
#X connect 59 0 60 0;
#X connect 60 0 54 0;
#X connect 61 0 15 0;
#X connect 61 1 19 0;
#X connect 61 2 4 1;
#X connect 61 2 90 0;
#X connect 61 3 5 1;
#X connect 61 3 88 0;
#X connect 61 4 6 1;
#X connect 61 4 89 0;
#X connect 61 5 7 1;
#X connect 61 5 91 0;
#X connect 61 10 22 0;
#X connect 61 11 23 0;
#X connect 61 12 24 0;
#X connect 61 13 25 0;
#X connect 61 18 17 0;
#X connect 61 19 21 0;
#X connect 63 0 64 2;
#X connect 64 0 12 0;
#X connect 64 1 13 0;
#X connect 65 0 63 0;
#X connect 66 0 65 0;
#X connect 67 0 68 0;
#X connect 68 0 15 0;
#X connect 69 0 70 0;
#X connect 70 0 19 0;
#X connect 76 0 117 0;
#X connect 77 0 78 0;
#X connect 78 0 82 0;
#X connect 79 0 76 0;
#X connect 80 0 120 0;
#X connect 81 0 80 0;
#X connect 82 0 61 0;
#X connect 83 0 85 1;
#X connect 83 0 87 1;
#X connect 84 0 15 0;
#X connect 85 0 84 0;
#X connect 86 0 19 0;
#X connect 87 0 86 0;
#X connect 88 0 5 1;
#X connect 89 0 6 1;
#X connect 90 0 4 1;
#X connect 91 0 7 1;
#X connect 92 0 77 0;
#X connect 95 0 32 0;
#X connect 98 0 28 0;
#X connect 98 0 80 0;
#X connect 98 0 112 0;
#X connect 99 0 101 0;
#X connect 101 0 100 0;
#X connect 101 1 102 0;
#X connect 102 0 100 1;
#X connect 103 0 104 0;
#X connect 104 0 100 0;
#X connect 104 1 105 0;
#X connect 105 0 100 1;
#X connect 106 0 107 0;
#X connect 107 0 100 0;
#X connect 107 1 110 0;
#X connect 108 0 109 0;
#X connect 109 0 100 0;
#X connect 109 1 111 0;
#X connect 110 0 100 1;
#X connect 111 0 100 1;
#X connect 112 0 99 0;
#X connect 112 0 103 0;
#X connect 112 0 106 0;
#X connect 112 0 108 0;
#X connect 113 0 33 0;
#X connect 113 0 47 0;
#X connect 114 0 40 0;
#X connect 114 0 54 0;
#X connect 115 0 116 0;
#X connect 116 0 118 0;
#X connect 116 1 119 0;
#X connect 117 0 92 0;
#X connect 117 1 115 0;
#X connect 117 2 118 1;
#X connect 118 0 78 1;
#X connect 119 0 78 1;
#X connect 120 0 79 0;
#X connect 120 1 121 0;
#X connect 121 0 92 0;
#X coords 0 -1 1 1 120 174 2 100 100;
