#N canvas 1366 56 1360 712 12;
#X obj 52 341 inlet~;
#X obj 1101 201 inlet cmd;
#N canvas 0 50 450 250 (subpatch) 0;
#X array \$0-aux1 8 float 3;
#A 0 1 0 1 0 0 0 0 0;
#X coords 0 1 8 0 80 24 2 0 0;
#X restore 105 139 graph;
#X obj 448 100 cyclone/iter;
#X obj 454 147 else/count 1 8;
#X obj 452 123 t b f;
#X obj 456 199 pack s f;
#X obj 446 22 metro 90;
#X obj 531 -17 bng 15 250 50 0 empty empty empty 17 7 0 10 -262144
-1 -1;
#X obj 473 234 list trim;
#X obj 512 172 max 0;
#X obj 373 -29 loadbang;
#X obj 514 75 t a b;
#X msg 564 114 reset;
#X text 103 104 4STEREOAUX~;
#X obj 447 46 array get \$0-aux1;
#X obj 615 99 cyclone/iter;
#X obj 621 146 else/count 1 8;
#X obj 619 122 t b f;
#X obj 623 198 pack s f;
#X obj 613 21 metro 90;
#X obj 698 -18 bng 15 250 50 0 empty empty empty 17 7 0 10 -262144
-1 -1;
#X obj 640 233 list trim;
#X obj 679 171 max 0;
#X obj 681 74 t a b;
#X msg 731 113 reset;
#X obj 614 45 array get \$0-aux2;
#N canvas 0 50 450 250 (subpatch) 0;
#X array \$0-aux2 8 float 3;
#A 0 1 0.708333 1 0.666667 0.666667 1 0.708334 0.666667;
#X coords 0 1 8 0 80 24 2 0 0;
#X restore 189 139 graph;
#N canvas 0 50 450 250 (subpatch) 0;
#X array \$0-aux3 8 float 3;
#A 0 1 0.833335 0.875002 0.916669 0.875002 0.875002 0.875002 0.583333
;
#X coords 0 1 8 0 80 24 2 0 0;
#X restore 105 191 graph;
#N canvas 0 50 450 250 (subpatch) 0;
#X array \$0-aux4 8 float 3;
#A 0 1 0.791667 0.75 0.75 0.75 0.75 0.75 0.708333;
#X coords 0 1 8 0 80 24 2 0 0;
#X restore 190 191 graph;
#X obj 131 615 outlet~ a1R;
#X obj 48 616 outlet~ a1L;
#X obj 215 615 outlet~ a2L;
#X obj 304 615 outlet~ a2R;
#X obj 391 615 outlet~ a3L;
#X obj 479 616 outlet~ a3R;
#X obj 569 616 outlet~ a4L;
#X obj 656 616 outlet~ a4R;
#X obj 71 408 *~;
#X obj 103 408 *~;
#X obj 135 407 *~;
#X obj 165 407 *~;
#X obj 178 340 inlet~;
#X obj 197 407 *~;
#X obj 229 407 *~;
#X obj 261 406 *~;
#X obj 291 406 *~;
#X obj 307 338 inlet~;
#X obj 326 405 *~;
#X obj 358 405 *~;
#X obj 390 404 *~;
#X obj 420 404 *~;
#X obj 433 337 inlet~;
#X obj 452 404 *~;
#X obj 484 404 *~;
#X obj 516 403 *~;
#X obj 546 403 *~;
#X obj 566 335 inlet~;
#X obj 585 402 *~;
#X obj 617 402 *~;
#X obj 649 401 *~;
#X obj 679 401 *~;
#X obj 692 334 inlet~;
#X obj 711 401 *~;
#X obj 743 401 *~;
#X obj 775 400 *~;
#X obj 805 400 *~;
#X obj 821 332 inlet~;
#X obj 840 399 *~;
#X obj 872 399 *~;
#X obj 904 398 *~;
#X obj 934 398 *~;
#X obj 947 331 inlet~;
#X obj 966 398 *~;
#X obj 998 398 *~;
#X obj 1030 397 *~;
#X obj 1060 397 *~;
#X msg 451 172 a1-\$1;
#X msg 618 171 a2-\$1;
#X obj 799 90 cyclone/iter;
#X obj 805 137 else/count 1 8;
#X obj 803 113 t b f;
#X obj 807 189 pack s f;
#X obj 797 12 metro 90;
#X obj 882 -27 bng 15 250 50 0 empty empty empty 17 7 0 10 -262144
-1 -1;
#X obj 824 224 list trim;
#X obj 863 162 max 0;
#X obj 865 65 t a b;
#X msg 915 104 reset;
#X obj 798 36 array get \$0-aux2;
#X msg 802 162 a3-\$1;
#X obj 985 87 cyclone/iter;
#X obj 991 134 else/count 1 8;
#X obj 989 110 t b f;
#X obj 993 186 pack s f;
#X obj 983 9 metro 90;
#X obj 1068 -30 bng 15 250 50 0 empty empty empty 17 7 0 10 -262144
-1 -1;
#X obj 1010 221 list trim;
#X obj 1049 159 max 0;
#X obj 1051 62 t a b;
#X msg 1101 101 reset;
#X obj 984 33 array get \$0-aux2;
#X msg 988 159 a4-\$1;
#X obj 1000 521 route a1-1 a1-2 a1-3 a1-4 a1-5 a1-6 a1-7 a1-8;
#X obj 999 566 route a2-1 a2-2 a2-3 a2-4 a2-5 a2-6 a2-7 a2-8;
#X obj 999 601 route a3-1 a3-2 a3-3 a3-4 a3-5 a3-6 a3-7 a3-8;
#X obj 999 639 route a4-1 a4-2 a4-3 a4-4 a4-5 a4-6 a4-7 a4-8 init;
#X obj 1116 342 symbol;
#X obj 1118 389 symbol;
#X msg 1209 201 id blofeld;
#X obj 1121 442 print id;
#X obj 1076 363 bng 15 250 50 0 empty empty empty 17 7 0 10 -262144
-1 -1;
#X text 1157 143 id enable a1-2 <no> whereas for updates it is id(the
sender) update;
#X msg 1274 344 enable a1-2 3;
#X obj 1249 37 list \$0;
#X obj 1235 108 print;
#X obj 1238 -15 bng 15 250 50 0 empty empty empty 17 7 0 10 -262144
-1 -1;
#X msg 1283 386 enable a2-8 3;
#X obj 1051 278 route id init;
#X obj 1210 305 route enable;
#N canvas 1931 148 533 502 enable 1;
#X obj 94 69 inlet;
#X obj 184 95 unpack s f;
#X obj 128 141 splitfilename -;
#X obj 126 223 route a1 a2 a3 a4;
#X msg 121 253 aux1;
#X msg 173 253 aux2;
#X msg 239 252 aux3;
#X msg 283 252 aux4;
#X obj 178 432 array set tempname;
#X obj 183 314 pack f s;
#X obj 60 283 list \$0;
#X obj 177 383 f;
#X obj 262 376 t b a;
#X msg 260 347 symbol \$1-\$2;
#X obj 247 285 symbol;
#X obj 185 196 list trim;
#X obj 111 172 t b a;
#X obj 369 403 - 1;
#X obj 370 372 cyclone/fromsymbol;
#X connect 0 0 1 0;
#X connect 1 0 2 0;
#X connect 1 1 11 1;
#X connect 2 0 16 0;
#X connect 2 1 18 0;
#X connect 3 0 4 0;
#X connect 3 1 5 0;
#X connect 3 2 6 0;
#X connect 3 3 7 0;
#X connect 4 0 14 0;
#X connect 5 0 14 0;
#X connect 6 0 14 0;
#X connect 7 0 14 0;
#X connect 9 0 13 0;
#X connect 10 0 9 0;
#X connect 11 0 8 0;
#X connect 12 0 11 0;
#X connect 12 1 8 2;
#X connect 13 0 12 0;
#X connect 14 0 9 1;
#X connect 15 0 3 0;
#X connect 16 0 10 0;
#X connect 16 1 15 0;
#X connect 17 0 8 1;
#X connect 18 0 17 0;
#X restore 1187 401 pd enable;
#X obj 1169 279 checkifforme;
#X msg 345 153 4stereoaux;
#X text 258 103 c;
#X obj 379 247 flicker~;
#X obj 188 108 bng 8 250 50 0 empty empty empty 17 7 0 10 -262144 -1
-1;
#X obj 109 166 tgl 8 0 empty empty empty 17 7 0 10 -262144 -1 -1 1
1;
#X msg 148 696 1;
#X obj 148 670 t b f;
#X obj 118 166 tgl 8 0 empty empty empty 17 7 0 10 -262144 -1 -1 1
1;
#X obj 192 670 t b f;
#X msg 192 696 2;
#X obj 127 166 tgl 8 0 empty empty empty 17 7 0 10 -262144 -1 -1 1
1;
#X obj 235 670 t b f;
#X obj 136 166 tgl 8 0 empty empty empty 17 7 0 10 -262144 -1 -1 1
1;
#X obj 279 670 t b f;
#X msg 235 696 3;
#X msg 279 696 4;
#X obj 145 166 tgl 8 0 empty empty empty 17 7 0 10 -262144 -1 -1 1
1;
#X obj 321 670 t b f;
#X obj 154 166 tgl 8 0 empty empty empty 17 7 0 10 -262144 -1 -1 1
1;
#X obj 365 670 t b f;
#X obj 163 166 tgl 8 0 empty empty empty 17 7 0 10 -262144 -1 -1 1
1;
#X obj 408 670 t b f;
#X obj 172 166 tgl 8 0 empty empty empty 17 7 0 10 -262144 -1 -1 1
1;
#X obj 452 670 t b f;
#X msg 321 696 5;
#X msg 365 696 6;
#X msg 408 696 7;
#X msg 452 696 8;
#X obj 115 825 s \$0-cmd;
#X obj 1264 267 r \$0-cmd;
#X msg 101 737 enable;
#X obj 141 760 t b a;
#X obj 116 787 pack s s f;
#X obj 193 166 tgl 8 0 empty empty empty 17 7 0 10 -262144 -1 -1 1
1;
#X msg 556 702 1;
#X obj 556 676 t b f;
#X obj 202 166 tgl 8 0 empty empty empty 17 7 0 10 -262144 -1 -1 1
1;
#X obj 600 676 t b f;
#X msg 600 702 2;
#X obj 211 166 tgl 8 0 empty empty empty 17 7 0 10 -262144 -1 -1 1
1;
#X obj 643 676 t b f;
#X obj 220 166 tgl 8 0 empty empty empty 17 7 0 10 -262144 -1 -1 1
1;
#X obj 687 676 t b f;
#X msg 643 702 3;
#X msg 687 702 4;
#X obj 229 166 tgl 8 0 empty empty empty 17 7 0 10 -262144 -1 -1 1
1;
#X obj 729 676 t b f;
#X obj 238 166 tgl 8 0 empty empty empty 17 7 0 10 -262144 -1 -1 1
1;
#X obj 773 676 t b f;
#X obj 247 166 tgl 8 0 empty empty empty 17 7 0 10 -262144 -1 -1 1
1;
#X obj 816 676 t b f;
#X obj 256 166 tgl 8 0 empty empty empty 17 7 0 10 -262144 -1 -1 1
1;
#X obj 860 676 t b f;
#X msg 729 702 5;
#X msg 773 702 6;
#X msg 816 702 7;
#X msg 860 702 8;
#X obj 523 857 s \$0-cmd;
#X msg 509 743 enable;
#X obj 549 766 t b a;
#X obj 523 810 pack s s f;
#X obj 109 218 tgl 8 0 empty empty empty 17 7 0 10 -262144 -1 -1 1
1;
#X msg 892 781 1;
#X obj 892 755 t b f;
#X obj 118 218 tgl 8 0 empty empty empty 17 7 0 10 -262144 -1 -1 1
1;
#X obj 936 755 t b f;
#X msg 936 781 2;
#X obj 127 218 tgl 8 0 empty empty empty 17 7 0 10 -262144 -1 -1 1
1;
#X obj 979 755 t b f;
#X obj 136 218 tgl 8 0 empty empty empty 17 7 0 10 -262144 -1 -1 1
1;
#X obj 1023 755 t b f;
#X msg 979 781 3;
#X msg 1023 781 4;
#X obj 145 218 tgl 8 0 empty empty empty 17 7 0 10 -262144 -1 -1 1
1;
#X obj 1065 755 t b f;
#X obj 154 218 tgl 8 0 empty empty empty 17 7 0 10 -262144 -1 -1 1
1;
#X obj 1109 755 t b f;
#X obj 163 218 tgl 8 0 empty empty empty 17 7 0 10 -262144 -1 -1 1
1;
#X obj 1152 755 t b f;
#X obj 172 218 tgl 8 0 empty empty empty 17 7 0 10 -262144 -1 -1 1
1;
#X obj 1196 755 t b f;
#X msg 1065 781 5;
#X msg 1109 781 6;
#X msg 1152 781 7;
#X msg 1196 781 8;
#X obj 859 947 s \$0-cmd;
#X msg 845 822 enable;
#X obj 885 845 t b a;
#X obj 860 895 pack s s f;
#X obj 194 218 tgl 8 0 empty empty empty 17 7 0 10 -262144 -1 -1 1
1;
#X msg 137 873 1;
#X obj 137 847 t b f;
#X obj 203 218 tgl 8 0 empty empty empty 17 7 0 10 -262144 -1 -1 1
1;
#X obj 181 847 t b f;
#X msg 181 873 2;
#X obj 212 218 tgl 8 0 empty empty empty 17 7 0 10 -262144 -1 -1 1
1;
#X obj 224 847 t b f;
#X obj 221 218 tgl 8 0 empty empty empty 17 7 0 10 -262144 -1 -1 1
1;
#X obj 268 847 t b f;
#X msg 224 873 3;
#X msg 268 873 4;
#X obj 230 218 tgl 8 0 empty empty empty 17 7 0 10 -262144 -1 -1 1
1;
#X obj 310 847 t b f;
#X obj 239 218 tgl 8 0 empty empty empty 17 7 0 10 -262144 -1 -1 1
1;
#X obj 354 847 t b f;
#X obj 248 218 tgl 8 0 empty empty empty 17 7 0 10 -262144 -1 -1 1
1;
#X obj 397 847 t b f;
#X obj 257 218 tgl 8 0 empty empty empty 17 7 0 10 -262144 -1 -1 1
1;
#X obj 441 847 t b f;
#X msg 310 873 5;
#X msg 354 873 6;
#X msg 397 873 7;
#X msg 441 873 8;
#X obj 105 1016 s \$0-cmd;
#X msg 90 914 enable;
#X obj 130 937 t b a;
#X obj 105 962 pack s s f;
#X msg 155 738 symbol a1-\$1;
#X obj 1262 426 print \$0-cmd;
#X obj 197 804 list trim;
#X msg 563 744 symbol a2-\$1;
#X obj 522 834 list trim;
#X msg 899 823 symbol a3-\$1;
#X obj 859 921 list trim;
#X msg 144 915 symbol a4-\$1;
#X obj 107 987 list trim;
#X msg 322 98 1;
#X obj 336 18 t b b b b b;
#X obj 274 -8 bng 15 250 50 0 empty empty empty 17 7 0 10 -262144 -1
-1;
#X text 110 224 1;
#X text 158 224 2;
#X text 207 224 3;
#X text 251 224 4;
#X obj 116 565 *~ 1;
#X obj 182 565 *~ 1;
#X obj 243 565 *~ 1;
#X obj 316 565 *~ 1;
#X obj 415 565 *~ 1;
#X obj 481 565 *~ 1;
#X obj 542 565 *~ 1;
#X obj 615 565 *~ 1;
#X obj 423 274 flicker~;
#X obj 477 302 flicker~;
#X obj 594 281 flicker~;
#X connect 0 0 38 0;
#X connect 0 0 39 0;
#X connect 0 0 40 0;
#X connect 0 0 41 0;
#X connect 0 0 124 0;
#X connect 1 0 118 0;
#X connect 3 0 5 0;
#X connect 4 0 77 0;
#X connect 5 0 4 0;
#X connect 5 1 10 0;
#X connect 6 0 9 0;
#X connect 7 0 15 0;
#X connect 8 0 7 0;
#X connect 9 0 103 0;
#X connect 10 0 6 1;
#X connect 11 0 249 0;
#X connect 12 0 3 0;
#X connect 12 1 13 0;
#X connect 13 0 4 0;
#X connect 15 0 12 0;
#X connect 16 0 18 0;
#X connect 17 0 78 0;
#X connect 18 0 17 0;
#X connect 18 1 23 0;
#X connect 19 0 22 0;
#X connect 20 0 26 0;
#X connect 21 0 20 0;
#X connect 22 0 103 0;
#X connect 23 0 19 1;
#X connect 24 0 16 0;
#X connect 24 1 25 0;
#X connect 25 0 17 0;
#X connect 26 0 24 0;
#X connect 38 0 255 0;
#X connect 39 0 257 0;
#X connect 40 0 259 0;
#X connect 41 0 261 0;
#X connect 42 0 43 0;
#X connect 42 0 44 0;
#X connect 42 0 45 0;
#X connect 42 0 46 0;
#X connect 42 0 124 0;
#X connect 43 0 256 0;
#X connect 44 0 258 0;
#X connect 45 0 260 0;
#X connect 46 0 262 0;
#X connect 47 0 48 0;
#X connect 47 0 49 0;
#X connect 47 0 50 0;
#X connect 47 0 51 0;
#X connect 47 0 263 0;
#X connect 48 0 255 0;
#X connect 49 0 257 0;
#X connect 50 0 259 0;
#X connect 51 0 261 0;
#X connect 52 0 53 0;
#X connect 52 0 54 0;
#X connect 52 0 55 0;
#X connect 52 0 56 0;
#X connect 52 0 263 0;
#X connect 53 0 256 0;
#X connect 54 0 258 0;
#X connect 55 0 260 0;
#X connect 56 0 262 0;
#X connect 57 0 58 0;
#X connect 57 0 59 0;
#X connect 57 0 60 0;
#X connect 57 0 61 0;
#X connect 57 0 264 0;
#X connect 58 0 255 0;
#X connect 59 0 257 0;
#X connect 60 0 259 0;
#X connect 61 0 261 0;
#X connect 62 0 63 0;
#X connect 62 0 64 0;
#X connect 62 0 65 0;
#X connect 62 0 66 0;
#X connect 62 0 264 0;
#X connect 63 0 256 0;
#X connect 64 0 258 0;
#X connect 65 0 260 0;
#X connect 66 0 262 0;
#X connect 67 0 68 0;
#X connect 67 0 69 0;
#X connect 67 0 70 0;
#X connect 67 0 71 0;
#X connect 67 0 265 0;
#X connect 68 0 255 0;
#X connect 69 0 257 0;
#X connect 70 0 259 0;
#X connect 71 0 261 0;
#X connect 72 0 73 0;
#X connect 72 0 74 0;
#X connect 72 0 75 0;
#X connect 72 0 76 0;
#X connect 72 0 265 0;
#X connect 73 0 256 0;
#X connect 74 0 258 0;
#X connect 75 0 260 0;
#X connect 76 0 262 0;
#X connect 77 0 6 0;
#X connect 78 0 19 0;
#X connect 79 0 81 0;
#X connect 80 0 90 0;
#X connect 81 0 80 0;
#X connect 81 1 86 0;
#X connect 82 0 85 0;
#X connect 83 0 89 0;
#X connect 84 0 83 0;
#X connect 85 0 103 0;
#X connect 86 0 82 1;
#X connect 87 0 79 0;
#X connect 87 1 88 0;
#X connect 88 0 80 0;
#X connect 89 0 87 0;
#X connect 90 0 82 0;
#X connect 91 0 93 0;
#X connect 92 0 102 0;
#X connect 93 0 92 0;
#X connect 93 1 98 0;
#X connect 94 0 97 0;
#X connect 95 0 101 0;
#X connect 96 0 95 0;
#X connect 97 0 103 0;
#X connect 98 0 94 1;
#X connect 99 0 91 0;
#X connect 99 1 100 0;
#X connect 100 0 92 0;
#X connect 101 0 99 0;
#X connect 102 0 94 0;
#X connect 103 0 38 1;
#X connect 103 1 43 1;
#X connect 103 2 48 1;
#X connect 103 3 53 1;
#X connect 103 4 58 1;
#X connect 103 5 63 1;
#X connect 103 6 68 1;
#X connect 103 7 73 1;
#X connect 103 8 104 0;
#X connect 104 0 39 1;
#X connect 104 1 44 1;
#X connect 104 2 49 1;
#X connect 104 3 54 1;
#X connect 104 4 59 1;
#X connect 104 5 64 1;
#X connect 104 6 69 1;
#X connect 104 7 74 1;
#X connect 104 8 105 0;
#X connect 105 0 40 1;
#X connect 105 1 45 1;
#X connect 105 2 50 1;
#X connect 105 3 55 1;
#X connect 105 4 60 1;
#X connect 105 5 65 1;
#X connect 105 6 70 1;
#X connect 105 7 75 1;
#X connect 105 8 106 0;
#X connect 106 0 41 1;
#X connect 106 1 46 1;
#X connect 106 2 51 1;
#X connect 106 3 56 1;
#X connect 106 4 61 1;
#X connect 106 5 66 1;
#X connect 106 6 71 1;
#X connect 106 7 76 1;
#X connect 106 8 249 0;
#X connect 107 0 108 1;
#X connect 107 0 121 1;
#X connect 108 0 110 0;
#X connect 109 0 119 0;
#X connect 111 0 108 0;
#X connect 113 0 119 0;
#X connect 114 0 115 0;
#X connect 116 0 114 0;
#X connect 117 0 119 0;
#X connect 118 0 107 0;
#X connect 118 2 121 0;
#X connect 119 0 120 0;
#X connect 121 0 119 0;
#X connect 122 0 107 0;
#X connect 124 0 125 0;
#X connect 126 0 128 0;
#X connect 127 0 239 0;
#X connect 128 0 127 0;
#X connect 128 1 154 2;
#X connect 129 0 130 0;
#X connect 130 0 131 0;
#X connect 130 1 154 2;
#X connect 131 0 239 0;
#X connect 132 0 133 0;
#X connect 133 0 136 0;
#X connect 133 1 154 2;
#X connect 134 0 135 0;
#X connect 135 0 137 0;
#X connect 135 1 154 2;
#X connect 136 0 239 0;
#X connect 137 0 239 0;
#X connect 138 0 139 0;
#X connect 139 0 146 0;
#X connect 139 1 154 2;
#X connect 140 0 141 0;
#X connect 141 0 147 0;
#X connect 141 1 154 2;
#X connect 142 0 143 0;
#X connect 143 0 148 0;
#X connect 143 1 154 2;
#X connect 144 0 145 0;
#X connect 145 0 149 0;
#X connect 145 1 154 2;
#X connect 146 0 239 0;
#X connect 147 0 239 0;
#X connect 148 0 239 0;
#X connect 149 0 239 0;
#X connect 151 0 119 0;
#X connect 152 0 154 0;
#X connect 153 0 152 0;
#X connect 153 1 154 1;
#X connect 154 0 241 0;
#X connect 155 0 157 0;
#X connect 156 0 242 0;
#X connect 157 0 156 0;
#X connect 157 1 182 2;
#X connect 158 0 159 0;
#X connect 159 0 160 0;
#X connect 159 1 182 2;
#X connect 160 0 242 0;
#X connect 161 0 162 0;
#X connect 162 0 165 0;
#X connect 162 1 182 2;
#X connect 163 0 164 0;
#X connect 164 0 166 0;
#X connect 164 1 182 2;
#X connect 165 0 242 0;
#X connect 166 0 242 0;
#X connect 167 0 168 0;
#X connect 168 0 175 0;
#X connect 168 1 182 2;
#X connect 169 0 170 0;
#X connect 170 0 176 0;
#X connect 170 1 182 2;
#X connect 171 0 172 0;
#X connect 172 0 177 0;
#X connect 172 1 182 2;
#X connect 173 0 174 0;
#X connect 174 0 178 0;
#X connect 174 1 182 2;
#X connect 175 0 242 0;
#X connect 176 0 242 0;
#X connect 177 0 242 0;
#X connect 178 0 242 0;
#X connect 180 0 182 0;
#X connect 181 0 180 0;
#X connect 181 1 182 1;
#X connect 182 0 243 0;
#X connect 183 0 185 0;
#X connect 184 0 244 0;
#X connect 185 0 184 0;
#X connect 185 1 210 2;
#X connect 186 0 187 0;
#X connect 187 0 188 0;
#X connect 187 1 210 2;
#X connect 188 0 244 0;
#X connect 189 0 190 0;
#X connect 190 0 193 0;
#X connect 190 1 210 2;
#X connect 191 0 192 0;
#X connect 192 0 194 0;
#X connect 192 1 210 2;
#X connect 193 0 244 0;
#X connect 194 0 244 0;
#X connect 195 0 196 0;
#X connect 196 0 203 0;
#X connect 196 1 210 2;
#X connect 197 0 198 0;
#X connect 198 0 204 0;
#X connect 198 1 210 2;
#X connect 199 0 200 0;
#X connect 200 0 205 0;
#X connect 200 1 210 2;
#X connect 201 0 202 0;
#X connect 202 0 206 0;
#X connect 202 1 210 2;
#X connect 203 0 244 0;
#X connect 204 0 244 0;
#X connect 205 0 244 0;
#X connect 206 0 244 0;
#X connect 208 0 210 0;
#X connect 209 0 208 0;
#X connect 209 1 210 1;
#X connect 210 0 245 0;
#X connect 211 0 213 0;
#X connect 212 0 246 0;
#X connect 213 0 212 0;
#X connect 213 1 238 2;
#X connect 214 0 215 0;
#X connect 215 0 216 0;
#X connect 215 1 238 2;
#X connect 216 0 246 0;
#X connect 217 0 218 0;
#X connect 218 0 221 0;
#X connect 218 1 238 2;
#X connect 219 0 220 0;
#X connect 220 0 222 0;
#X connect 220 1 238 2;
#X connect 221 0 246 0;
#X connect 222 0 246 0;
#X connect 223 0 224 0;
#X connect 224 0 231 0;
#X connect 224 1 238 2;
#X connect 225 0 226 0;
#X connect 226 0 232 0;
#X connect 226 1 238 2;
#X connect 227 0 228 0;
#X connect 228 0 233 0;
#X connect 228 1 238 2;
#X connect 229 0 230 0;
#X connect 230 0 234 0;
#X connect 230 1 238 2;
#X connect 231 0 246 0;
#X connect 232 0 246 0;
#X connect 233 0 246 0;
#X connect 234 0 246 0;
#X connect 236 0 238 0;
#X connect 237 0 236 0;
#X connect 237 1 238 1;
#X connect 238 0 247 0;
#X connect 239 0 153 0;
#X connect 241 0 150 0;
#X connect 242 0 181 0;
#X connect 243 0 179 0;
#X connect 244 0 209 0;
#X connect 245 0 207 0;
#X connect 246 0 237 0;
#X connect 247 0 235 0;
#X connect 248 0 126 0;
#X connect 248 0 129 0;
#X connect 248 0 132 0;
#X connect 248 0 134 0;
#X connect 248 0 138 0;
#X connect 248 0 140 0;
#X connect 248 0 142 0;
#X connect 248 0 144 0;
#X connect 248 0 155 0;
#X connect 248 0 158 0;
#X connect 248 0 161 0;
#X connect 248 0 163 0;
#X connect 248 0 167 0;
#X connect 248 0 169 0;
#X connect 248 0 171 0;
#X connect 248 0 173 0;
#X connect 248 0 183 0;
#X connect 248 0 186 0;
#X connect 248 0 189 0;
#X connect 248 0 191 0;
#X connect 248 0 195 0;
#X connect 248 0 199 0;
#X connect 248 0 197 0;
#X connect 248 0 201 0;
#X connect 248 0 211 0;
#X connect 248 0 214 0;
#X connect 248 0 217 0;
#X connect 248 0 219 0;
#X connect 248 0 223 0;
#X connect 248 0 225 0;
#X connect 248 0 227 0;
#X connect 248 0 229 0;
#X connect 249 0 95 0;
#X connect 249 1 83 0;
#X connect 249 2 20 0;
#X connect 249 3 7 0;
#X connect 249 4 122 0;
#X connect 249 4 248 0;
#X connect 250 0 249 0;
#X connect 255 0 31 0;
#X connect 256 0 30 0;
#X connect 257 0 32 0;
#X connect 258 0 33 0;
#X connect 259 0 34 0;
#X connect 260 0 35 0;
#X connect 261 0 36 0;
#X connect 262 0 37 0;
#X connect 263 0 125 0;
#X connect 264 0 125 0;
#X connect 265 0 125 0;
#X coords 0 -1 1 1 175 142 2 100 100;
