#N canvas 1366 56 1360 712 12;
#X obj 529 183 4mixertouch~;
#X obj 243 241 8mixertouch~;
#X obj 760 231 4stereoaux~;
#X obj 863 131 osc~ 230;
#X obj 893 511 else/out~;
#X obj 961 107 env~;
#X obj 933 54 osc~ 40;
#X obj 956 163 adc~;
#X obj 673 433 4meters~;
#X connect 2 0 8 0;
#X connect 2 1 8 1;
#X connect 2 2 8 2;
#X connect 2 3 8 3;
#X connect 3 0 2 1;
#X connect 5 0 3 1;
#X connect 6 0 5 0;
#X connect 7 0 2 2;
#X connect 7 1 2 5;
