#N canvas 1366 56 1360 712 12;
#X obj 6 55 inlet~ L;
#X obj 75 55 inlet~ R;
#X obj 50 816 outlet~ L;
#X obj 1082 815 outlet~ R;
#X obj 153 56 inlet cmd;
#X text 104 196 p;
#X text 104 256 r;
#X obj 118 123 looper~;
#X obj 205 123 looper~;
#X obj 293 123 looper~;
#X obj 382 122 looper~;
#X obj 471 122 looper~;
#X obj 558 123 looper~;
#X text 708 103 c;
#X text 102 102 6LOOPER~;
#X obj 116 338 2mixerhorz~;
#X obj 203 338 2mixerhorz~;
#X obj 291 338 2mixerhorz~;
#X obj 380 338 2mixerhorz~;
#X obj 468 338 2mixerhorz~;
#X obj 556 338 2mixerhorz~;
#X obj 85 509 2ports~;
#X obj 210 665 2ports~;
#X obj 1096 1 2ports~;
#X obj 1280 -2 2ports~;
#X obj 221 109 ctgl;
#X obj 231 109 ctgl;
#X obj 241 109 ctgl;
#X obj 251 109 ctgl;
#X obj 261 109 ctgl;
#X obj 271 109 ctgl;
#X obj 862 -99 loadbang;
#X msg 268 -9 0;
#X obj 934 20 cyclone/uzi 6 1;
#X obj 995 -75 bng 15 250 50 0 empty empty empty 17 7 0 10 -262144
-1 -1;
#X obj 280 816 outlet~ v1;
#X obj 360 816 outlet~ v1;
#X obj 201 816 outlet~ v1;
#X obj 440 816 outlet~ v1;
#X obj 122 816 outlet~ v1;
#X obj 999 816 outlet~ v1;
#X obj 679 816 outlet~ v1;
#X obj 759 816 outlet~ v1;
#X obj 600 816 outlet~ v1;
#X obj 839 816 outlet~ v1;
#X obj 521 816 outlet~ v1;
#X obj 916 816 outlet~ v1;
#X obj 1164 816 outlet cmd;
#X text 169 103 playrg;
#X text 707 403 c;
#X text 100 403 l;
#X text 674 403 r;
#X obj 652 124 tgl 10 0 empty empty empty 17 7 0 10 -262144 -1 -1 0
1;
#X obj 663 124 tgl 10 0 empty empty empty 17 7 0 10 -262144 -1 -1 0
1;
#X obj 674 124 tgl 10 0 empty empty empty 17 7 0 10 -262144 -1 -1 0
1;
#X obj 685 124 tgl 10 0 empty empty empty 17 7 0 10 -262144 -1 -1 0
1;
#X obj 696 124 tgl 10 0 empty empty empty 17 7 0 10 -262144 -1 -1 0
1;
#X obj 641 124 tgl 10 0 empty empty empty 17 7 0 10 -195568 -1 -262144
1 1;
#X obj 983 175 *~;
#X obj 1014 175 *~;
#X obj 1046 174 *~;
#X obj 1077 174 *~;
#X obj 1108 173 *~;
#X obj 1139 173 *~;
#X obj 1170 173 *~;
#X obj 1201 173 *~;
#X obj 1233 172 *~;
#X obj 1264 172 *~;
#X obj 921 176 *~;
#X obj 950 176 *~;
#X obj 1269 367 +~ 0;
#X obj 1300 367 +~ 0;
#X obj 1333 367 +~ 0;
#X obj 1364 367 +~ 0;
#X obj 1396 367 +~ 0;
#X obj 1427 367 +~ 0;
#X obj 1463 367 +~ 0;
#X obj 1494 367 +~ 0;
#X obj 1531 367 +~ 0;
#X obj 1568 367 +~ 0;
#X obj 1606 367 +~ 0;
#X obj 1644 367 +~ 0;
#X obj 652 136 tgl 10 0 empty empty empty 17 7 0 10 -195568 -1 -262144
1 1;
#X obj 663 136 tgl 10 0 empty empty empty 17 7 0 10 -262144 -1 -1 0
1;
#X obj 674 136 tgl 10 0 empty empty empty 17 7 0 10 -262144 -1 -1 0
1;
#X obj 685 136 tgl 10 0 empty empty empty 17 7 0 10 -262144 -1 -1 0
1;
#X obj 696 136 tgl 10 0 empty empty empty 17 7 0 10 -262144 -1 -1 0
1;
#X obj 641 136 tgl 10 0 empty empty empty 17 7 0 10 -262144 -1 -1 0
1;
#X obj 1098 263 *~;
#X obj 1129 263 *~;
#X obj 1161 262 *~;
#X obj 1192 262 *~;
#X obj 1223 261 *~;
#X obj 1254 261 *~;
#X obj 1285 261 *~;
#X obj 1316 261 *~;
#X obj 1348 260 *~;
#X obj 1379 260 *~;
#X obj 1034 264 *~;
#X obj 1065 264 *~;
#X obj 652 160 tgl 10 0 empty empty empty 17 7 0 10 -262144 -1 -1 0
1;
#X obj 663 160 tgl 10 0 empty empty empty 17 7 0 10 -262144 -1 -1 0
1;
#X obj 674 160 tgl 10 0 empty empty empty 17 7 0 10 -195568 -1 -262144
1 1;
#X obj 685 160 tgl 10 0 empty empty empty 17 7 0 10 -262144 -1 -1 0
1;
#X obj 696 160 tgl 10 0 empty empty empty 17 7 0 10 -262144 -1 -1 0
1;
#X obj 641 160 tgl 10 0 empty empty empty 17 7 0 10 -262144 -1 -1 0
1;
#X obj 1060 537 *~;
#X obj 1091 537 *~;
#X obj 1123 536 *~;
#X obj 1154 536 *~;
#X obj 1185 535 *~;
#X obj 1216 535 *~;
#X obj 1247 535 *~;
#X obj 1278 535 *~;
#X obj 1310 534 *~;
#X obj 1341 534 *~;
#X obj 996 538 *~;
#X obj 1027 538 *~;
#X obj 641 172 tgl 10 0 empty empty empty 17 7 0 10 -262144 -1 -1 0
1;
#X obj 652 172 tgl 10 0 empty empty empty 17 7 0 10 -262144 -1 -1 0
1;
#X obj 663 172 tgl 10 0 empty empty empty 17 7 0 10 -262144 -1 -1 0
1;
#X obj 674 172 tgl 10 0 empty empty empty 17 7 0 10 -262144 -1 -1 0
1;
#X obj 685 172 tgl 10 0 empty empty empty 17 7 0 10 -195568 -1 -262144
1 1;
#X obj 696 172 tgl 10 0 empty empty empty 17 7 0 10 -262144 -1 -1 0
1;
#X obj 1237 661 *~;
#X obj 1267 661 *~;
#X obj 1299 660 *~;
#X obj 1330 660 *~;
#X obj 1361 659 *~;
#X obj 1392 659 *~;
#X obj 1423 659 *~;
#X obj 1454 659 *~;
#X obj 1486 658 *~;
#X obj 1517 658 *~;
#X obj 1546 658 *~;
#X obj 1580 659 *~;
#X obj 641 184 tgl 10 0 empty empty empty 17 7 0 10 -262144 -1 -1 0
1;
#X obj 652 184 tgl 10 0 empty empty empty 17 7 0 10 -262144 -1 -1 0
1;
#X obj 663 184 tgl 10 0 empty empty empty 17 7 0 10 -262144 -1 -1 0
1;
#X obj 674 184 tgl 10 0 empty empty empty 17 7 0 10 -262144 -1 -1 0
1;
#X obj 685 184 tgl 10 0 empty empty empty 17 7 0 10 -262144 -1 -1 0
1;
#X obj 696 184 tgl 10 0 empty empty empty 17 7 0 10 -195568 -1 -262144
1 1;
#X obj 1416 569 *~;
#X obj 1446 569 *~;
#X obj 1478 568 *~;
#X obj 1509 568 *~;
#X obj 1540 567 *~;
#X obj 1571 567 *~;
#X obj 1602 567 *~;
#X obj 1633 567 *~;
#X obj 1665 566 *~;
#X obj 1696 566 *~;
#X obj 1725 566 *~;
#X obj 1759 567 *~;
#X obj 641 148 tgl 10 0 empty empty empty 17 7 0 10 -262144 -1 -1 0
1;
#X obj 652 148 tgl 10 0 empty empty empty 17 7 0 10 -262144 -1 -1 0
1;
#X obj 663 148 tgl 10 0 empty empty empty 17 7 0 10 -195568 -1 -262144
1 1;
#X obj 674 148 tgl 10 0 empty empty empty 17 7 0 10 -262144 -1 -1 0
1;
#X obj 685 148 tgl 10 0 empty empty empty 17 7 0 10 -262144 -1 -1 0
1;
#X obj 696 148 tgl 10 0 empty empty empty 17 7 0 10 -262144 -1 -1 0
1;
#X obj 1439 68 *~;
#X obj 1469 68 *~;
#X obj 1501 67 *~;
#X obj 1532 67 *~;
#X obj 1563 66 *~;
#X obj 1594 66 *~;
#X obj 1625 66 *~;
#X obj 1656 66 *~;
#X obj 1688 65 *~;
#X obj 1719 65 *~;
#X obj 1748 65 *~;
#X obj 1782 66 *~;
#X msg 1233 68 color 20 22 0;
#X obj 1211 34 bng 15 250 50 0 empty empty empty 17 7 0 10 -262144
-1 -1;
#X obj 1553 17 loadbang;
#X msg 790 78 1;
#X obj 336 485 env~;
#X floatatom 341 512 5 0 0 0 - - -;
#X obj 286 624 s~ 1L;
#X obj 331 624 s~ 1R;
#X obj 376 624 s~ 2L;
#X obj 422 624 s~ 2R;
#X obj 474 624 s~ 3L;
#X obj 519 624 s~ 3R;
#X obj 559 624 s~ 4L;
#X obj 603 624 s~ 4R;
#X obj 648 623 s~ 5L;
#X obj 692 623 s~ 5R;
#X obj 734 623 s~ 6L;
#X obj 777 623 s~ 6R;
#X obj -14 138 r~ 1L;
#X obj 30 138 r~ 1R;
#X obj -15 161 r~ 2L;
#X obj 29 161 r~ 2R;
#X obj -14 210 r~ 4L;
#X obj 30 210 r~ 4R;
#X obj -15 185 r~ 3L;
#X obj 29 185 r~ 3R;
#X obj -14 235 r~ 5L;
#X obj 30 235 r~ 5R;
#X obj -14 259 r~ 6L;
#X obj 30 259 r~ 6R;
#X obj 414 570 *~ 1;
#X obj 445 570 *~ 1;
#X obj 483 571 *~ 1;
#X obj 514 571 *~ 1;
#X obj 569 570 *~ 1;
#X obj 600 570 *~ 1;
#X obj 648 569 *~ 1;
#X obj 679 569 *~ 1;
#X obj 714 576 *~ 1;
#X obj 745 576 *~ 1;
#X obj 786 572 *~ 1;
#X obj 817 572 *~ 1;
#X obj 5 358 bin2dec;
#X obj 6 383 bin2dec;
#X obj 6 414 bin2dec;
#X obj 8 442 bin2dec;
#X obj 8 472 bin2dec;
#X obj 10 500 bin2dec;
#X obj 26 558 f;
#X obj 24 586 f;
#X obj 23 610 f;
#X obj 23 635 f;
#X obj 22 660 f;
#X obj 20 691 f;
#X obj 265 522 dec2bin;
#X msg 147 563 1;
#X obj 146 534 t b b f;
#X obj 215 562 pack f f f f f f f;
#X obj 119 601 t b b f;
#X msg 116 628 2;
#X obj 114 656 t b b f;
#X msg 111 683 3;
#X obj 110 708 t b b f;
#X msg 107 735 4;
#X obj 212 716 t b b f;
#X msg 209 743 5;
#X obj 300 713 t b b f;
#X msg 297 740 6;
#X text 441 678 hit to rec \, retrieve status of play buttons \, those
off play \, start rec. If hit again \, turn off record \, those that
were playing before rec \, allow them to do what they were doing \,
those that were off \, stop.;
#X obj 506 41 playregionsort;
#X obj 711 124 bng 10 250 50 0 empty empty empty 17 7 0 10 -262144
-1 -1;
#X obj 711 136 bng 10 250 50 0 empty empty empty 17 7 0 10 -262144
-1 -1;
#X obj 711 148 bng 10 250 50 0 empty empty empty 17 7 0 10 -262144
-1 -1;
#X obj 711 160 bng 10 250 50 0 empty empty empty 17 7 0 10 -262144
-1 -1;
#X obj 711 172 bng 10 250 50 0 empty empty empty 17 7 0 10 -262144
-1 -1;
#X obj 711 184 bng 10 250 50 0 empty empty empty 17 7 0 10 -262144
-1 -1;
#X floatatom 66 578 5 0 0 0 - - -;
#X floatatom 64 604 5 0 0 0 - - -;
#X floatatom 61 629 5 0 0 0 - - -;
#X floatatom 62 658 5 0 0 0 - - -;
#X floatatom 56 689 5 0 0 0 - - -;
#X floatatom 58 724 5 0 0 0 - - -;
#X obj 641 209 6touchon;
#X obj 807 256 print OUT;
#X msg 763 -42 sendcmd prg;
#X obj 410 498 s cmdbus;
#X obj 831 67 r cmdbus;
#X text 968 -20 init ids;
#X obj 123 446 route nxt;
#X obj 195 447 route nxt;
#X obj 269 447 route nxt;
#X obj 343 449 route nxt;
#X obj 415 448 route nxt;
#X obj 494 449 route nxt;
#X obj 841 17 route nxt;
#X msg 310 16 init;
#X obj 329 55 route t1 t2 t3 t4 t5 t6 init;
#X msg 356 -22 t1 prg \$1;
#X msg 445 -25 t2 prg \$1;
#X msg 516 -25 t3 prg \$1;
#X msg 372 12 t4 prg \$1;
#X msg 442 12 t5 prg \$1;
#X msg 517 12 t6 prg \$1;
#X msg 169 -8 t1 prg 1;
#X msg 131 470 nxt;
#X msg 195 470 nxt;
#X msg 269 470 nxt;
#X msg 343 472 nxt;
#X msg 416 471 nxt;
#X msg 496 474 nxt;
#X obj 675 37 route t1 t2 t3 t4 t5 t6;
#X obj 833 468 convertupdatetoset;
#X obj 890 87 print cmdbus;
#X obj 641 289 6touchon;
#X msg 853 -30 sendcmd loop;
#X obj 788 364 print Tloop;
#X text 685 299 loop;
#X text 691 217 prg;
#X obj 641 249 6touchon;
#X msg 1093 -46 sendcmd auto;
#X text 683 260 auto;
#X obj 641 332 6touchon;
#X msg 1078 27 sendcmd nxtb;
#X text 692 342 nxt;
#X msg 1172 0 init 1;
#X msg 1174 -25 init 0;
#X msg 930 46 t\$1 id t\$1;
#X text 104 226 s;
#X connect 0 0 23 0;
#X connect 1 0 23 1;
#X connect 4 0 268 0;
#X connect 7 0 15 0;
#X connect 7 0 70 0;
#X connect 7 1 15 1;
#X connect 7 1 71 0;
#X connect 7 2 260 0;
#X connect 7 2 257 0;
#X connect 7 2 283 0;
#X connect 8 0 72 0;
#X connect 8 0 16 0;
#X connect 8 1 73 0;
#X connect 8 1 16 1;
#X connect 8 2 257 0;
#X connect 8 2 261 0;
#X connect 8 2 283 0;
#X connect 9 0 74 0;
#X connect 9 0 17 0;
#X connect 9 1 75 0;
#X connect 9 1 17 1;
#X connect 9 2 257 0;
#X connect 9 2 262 0;
#X connect 9 2 283 0;
#X connect 10 0 76 0;
#X connect 10 0 18 0;
#X connect 10 1 77 0;
#X connect 10 1 18 1;
#X connect 10 2 257 0;
#X connect 10 2 263 0;
#X connect 10 2 283 0;
#X connect 11 0 78 0;
#X connect 11 0 19 0;
#X connect 11 1 79 0;
#X connect 11 1 19 1;
#X connect 11 2 257 0;
#X connect 11 2 264 0;
#X connect 11 2 283 0;
#X connect 12 0 80 0;
#X connect 12 0 20 0;
#X connect 12 1 81 0;
#X connect 12 1 20 1;
#X connect 12 2 257 0;
#X connect 12 2 265 0;
#X connect 12 2 283 0;
#X connect 15 0 21 0;
#X connect 15 1 39 0;
#X connect 15 2 37 0;
#X connect 15 3 21 1;
#X connect 16 0 21 0;
#X connect 16 1 35 0;
#X connect 16 2 36 0;
#X connect 16 3 21 1;
#X connect 17 0 21 0;
#X connect 17 1 38 0;
#X connect 17 2 45 0;
#X connect 17 3 21 1;
#X connect 18 0 21 0;
#X connect 18 1 43 0;
#X connect 18 2 41 0;
#X connect 18 3 21 1;
#X connect 19 0 21 0;
#X connect 19 1 42 0;
#X connect 19 2 44 0;
#X connect 19 3 21 1;
#X connect 20 0 21 0;
#X connect 20 1 46 0;
#X connect 20 2 40 0;
#X connect 20 3 21 1;
#X connect 21 0 22 0;
#X connect 21 1 22 1;
#X connect 22 0 2 0;
#X connect 22 1 3 0;
#X connect 23 0 24 0;
#X connect 23 0 68 0;
#X connect 23 0 88 0;
#X connect 23 0 164 0;
#X connect 23 1 24 1;
#X connect 23 1 69 0;
#X connect 23 1 89 0;
#X connect 23 1 165 0;
#X connect 24 0 110 0;
#X connect 24 0 132 0;
#X connect 24 0 152 0;
#X connect 24 1 111 0;
#X connect 24 1 133 0;
#X connect 24 1 153 0;
#X connect 25 0 269 0;
#X connect 26 0 270 0;
#X connect 27 0 271 0;
#X connect 28 0 272 0;
#X connect 29 0 273 0;
#X connect 30 0 274 0;
#X connect 31 0 32 0;
#X connect 31 0 33 0;
#X connect 31 0 256 0;
#X connect 31 0 286 0;
#X connect 31 0 291 0;
#X connect 31 0 294 0;
#X connect 31 0 296 0;
#X connect 31 0 297 0;
#X connect 32 0 25 0;
#X connect 32 0 26 0;
#X connect 32 0 27 0;
#X connect 32 0 28 0;
#X connect 32 0 29 0;
#X connect 32 0 30 0;
#X connect 33 2 298 0;
#X connect 34 0 33 0;
#X connect 34 0 256 0;
#X connect 34 0 286 0;
#X connect 34 0 291 0;
#X connect 34 0 294 0;
#X connect 34 0 296 0;
#X connect 34 0 297 0;
#X connect 52 0 58 1;
#X connect 52 0 59 1;
#X connect 52 0 214 0;
#X connect 53 0 60 1;
#X connect 53 0 61 1;
#X connect 53 0 214 1;
#X connect 54 0 62 1;
#X connect 54 0 63 1;
#X connect 54 0 214 2;
#X connect 55 0 64 1;
#X connect 55 0 65 1;
#X connect 55 0 214 3;
#X connect 56 0 66 1;
#X connect 56 0 67 1;
#X connect 56 0 214 4;
#X connect 57 0 68 1;
#X connect 57 0 69 1;
#X connect 58 0 202 0;
#X connect 59 0 203 0;
#X connect 60 0 202 0;
#X connect 61 0 203 0;
#X connect 62 0 202 0;
#X connect 63 0 203 0;
#X connect 64 0 202 0;
#X connect 65 0 203 0;
#X connect 66 0 202 0;
#X connect 67 0 203 0;
#X connect 68 0 202 0;
#X connect 69 0 203 0;
#X connect 70 0 98 0;
#X connect 70 0 116 0;
#X connect 70 0 124 0;
#X connect 70 0 142 0;
#X connect 70 0 160 0;
#X connect 71 0 99 0;
#X connect 71 0 117 0;
#X connect 71 0 125 0;
#X connect 71 0 143 0;
#X connect 71 0 161 0;
#X connect 72 0 58 0;
#X connect 72 0 106 0;
#X connect 72 0 126 0;
#X connect 72 0 144 0;
#X connect 72 0 162 0;
#X connect 73 0 59 0;
#X connect 73 0 107 0;
#X connect 73 0 127 0;
#X connect 73 0 145 0;
#X connect 73 0 163 0;
#X connect 74 0 60 0;
#X connect 74 0 90 0;
#X connect 74 0 108 0;
#X connect 74 0 128 0;
#X connect 74 0 146 0;
#X connect 75 0 61 0;
#X connect 75 0 91 0;
#X connect 75 0 109 0;
#X connect 75 0 129 0;
#X connect 75 0 147 0;
#X connect 76 0 62 0;
#X connect 76 0 92 0;
#X connect 76 0 130 0;
#X connect 76 0 148 0;
#X connect 76 0 166 0;
#X connect 77 0 63 0;
#X connect 77 0 93 0;
#X connect 77 0 131 0;
#X connect 77 0 149 0;
#X connect 77 0 167 0;
#X connect 78 0 64 0;
#X connect 78 0 94 0;
#X connect 78 0 112 0;
#X connect 78 0 150 0;
#X connect 78 0 168 0;
#X connect 79 0 65 0;
#X connect 79 0 95 0;
#X connect 79 0 113 0;
#X connect 79 0 151 0;
#X connect 79 0 169 0;
#X connect 80 0 66 0;
#X connect 80 0 96 0;
#X connect 80 0 114 0;
#X connect 80 0 134 0;
#X connect 80 0 170 0;
#X connect 81 0 67 0;
#X connect 81 0 97 0;
#X connect 81 0 115 0;
#X connect 81 0 135 0;
#X connect 81 0 171 0;
#X connect 82 0 88 1;
#X connect 82 0 89 1;
#X connect 83 0 90 1;
#X connect 83 0 91 1;
#X connect 83 0 215 1;
#X connect 84 0 92 1;
#X connect 84 0 93 1;
#X connect 84 0 215 2;
#X connect 85 0 94 1;
#X connect 85 0 95 1;
#X connect 85 0 215 3;
#X connect 86 0 96 1;
#X connect 86 0 97 1;
#X connect 86 0 215 4;
#X connect 87 0 98 1;
#X connect 87 0 99 1;
#X connect 87 0 215 0;
#X connect 88 0 204 0;
#X connect 89 0 205 0;
#X connect 90 0 204 0;
#X connect 91 0 205 0;
#X connect 92 0 204 0;
#X connect 93 0 205 0;
#X connect 94 0 204 0;
#X connect 95 0 205 0;
#X connect 96 0 204 0;
#X connect 97 0 205 0;
#X connect 98 0 204 0;
#X connect 99 0 205 0;
#X connect 100 0 106 1;
#X connect 100 0 107 1;
#X connect 100 0 217 1;
#X connect 101 0 108 1;
#X connect 101 0 109 1;
#X connect 101 0 217 2;
#X connect 102 0 110 1;
#X connect 102 0 111 1;
#X connect 103 0 112 1;
#X connect 103 0 113 1;
#X connect 103 0 217 3;
#X connect 104 0 114 1;
#X connect 104 0 115 1;
#X connect 104 0 217 4;
#X connect 105 0 116 1;
#X connect 105 0 117 1;
#X connect 105 0 217 0;
#X connect 106 0 208 0;
#X connect 107 0 209 0;
#X connect 108 0 208 0;
#X connect 109 0 209 0;
#X connect 110 0 208 0;
#X connect 111 0 209 0;
#X connect 112 0 208 0;
#X connect 113 0 209 0;
#X connect 114 0 208 0;
#X connect 115 0 209 0;
#X connect 116 0 208 0;
#X connect 117 0 209 0;
#X connect 118 0 124 1;
#X connect 118 0 125 1;
#X connect 118 0 218 0;
#X connect 119 0 126 1;
#X connect 119 0 127 1;
#X connect 119 0 218 1;
#X connect 120 0 128 1;
#X connect 120 0 129 1;
#X connect 120 0 218 2;
#X connect 121 0 130 1;
#X connect 121 0 131 1;
#X connect 121 0 218 3;
#X connect 122 0 132 1;
#X connect 122 0 133 1;
#X connect 123 0 134 1;
#X connect 123 0 135 1;
#X connect 123 0 218 4;
#X connect 124 0 210 0;
#X connect 125 0 211 0;
#X connect 126 0 210 0;
#X connect 127 0 211 0;
#X connect 128 0 210 0;
#X connect 129 0 211 0;
#X connect 130 0 210 0;
#X connect 131 0 211 0;
#X connect 132 0 210 0;
#X connect 133 0 211 0;
#X connect 134 0 210 0;
#X connect 135 0 211 0;
#X connect 136 0 142 1;
#X connect 136 0 143 1;
#X connect 136 0 219 0;
#X connect 137 0 144 1;
#X connect 137 0 145 1;
#X connect 137 0 219 1;
#X connect 138 0 146 1;
#X connect 138 0 147 1;
#X connect 138 0 219 2;
#X connect 139 0 148 1;
#X connect 139 0 149 1;
#X connect 139 0 219 3;
#X connect 140 0 150 1;
#X connect 140 0 151 1;
#X connect 140 0 219 4;
#X connect 141 0 152 1;
#X connect 141 0 153 1;
#X connect 142 0 212 0;
#X connect 143 0 213 0;
#X connect 144 0 212 0;
#X connect 145 0 213 0;
#X connect 146 0 212 0;
#X connect 147 0 213 0;
#X connect 148 0 212 0;
#X connect 149 0 213 0;
#X connect 150 0 212 0;
#X connect 151 0 213 0;
#X connect 152 0 212 0;
#X connect 153 0 213 0;
#X connect 154 0 160 1;
#X connect 154 0 161 1;
#X connect 154 0 216 0;
#X connect 155 0 162 1;
#X connect 155 0 163 1;
#X connect 155 0 216 1;
#X connect 156 0 164 1;
#X connect 156 0 165 1;
#X connect 157 0 166 1;
#X connect 157 0 167 1;
#X connect 157 0 216 2;
#X connect 158 0 168 1;
#X connect 158 0 169 1;
#X connect 158 0 216 3;
#X connect 159 0 170 1;
#X connect 159 0 171 1;
#X connect 159 0 216 4;
#X connect 160 0 206 0;
#X connect 161 0 207 0;
#X connect 162 0 206 0;
#X connect 163 0 207 0;
#X connect 164 0 206 0;
#X connect 165 0 207 0;
#X connect 166 0 206 0;
#X connect 167 0 207 0;
#X connect 168 0 206 0;
#X connect 169 0 207 0;
#X connect 170 0 206 0;
#X connect 171 0 207 0;
#X connect 172 0 57 0;
#X connect 172 0 82 0;
#X connect 172 0 156 0;
#X connect 172 0 102 0;
#X connect 172 0 122 0;
#X connect 172 0 141 0;
#X connect 173 0 172 0;
#X connect 174 0 175 0;
#X connect 174 0 172 0;
#X connect 175 0 57 0;
#X connect 175 0 156 0;
#X connect 175 0 102 0;
#X connect 175 0 141 0;
#X connect 175 0 82 0;
#X connect 175 0 122 0;
#X connect 176 0 177 0;
#X connect 190 0 7 0;
#X connect 191 0 7 1;
#X connect 192 0 8 0;
#X connect 193 0 8 1;
#X connect 194 0 10 0;
#X connect 195 0 10 1;
#X connect 196 0 9 0;
#X connect 197 0 9 1;
#X connect 198 0 11 0;
#X connect 199 0 11 1;
#X connect 200 0 12 0;
#X connect 201 0 12 1;
#X connect 202 0 178 0;
#X connect 203 0 179 0;
#X connect 204 0 180 0;
#X connect 205 0 181 0;
#X connect 206 0 182 0;
#X connect 207 0 183 0;
#X connect 208 0 184 0;
#X connect 209 0 185 0;
#X connect 210 0 186 0;
#X connect 211 0 187 0;
#X connect 212 0 188 0;
#X connect 213 0 189 0;
#X connect 214 0 220 1;
#X connect 215 0 221 1;
#X connect 216 0 222 1;
#X connect 217 0 223 1;
#X connect 218 0 224 1;
#X connect 219 0 225 1;
#X connect 220 0 226 0;
#X connect 220 0 248 0;
#X connect 221 0 226 0;
#X connect 221 0 249 0;
#X connect 222 0 226 0;
#X connect 222 0 250 0;
#X connect 223 0 226 0;
#X connect 223 0 251 0;
#X connect 224 0 226 0;
#X connect 224 0 252 0;
#X connect 225 0 226 0;
#X connect 225 0 253 0;
#X connect 226 0 229 2;
#X connect 226 1 229 3;
#X connect 226 2 229 4;
#X connect 226 3 229 5;
#X connect 226 4 229 6;
#X connect 227 0 229 0;
#X connect 228 0 227 0;
#X connect 228 1 220 0;
#X connect 228 2 229 1;
#X connect 229 0 241 0;
#X connect 230 0 231 0;
#X connect 230 1 221 0;
#X connect 230 2 229 1;
#X connect 231 0 229 0;
#X connect 232 0 233 0;
#X connect 232 1 222 0;
#X connect 232 2 229 1;
#X connect 233 0 229 0;
#X connect 234 0 235 0;
#X connect 234 1 223 0;
#X connect 234 2 229 1;
#X connect 235 0 229 0;
#X connect 236 0 237 0;
#X connect 236 1 224 0;
#X connect 236 2 229 1;
#X connect 237 0 229 0;
#X connect 238 0 239 0;
#X connect 238 1 225 0;
#X connect 238 2 229 1;
#X connect 239 0 229 0;
#X connect 241 0 268 0;
#X connect 242 0 228 0;
#X connect 243 0 230 0;
#X connect 244 0 232 0;
#X connect 245 0 234 0;
#X connect 246 0 236 0;
#X connect 247 0 238 0;
#X connect 254 0 255 0;
#X connect 254 0 268 0;
#X connect 256 0 254 0;
#X connect 258 0 266 0;
#X connect 260 0 276 0;
#X connect 261 0 277 0;
#X connect 262 0 278 0;
#X connect 263 0 279 0;
#X connect 264 0 280 0;
#X connect 265 0 281 0;
#X connect 266 1 285 0;
#X connect 266 1 290 0;
#X connect 266 1 254 0;
#X connect 266 1 293 0;
#X connect 267 0 268 0;
#X connect 268 0 7 2;
#X connect 268 1 8 2;
#X connect 268 2 9 2;
#X connect 268 3 10 2;
#X connect 268 4 11 2;
#X connect 268 5 12 2;
#X connect 268 6 34 0;
#X connect 269 0 268 0;
#X connect 270 0 268 0;
#X connect 271 0 268 0;
#X connect 272 0 268 0;
#X connect 273 0 268 0;
#X connect 274 0 268 0;
#X connect 275 0 268 0;
#X connect 276 0 8 2;
#X connect 277 0 9 2;
#X connect 278 0 10 2;
#X connect 279 0 11 2;
#X connect 280 0 12 2;
#X connect 281 0 7 2;
#X connect 282 0 25 0;
#X connect 282 1 26 0;
#X connect 282 2 27 0;
#X connect 282 3 28 0;
#X connect 282 4 29 0;
#X connect 282 5 30 0;
#X connect 283 0 282 0;
#X connect 285 0 268 0;
#X connect 285 0 287 0;
#X connect 286 0 285 0;
#X connect 290 0 268 0;
#X connect 291 0 290 0;
#X connect 293 0 268 0;
#X connect 294 0 293 0;
#X connect 296 0 285 0;
#X connect 296 0 290 0;
#X connect 297 0 254 0;
#X connect 297 0 293 0;
#X connect 298 0 268 0;
#X coords 0 -1 1 1 625 322 2 100 100;
