#N canvas 1403 61 1318 690 12;
#N canvas 5 90 450 250 (subpatch) 0;
#X array 6TOUCHON-\$0 6 float 3;
#A 0 -1 -1 -1 -1 -1 -1;
#X coords 0 1.6 6 -1.6 70 20 1 0 0;
#X restore 106 103 graph;
#X text 104 103 ----------;
#X obj 235 53 bng 15 250 50 0 empty empty empty 17 7 0 10 -262144 -1
-1;
#X obj 316 39 loadbang;
#X obj 252 152 cyclone/iter;
#X obj 405 69 bng 15 250 50 0 empty empty empty 17 7 0 10 -262144 -1
-1;
#X obj 406 94 list \$0;
#X obj 250 97 array get 6TOUCHON-\$0;
#X msg 406 117 \; 6TOUCHON-\$1 const -1;
#X obj 256 72 metro 150;
#X obj 254 201 else/count 1 6;
#X obj 252 176 t b f;
#X obj 254 224 pack f f;
#X obj 32 332 route 1 2 3 4 5 6;
#X obj 32 305 r update-\$0;
#X obj 32 394 f;
#X obj 60 394 f;
#X obj 89 394 f;
#X obj 119 394 f;
#X obj 147 394 f;
#X obj 176 394 f;
#X obj 957 59 r update-\$0;
#X obj 895 -1 bng 15 250 50 0 empty empty empty 17 7 0 10 -262144 -1
-1;
#X obj 916 18 metro 150;
#X obj 880 132 f;
#X obj 908 132 f;
#X obj 937 132 f;
#X obj 967 132 f;
#X obj 995 132 f;
#X obj 1024 132 f;
#X obj 959 93 route 1 2 3 4 5 6;
#X floatatom 812 163 5 0 0 0 - - -;
#X floatatom 852 164 5 0 0 0 - - -;
#X floatatom 898 164 5 0 0 0 - - -;
#X floatatom 942 164 5 0 0 0 - - -;
#X floatatom 984 165 5 0 0 0 - - -;
#X floatatom 1032 164 5 0 0 0 - - -;
#X obj 167 127 print arr;
#X obj 150 222 print pack;
#X msg 264 25 stop;
#X obj 259 124 t a b;
#X msg 333 125 reset;
#X obj 254 286 r checkprev-\$0;
#X obj 272 390 route 1 2 3 4 5 6;
#X obj 208 450 convertto10;
#X obj 259 335 unpack f f;
#X obj 247 359 swap;
#X obj 206 496 route 0 1;
#X obj 207 473 !=;
#X obj 210 521 list;
#X obj 293 310 t a a;
#X obj 469 560 s update-\$0;
#X obj 457 534 print updating;
#X obj 316 483 bng 15 250 50 0 empty empty empty 17 7 0 10 -262144
-1 -1;
#X floatatom 335 440 5 0 0 0 - - -;
#X obj 253 246 s checkprev-\$0;
#X obj 228 417 convertto10;
#X text 348 311 CHECKING TOUCH SEGMENT;
#X obj 528 300 symbol;
#X msg 547 179 sendcmd prg;
#X obj 523 325 print sendcmd;
#X obj 583 268 bng 15 250 50 0 empty empty empty 17 7 0 10 -262144
-1 -1;
#X obj 403 242 print route;
#X obj 527 275 symbol;
#X obj 695 99 print extra;
#X obj 212 546 t a a;
#X obj 538 631 print TOSEND;
#X obj 186 573 unpack f f;
#X obj 376 591 convertto10;
#X obj 308 650 pack s s s f;
#X msg 309 599 enable;
#X obj 313 624 symbol;
#X msg 274 602 t\$1;
#X obj 384 618 t b f;
#X obj 78 26 inlet cmd;
#X obj 489 212 route sendcmd id init;
#X obj 454 663 outlet;
#X obj 712 320 unpack s s s f;
#X obj 703 287 checkifcontainsupdate;
#X obj 713 363 convertTtofloat;
#X obj 714 401 pack f f;
#X obj 712 498 s update-\$0;
#X obj 820 630 array set 6TOUCHON-\$0;
#X obj 823 602 swap;
#X obj 714 429 t a a;
#X obj 832 386 unpack f f;
#X obj 838 443 - 1;
#X msg 675 156 t1 update prg 1;
#X msg 683 186 t1 dfad fpe 12;
#X obj 543 410 symbol;
#X obj 598 378 bng 15 250 50 0 empty empty empty 17 7 0 10 -262144
-1 -1;
#X obj 542 385 symbol;
#X obj 971 368 list \$0;
#X obj 976 391 pack f f;
#X msg 977 414 \; 6TOUCHON-\$1 const \$2;
#X obj 981 345 t b f;
#X obj 1062 347 <= 0;
#X obj 1062 369 route 0 1;
#X msg 1055 392 1;
#X msg 1092 394 -1;
#X obj 454 631 list trim;
#X obj 910 472 pack f f;
#X obj 902 447 t f f;
#X obj 911 495 route 0;
#X msg 886 523 -1;
#X obj 433 164 list trim;
#X obj 945 526 unpack f f;
#X text 853 194 input: should be: t1 update prg 0 \, <id> <type> <param>
<setting>. For enable: t2 enable prg 0 "enable" should be emitted only
as the user input is registered. "update" is sent to any object that
needs to update it's state. After the object handles the "enable" \,
the "update" is sent to the bus;
#X connect 2 0 9 0;
#X connect 3 0 6 0;
#X connect 3 0 9 0;
#X connect 4 0 11 0;
#X connect 5 0 6 0;
#X connect 6 0 8 0;
#X connect 7 0 40 0;
#X connect 9 0 7 0;
#X connect 10 0 12 0;
#X connect 11 0 10 0;
#X connect 11 1 12 1;
#X connect 12 0 55 0;
#X connect 13 0 15 1;
#X connect 13 1 16 1;
#X connect 13 2 17 1;
#X connect 13 3 18 1;
#X connect 13 4 19 1;
#X connect 13 5 20 1;
#X connect 14 0 13 0;
#X connect 15 0 44 0;
#X connect 16 0 44 0;
#X connect 17 0 44 0;
#X connect 18 0 44 0;
#X connect 19 0 44 0;
#X connect 20 0 44 0;
#X connect 21 0 30 0;
#X connect 22 0 23 0;
#X connect 23 0 24 0;
#X connect 23 0 25 0;
#X connect 23 0 26 0;
#X connect 23 0 27 0;
#X connect 23 0 28 0;
#X connect 23 0 29 0;
#X connect 24 0 31 0;
#X connect 25 0 32 0;
#X connect 26 0 33 0;
#X connect 27 0 34 0;
#X connect 28 0 35 0;
#X connect 29 0 36 0;
#X connect 30 0 24 1;
#X connect 30 1 25 1;
#X connect 30 2 26 1;
#X connect 30 3 27 1;
#X connect 30 4 28 1;
#X connect 30 5 29 1;
#X connect 39 0 9 0;
#X connect 40 0 4 0;
#X connect 40 1 41 0;
#X connect 41 0 10 0;
#X connect 42 0 50 0;
#X connect 43 0 15 0;
#X connect 43 1 16 0;
#X connect 43 2 17 0;
#X connect 43 3 18 0;
#X connect 43 4 19 0;
#X connect 43 5 20 0;
#X connect 44 0 48 1;
#X connect 45 0 46 0;
#X connect 45 0 54 0;
#X connect 45 1 46 1;
#X connect 46 0 56 0;
#X connect 46 1 43 0;
#X connect 47 1 49 0;
#X connect 47 1 53 0;
#X connect 48 0 47 0;
#X connect 49 0 65 0;
#X connect 50 0 45 0;
#X connect 50 1 49 1;
#X connect 56 0 48 0;
#X connect 58 0 60 0;
#X connect 59 0 75 0;
#X connect 61 0 58 0;
#X connect 63 0 58 1;
#X connect 63 0 69 2;
#X connect 63 0 78 1;
#X connect 65 0 67 0;
#X connect 65 1 51 0;
#X connect 67 0 72 0;
#X connect 67 1 68 0;
#X connect 68 0 73 0;
#X connect 69 0 100 0;
#X connect 70 0 71 0;
#X connect 71 0 69 1;
#X connect 72 0 69 0;
#X connect 73 0 70 0;
#X connect 73 1 69 3;
#X connect 74 0 105 0;
#X connect 75 0 63 0;
#X connect 75 1 91 0;
#X connect 75 2 95 0;
#X connect 75 3 78 0;
#X connect 77 0 79 0;
#X connect 77 3 80 1;
#X connect 78 0 77 0;
#X connect 79 0 80 0;
#X connect 80 0 84 0;
#X connect 83 0 82 0;
#X connect 83 1 82 1;
#X connect 84 0 81 0;
#X connect 84 1 85 0;
#X connect 85 0 86 0;
#X connect 85 1 102 0;
#X connect 86 0 83 0;
#X connect 87 0 75 0;
#X connect 88 0 75 0;
#X connect 90 0 89 0;
#X connect 91 0 89 1;
#X connect 92 0 93 0;
#X connect 93 0 94 0;
#X connect 95 0 92 0;
#X connect 95 1 96 0;
#X connect 96 0 97 0;
#X connect 97 0 98 0;
#X connect 97 1 99 0;
#X connect 98 0 93 1;
#X connect 99 0 93 1;
#X connect 100 0 76 0;
#X connect 101 0 103 0;
#X connect 102 0 101 0;
#X connect 102 1 101 1;
#X connect 103 0 104 0;
#X connect 103 1 106 0;
#X connect 104 0 83 1;
#X connect 105 0 75 0;
#X connect 106 0 83 1;
#X coords 0 -1 1 1 80 28 2 100 100;
