#N canvas 1516 166 1176 455 12;
#X obj 22 65 delwrite~ \$0-d 3000;
#X obj 56 198 delread~ \$0-d 13;
#X obj 183 196 delread~ \$0-d 43;
#X obj 323 195 delread~ \$0-d 57;
#X obj 100 42 inlet~;
#N canvas 0 50 450 250 (subpatch) 0;
#X array \$0-dtimes 8 float 3;
#A 0 1875.38 1425.53 1425.52 1125.62 900.7 675.776 525.827 -223.919
;
#X coords 0 3000 8 1 36 40 1 0 0;
#X restore 108 135 graph;
#N canvas 0 50 450 250 (subpatch) 0;
#X array \$0-vol 8 float 3;
#A 0 0.724999 0.649997 0.524994 0.474993 0.34999 0.34999 0.34999 0.324999
;
#X coords 0 1 8 0 36 40 1 0 0;
#X restore 148 135 graph;
#X obj 662 154 cyclone/iter;
#X obj 668 201 else/count 1 8;
#X obj 666 177 t b f;
#X obj 670 253 pack s f;
#X obj 661 107 metro 90;
#X obj 794 81 bng 15 250 50 0 empty empty empty 17 7 0 10 -262144 -1
-1;
#X obj 687 288 list trim;
#X obj 662 131 array get \$0-dtimes;
#X obj 805 154 cyclone/iter;
#X obj 811 201 else/count 1 8;
#X obj 809 177 t b f;
#X obj 813 253 pack s f;
#X obj 804 107 metro 90;
#X obj 937 81 bng 15 250 50 0 empty empty empty 17 7 0 10 -262144 -1
-1;
#X obj 830 288 list trim;
#X obj 805 131 array get \$0-vol;
#X msg 665 226 d\$1;
#X msg 808 226 v\$1;
#X obj 460 193 delread~ \$0-d 63;
#X obj 49 236 delread~ \$0-d 73;
#X obj 189 235 delread~ \$0-d 87;
#X obj 328 233 delread~ \$0-d 97;
#X obj 468 232 delread~ \$0-d 107;
#X obj 56 283 *~;
#X obj 86 283 *~;
#X obj 114 283 *~;
#X obj 148 283 *~;
#X obj 178 283 *~;
#X obj 208 283 *~;
#X obj 236 283 *~;
#X obj 270 283 *~;
#X obj 865 45 lb;
#X obj 256 335 outlet~ d1;
#X text 106 103 8DELAYTAPS~;
#X obj 187 178 tgl 8 0 empty empty empty 17 7 0 10 -262144 -1 -1 1
1;
#X obj 327 368 lb;
#X msg 336 396 1;
#X obj 61 354 *~;
#X obj 92 397 outlet~;
#X obj 341 334 outlet~ d2;
#X obj 425 334 outlet~ d3;
#X obj 510 333 outlet~ d4;
#X obj 600 335 outlet~ d5;
#X obj 685 334 outlet~ d6;
#X obj 769 334 outlet~ d7;
#X obj 855 332 outlet~ d8;
#X text 105 171 m;
#X obj 187 39 inlet;
#X text 191 100 c;
#X text 112 144 del;
#X text 152 144 vol;
#X obj 876 227 max 0;
#X msg 972 62 clear;
#X obj 148 177 bng 8 250 50 0 empty empty clear 10 4 0 6 -262144 -1
-1;
#N canvas 0 50 450 250 (subpatch) 0;
#X array \$0-phs 8 float 3;
#A 0 0.65 -0.65 0.55 -0.6 0.5 -0.45 0.550004 -0.55;
#X coords 0 1 8 -1 36 40 1 0 0;
#X restore 189 135 graph;
#X text 193 144 phs;
#X obj 944 157 cyclone/iter;
#X obj 950 204 else/count 1 8;
#X obj 948 180 t b f;
#X obj 952 256 pack s f;
#X obj 943 110 metro 90;
#X obj 1076 84 bng 15 250 50 0 empty empty empty 17 7 0 10 -262144
-1 -1;
#X obj 969 291 list trim;
#X obj 1015 230 max 0;
#X msg 947 229 p\$1;
#X obj 314 9 route d1 d2 d3 d4 d5 d6 d7 d8 v1 v2 v3 v4 v5 v6 v7 v8
p1 p2 p3 p4 p5 p6 p7 p8 clr, f 89;
#X obj 507 51 <= 0;
#X obj 546 51 <= 0;
#X obj 589 52 <= 0;
#X obj 623 52 <= 0;
#X obj 665 52 <= 0;
#X obj 704 51 <= 0;
#X obj 743 52 <= 0;
#X obj 777 52 <= 0;
#X obj 406 411 route 1 0;
#X msg 369 449 -1;
#X msg 408 450 1;
#X obj 485 411 route 1 0;
#X msg 448 449 -1;
#X msg 487 450 1;
#X obj 561 411 route 1 0;
#X msg 524 449 -1;
#X msg 563 450 1;
#X obj 640 411 route 1 0;
#X msg 603 449 -1;
#X msg 642 450 1;
#X obj 715 410 route 1 0;
#X msg 678 448 -1;
#X msg 717 449 1;
#X obj 794 410 route 1 0;
#X msg 757 448 -1;
#X msg 796 449 1;
#X obj 870 410 route 1 0;
#X msg 833 448 -1;
#X msg 872 449 1;
#X obj 949 410 route 1 0;
#X msg 912 448 -1;
#X msg 951 449 1;
#X obj 378 486 *~ 1;
#X obj 457 486 *~ 1;
#X obj 533 486 *~ 1;
#X obj 612 486 *~ 1;
#X obj 687 485 *~ 1;
#X obj 766 485 *~ 1;
#X obj 842 485 *~ 1;
#X obj 921 485 *~ 1;
#X obj 944 134 array get \$0-phs;
#X connect 1 0 30 0;
#X connect 1 0 39 0;
#X connect 2 0 31 0;
#X connect 2 0 46 0;
#X connect 3 0 32 0;
#X connect 3 0 47 0;
#X connect 4 0 0 0;
#X connect 7 0 9 0;
#X connect 8 0 23 0;
#X connect 9 0 8 0;
#X connect 9 1 10 1;
#X connect 10 0 13 0;
#X connect 11 0 14 0;
#X connect 12 0 11 0;
#X connect 13 0 72 0;
#X connect 14 0 7 0;
#X connect 15 0 17 0;
#X connect 16 0 24 0;
#X connect 17 0 16 0;
#X connect 17 1 58 0;
#X connect 18 0 21 0;
#X connect 19 0 22 0;
#X connect 20 0 19 0;
#X connect 21 0 72 0;
#X connect 22 0 15 0;
#X connect 23 0 10 0;
#X connect 24 0 18 0;
#X connect 25 0 33 0;
#X connect 25 0 48 0;
#X connect 26 0 34 0;
#X connect 26 0 49 0;
#X connect 27 0 35 0;
#X connect 27 0 50 0;
#X connect 28 0 36 0;
#X connect 28 0 51 0;
#X connect 29 0 37 0;
#X connect 29 0 52 0;
#X connect 30 0 105 0;
#X connect 31 0 106 0;
#X connect 32 0 107 0;
#X connect 33 0 108 0;
#X connect 34 0 109 0;
#X connect 35 0 110 0;
#X connect 36 0 111 0;
#X connect 37 0 112 0;
#X connect 38 0 11 0;
#X connect 38 0 19 0;
#X connect 38 0 67 0;
#X connect 41 0 44 1;
#X connect 42 0 43 0;
#X connect 43 0 41 0;
#X connect 44 0 45 0;
#X connect 54 0 72 0;
#X connect 58 0 18 1;
#X connect 59 0 0 0;
#X connect 60 0 59 0;
#X connect 63 0 65 0;
#X connect 64 0 71 0;
#X connect 65 0 64 0;
#X connect 65 1 70 0;
#X connect 66 0 69 0;
#X connect 67 0 113 0;
#X connect 68 0 67 0;
#X connect 69 0 72 0;
#X connect 70 0 66 1;
#X connect 71 0 66 0;
#X connect 72 0 1 0;
#X connect 72 1 2 0;
#X connect 72 2 3 0;
#X connect 72 3 25 0;
#X connect 72 4 26 0;
#X connect 72 5 27 0;
#X connect 72 6 28 0;
#X connect 72 7 29 0;
#X connect 72 8 30 1;
#X connect 72 9 31 1;
#X connect 72 10 32 1;
#X connect 72 11 33 1;
#X connect 72 12 34 1;
#X connect 72 13 35 1;
#X connect 72 14 36 1;
#X connect 72 15 37 1;
#X connect 72 16 73 0;
#X connect 72 17 74 0;
#X connect 72 18 75 0;
#X connect 72 19 76 0;
#X connect 72 20 77 0;
#X connect 72 21 78 0;
#X connect 72 22 79 0;
#X connect 72 23 80 0;
#X connect 72 24 59 0;
#X connect 73 0 81 0;
#X connect 74 0 84 0;
#X connect 75 0 87 0;
#X connect 76 0 90 0;
#X connect 77 0 93 0;
#X connect 78 0 96 0;
#X connect 79 0 99 0;
#X connect 80 0 102 0;
#X connect 81 0 82 0;
#X connect 81 1 83 0;
#X connect 82 0 105 1;
#X connect 83 0 105 1;
#X connect 84 0 85 0;
#X connect 84 1 86 0;
#X connect 85 0 106 1;
#X connect 86 0 106 1;
#X connect 87 0 88 0;
#X connect 87 1 89 0;
#X connect 88 0 107 1;
#X connect 89 0 107 1;
#X connect 90 0 91 0;
#X connect 90 1 92 0;
#X connect 91 0 108 1;
#X connect 92 0 108 1;
#X connect 93 0 94 0;
#X connect 93 1 95 0;
#X connect 94 0 109 1;
#X connect 95 0 109 1;
#X connect 96 0 97 0;
#X connect 96 1 98 0;
#X connect 97 0 110 1;
#X connect 98 0 110 1;
#X connect 99 0 100 0;
#X connect 99 1 101 0;
#X connect 100 0 111 1;
#X connect 101 0 111 1;
#X connect 102 0 103 0;
#X connect 102 1 104 0;
#X connect 103 0 112 1;
#X connect 104 0 112 1;
#X connect 105 0 44 0;
#X connect 106 0 44 0;
#X connect 107 0 44 0;
#X connect 108 0 44 0;
#X connect 109 0 44 0;
#X connect 110 0 44 0;
#X connect 111 0 44 0;
#X connect 112 0 44 0;
#X connect 113 0 63 0;
#X coords 0 -1 1 1 135 90 2 100 100;
