#N canvas 1651 83 1070 660 12;
#X obj 50 16 adc~;
#X obj 43 47 wetdryinout~;
#X obj 20 441 wetdryinout~;
#X obj 132 554 clippy~;
#X obj 27 594 else/out~;
#X obj 137 173 8delaytaps~;
#X obj 554 171 8delaytaps~;
#X obj 793 224 8mixertouch~;
#X obj 346 470 4mixertouch~;
#X obj 273 172 8delaytaps~;
#X obj 413 171 8delaytaps~;
#X obj 121 292 8delaytaps~;
#X obj 554 290 8delaytaps~;
#X obj 765 430 8mixertouch~;
#X obj 271 292 8delaytaps~;
#X obj 415 291 8delaytaps~;
#X obj 606 623 s~ fbr;
#X obj 273 628 s~ fbl;
#X obj 421 56 r~ fbl;
#X obj 547 65 r~ fbr;
#X obj 522 659 rev1~;
#X floatatom 518 632 5 0 0 0 - - -;
#X obj 517 423 4mixertouch~;
#X obj 323 422 else/fdn.rev~;
#X floatatom 256 407 5 0 0 0 - - -;
#X connect 0 0 1 0;
#X connect 0 1 1 2;
#X connect 1 0 2 0;
#X connect 1 1 5 0;
#X connect 1 3 2 2;
#X connect 1 4 11 0;
#X connect 1 4 14 0;
#X connect 1 4 15 0;
#X connect 1 4 12 0;
#X connect 2 2 3 0;
#X connect 2 5 3 1;
#X connect 3 0 4 0;
#X connect 3 1 4 1;
#X connect 5 0 9 0;
#X connect 6 0 20 0;
#X connect 6 0 8 3;
#X connect 6 1 7 0;
#X connect 6 2 7 1;
#X connect 6 3 7 2;
#X connect 6 4 7 3;
#X connect 6 5 7 4;
#X connect 6 6 7 5;
#X connect 6 7 7 6;
#X connect 6 8 7 7;
#X connect 7 0 17 0;
#X connect 8 0 2 1;
#X connect 8 5 2 3;
#X connect 9 0 10 0;
#X connect 10 0 6 0;
#X connect 11 0 22 0;
#X connect 12 0 22 3;
#X connect 12 1 13 0;
#X connect 12 2 13 1;
#X connect 12 3 13 2;
#X connect 12 4 13 3;
#X connect 12 5 13 4;
#X connect 12 6 13 5;
#X connect 12 7 13 6;
#X connect 12 8 13 7;
#X connect 13 9 16 0;
#X connect 14 0 22 1;
#X connect 15 0 22 2;
#X connect 21 0 20 1;
#X connect 22 0 2 3;
#X connect 22 5 23 0;
#X connect 23 0 8 0;
#X connect 24 0 23 1;
