#N canvas 1686 153 977 588 12;
#X obj 76 27 inlet~;
#X obj 129 27 inlet~;
#X obj 178 26 inlet~;
#X obj 26 27 inlet~;
#X obj 110 130 vsl 8 40 0 1 0 1 empty empty empty 0 -9 0 10 -262144
-1 -1 3900 0;
#X obj 131 130 vsl 8 40 0 1 0 1 empty empty empty 0 -9 0 10 -262144
-1 -1 3900 0;
#X obj 153 130 vsl 8 40 0 1 0 1 empty empty empty 0 -9 0 10 -262144
-1 -1 3900 0;
#X obj 172 130 vsl 8 40 0 1 0 1 empty empty empty 0 -9 0 10 -262144
-1 -1 3900 0;
#X obj 38 231 *~;
#X obj 65 231 *~;
#X obj 92 231 *~;
#X obj 121 231 *~;
#X obj 39 259 *~;
#X obj 66 259 *~;
#X obj 93 259 *~;
#X obj 122 259 *~;
#X obj 3 503 outlet~ L;
#X obj 732 504 outlet~ R;
#X obj 554 289 *~;
#X obj 276 121 vsl 8 55 0 1.5 0 1 empty empty empty 0 -9 0 10 -262144
-1 -1 3600 0;
#X obj 554 314 *~;
#X obj 276 182 tgl 8 0 empty empty empty 17 7 0 10 -262144 -1 -1 1
1;
#X obj 609 289 *~;
#X obj 289 121 vsl 8 55 0 1.5 0 1 empty empty empty 0 -9 0 10 -262144
-1 -1 3600 0;
#X obj 608 314 *~;
#X obj 289 182 tgl 8 0 empty empty empty 17 7 0 10 -262144 -1 -1 1
1;
#X obj 105 177 tgl 8 0 empty empty empty 17 7 0 10 -262144 -1 -1 1
1;
#X obj 127 177 tgl 8 0 empty empty empty 17 7 0 10 -262144 -1 -1 1
1;
#X obj 148 177 tgl 8 0 empty empty empty 17 7 0 10 -262144 -1 -1 1
1;
#X obj 169 177 tgl 8 0 empty empty empty 17 7 0 10 -262144 -1 -1 1
1;
#X text 102 104 8MIXER~;
#X obj 279 27 inlet~;
#X obj 332 27 inlet~;
#X obj 381 26 inlet~;
#X obj 229 27 inlet~;
#X obj 194 130 vsl 8 40 0 1 0 1 empty empty empty 0 -9 0 10 -262144
-1 -1 3900 0;
#X obj 216 130 vsl 8 40 0 1 0 1 empty empty empty 0 -9 0 10 -262144
-1 -1 3900 0;
#X obj 237 130 vsl 8 40 0 1 0 1 empty empty empty 0 -9 0 10 -262144
-1 -1 3900 0;
#X obj 257 130 vsl 8 40 0 1 0 1 empty empty empty 0 -9 0 10 -262144
-1 -1 3900 0;
#X obj 155 232 *~;
#X obj 182 232 *~;
#X obj 209 232 *~;
#X obj 238 232 *~;
#X obj 156 260 *~;
#X obj 183 260 *~;
#X obj 210 260 *~;
#X obj 239 260 *~;
#X obj 189 177 tgl 8 0 empty empty empty 17 7 0 10 -262144 -1 -1 1
1;
#X obj 211 177 tgl 8 0 empty empty empty 17 7 0 10 -262144 -1 -1 1
1;
#X obj 232 177 tgl 8 0 empty empty empty 17 7 0 10 -262144 -1 -1 1
1;
#X obj 252 177 tgl 8 0 empty empty empty 17 7 0 10 -262144 -1 -1 1
1;
#X obj 436 26 inlet cmd;
#X obj 568 73 lb;
#X msg 495 108 1;
#X obj 429 103 t b b;
#X obj 527 64 bng 15 250 50 0 empty empty empty 17 7 0 10 -262144 -1
-1;
#X obj 492 193 pack s f;
#X obj 584 191 list trim;
#X obj 425 176 symbol;
#X obj 109 187 hsl 12 8 0 1 0 0 empty empty empty -2 -8 0 10 -262144
-1 -1 550 0;
#X obj 196 338 - 1;
#X obj 194 364 * -1;
#X obj 135 338 *~;
#X obj 167 338 *~;
#X obj 115 177 bng 8 250 50 0 empty empty empty 17 7 0 10 -262144 -1
-1;
#X msg 160 314 0.5;
#X obj 130 187 hsl 12 8 0 1 0 0 empty empty empty -2 -8 0 10 -262144
-1 -1 550 0;
#X obj 288 335 - 1;
#X obj 286 361 * -1;
#X obj 227 335 *~;
#X obj 259 335 *~;
#X obj 137 177 bng 8 250 50 0 empty empty empty 17 7 0 10 -262144 -1
-1;
#X msg 252 311 0.5;
#X obj 152 187 hsl 12 8 0 1 0 0 empty empty empty -2 -8 0 10 -262144
-1 -1 550 0;
#X obj 384 333 - 1;
#X obj 382 359 * -1;
#X obj 323 333 *~;
#X obj 355 333 *~;
#X obj 158 177 bng 8 250 50 0 empty empty empty 17 7 0 10 -262144 -1
-1;
#X msg 348 309 0.5;
#X obj 174 187 hsl 12 8 0 1 0 0 empty empty empty -2 -8 0 10 -262144
-1 -1 550 0;
#X obj 480 331 - 1;
#X obj 478 357 * -1;
#X obj 419 331 *~;
#X obj 451 331 *~;
#X obj 179 177 bng 8 250 50 0 empty empty empty 17 7 0 10 -262144 -1
-1;
#X msg 444 307 0.5;
#X obj 196 187 hsl 12 8 0 1 0 0 empty empty empty -2 -8 0 10 -262144
-1 -1 550 0;
#X obj 195 433 - 1;
#X obj 193 459 * -1;
#X obj 134 433 *~;
#X obj 166 433 *~;
#X obj 199 177 bng 8 250 50 0 empty empty empty 17 7 0 10 -262144 -1
-1;
#X msg 157 406 0.5;
#X obj 216 188 hsl 12 8 0 1 0 0 empty empty empty -2 -8 0 10 -262144
-1 -1 550 0;
#X obj 296 433 - 1;
#X obj 294 459 * -1;
#X obj 235 433 *~;
#X obj 267 433 *~;
#X obj 221 177 bng 8 250 50 0 empty empty empty 17 7 0 10 -262144 -1
-1;
#X msg 260 409 0.5;
#X obj 236 187 hsl 12 8 0 1 0 0 empty empty empty -2 -8 0 10 -262144
-1 -1 550 0;
#X obj 397 430 - 1;
#X obj 395 456 * -1;
#X obj 336 430 *~;
#X obj 368 430 *~;
#X obj 242 177 bng 8 250 50 0 empty empty empty 17 7 0 10 -262144 -1
-1;
#X msg 361 406 0.5;
#X obj 256 187 hsl 12 8 0 1 0 0 empty empty empty -2 -8 0 10 -262144
-1 -1 550 0;
#X obj 496 430 - 1;
#X obj 494 456 * -1;
#X obj 435 430 *~;
#X obj 467 430 *~;
#X obj 262 177 bng 8 250 50 0 empty empty empty 17 7 0 10 -262144 -1
-1;
#X msg 460 406 0.5;
#X msg 401 133 L \, R \, m1 \, m2 \, m3 \, m4 \, m5 \, m6 \, m7 \,
m8 \, t1 \, t2 \, t3 \, t4 \, t5 \, t6 \, t7 \, t8 \, Lt \, Rt;
#X obj 39 55 route L R m1 m2 m3 m4 m5 m6 m7 m8 t1 t2 t3 t4 t5 t6 t7
t8 Lt Rt, f 66;
#X text 293 100 c;
#X text 170 103 m1 .. m8;
#X text 101 198 l;
#X text 292 197 r;
#X obj 277 195 hsl 12 8 -1 1 0 1 empty empty empty -2 -8 0 10 -262144
-1 -1 550 0;
#X obj 754 254 else/balance~;
#X msg 532 108 0;
#X obj 293 195 bng 8 250 50 0 empty empty empty 17 7 0 10 -262144 -1
-1;
#X obj 275 109 bng 8 250 50 0 empty empty empty 17 7 0 10 -262144 -1
-1;
#X msg 655 451 1;
#X obj 286 109 bng 8 250 50 0 empty empty empty 17 7 0 10 -262144 -1
-1;
#X msg 693 452 1;
#X obj 73 503 outlet~ m1;
#X obj 154 503 outlet~ m2;
#X obj 230 503 outlet~ m3;
#X obj 316 503 outlet~ m4;
#X obj 411 503 outlet~ m5;
#X obj 489 504 outlet~ m6;
#X obj 571 504 outlet~ m7;
#X obj 652 504 outlet~ m8;
#X connect 0 0 9 0;
#X connect 1 0 10 0;
#X connect 2 0 11 0;
#X connect 3 0 8 0;
#X connect 4 0 8 1;
#X connect 5 0 9 1;
#X connect 6 0 10 1;
#X connect 7 0 11 1;
#X connect 8 0 12 0;
#X connect 9 0 13 0;
#X connect 10 0 14 0;
#X connect 11 0 15 0;
#X connect 12 0 62 1;
#X connect 12 0 63 0;
#X connect 12 0 129 0;
#X connect 13 0 69 0;
#X connect 13 0 70 0;
#X connect 13 0 130 0;
#X connect 14 0 76 0;
#X connect 14 0 77 0;
#X connect 14 0 131 0;
#X connect 15 0 83 0;
#X connect 15 0 84 0;
#X connect 15 0 132 0;
#X connect 18 0 20 0;
#X connect 19 0 18 1;
#X connect 20 0 122 0;
#X connect 21 0 20 1;
#X connect 22 0 24 0;
#X connect 23 0 22 1;
#X connect 24 0 122 1;
#X connect 25 0 24 1;
#X connect 26 0 12 1;
#X connect 27 0 13 1;
#X connect 28 0 14 1;
#X connect 29 0 15 1;
#X connect 31 0 40 0;
#X connect 32 0 41 0;
#X connect 33 0 42 0;
#X connect 34 0 39 0;
#X connect 35 0 39 1;
#X connect 36 0 40 1;
#X connect 37 0 41 1;
#X connect 38 0 42 1;
#X connect 39 0 43 0;
#X connect 40 0 44 0;
#X connect 41 0 45 0;
#X connect 42 0 46 0;
#X connect 43 0 90 0;
#X connect 43 0 91 0;
#X connect 43 0 133 0;
#X connect 44 0 97 0;
#X connect 44 0 98 0;
#X connect 44 0 134 0;
#X connect 45 0 104 0;
#X connect 45 0 105 0;
#X connect 45 0 135 0;
#X connect 46 0 111 0;
#X connect 46 0 112 0;
#X connect 46 0 136 0;
#X connect 47 0 43 1;
#X connect 48 0 44 1;
#X connect 49 0 45 1;
#X connect 50 0 46 1;
#X connect 51 0 116 0;
#X connect 52 0 54 0;
#X connect 53 0 56 1;
#X connect 54 0 115 0;
#X connect 54 0 65 0;
#X connect 54 0 72 0;
#X connect 54 0 79 0;
#X connect 54 0 86 0;
#X connect 54 0 93 0;
#X connect 54 0 100 0;
#X connect 54 0 107 0;
#X connect 54 0 114 0;
#X connect 54 1 53 0;
#X connect 54 1 123 0;
#X connect 55 0 54 0;
#X connect 56 0 57 0;
#X connect 57 0 116 0;
#X connect 58 0 56 0;
#X connect 59 0 60 0;
#X connect 59 0 63 1;
#X connect 60 0 61 0;
#X connect 61 0 62 1;
#X connect 62 0 18 0;
#X connect 63 0 22 0;
#X connect 64 0 65 0;
#X connect 65 0 59 0;
#X connect 66 0 67 0;
#X connect 66 0 70 1;
#X connect 67 0 68 0;
#X connect 68 0 69 1;
#X connect 69 0 18 0;
#X connect 70 0 22 0;
#X connect 71 0 72 0;
#X connect 72 0 66 0;
#X connect 73 0 74 0;
#X connect 73 0 77 1;
#X connect 74 0 75 0;
#X connect 75 0 76 1;
#X connect 76 0 18 0;
#X connect 77 0 22 0;
#X connect 78 0 79 0;
#X connect 79 0 73 0;
#X connect 80 0 81 0;
#X connect 80 0 84 1;
#X connect 81 0 82 0;
#X connect 82 0 83 1;
#X connect 83 0 18 0;
#X connect 84 0 22 0;
#X connect 85 0 86 0;
#X connect 86 0 80 0;
#X connect 87 0 88 0;
#X connect 87 0 91 1;
#X connect 88 0 89 0;
#X connect 89 0 90 1;
#X connect 90 0 18 0;
#X connect 91 0 22 0;
#X connect 92 0 93 0;
#X connect 93 0 87 0;
#X connect 94 0 95 0;
#X connect 94 0 98 1;
#X connect 95 0 96 0;
#X connect 96 0 97 1;
#X connect 97 0 18 0;
#X connect 98 0 22 0;
#X connect 99 0 100 0;
#X connect 100 0 94 0;
#X connect 101 0 102 0;
#X connect 101 0 105 1;
#X connect 102 0 103 0;
#X connect 103 0 104 1;
#X connect 104 0 18 0;
#X connect 105 0 22 0;
#X connect 106 0 107 0;
#X connect 107 0 101 0;
#X connect 108 0 109 0;
#X connect 108 0 112 1;
#X connect 109 0 110 0;
#X connect 110 0 111 1;
#X connect 111 0 18 0;
#X connect 112 0 22 0;
#X connect 113 0 114 0;
#X connect 114 0 108 0;
#X connect 115 0 58 0;
#X connect 116 0 19 0;
#X connect 116 1 23 0;
#X connect 116 2 4 0;
#X connect 116 3 5 0;
#X connect 116 4 6 0;
#X connect 116 5 7 0;
#X connect 116 6 35 0;
#X connect 116 7 36 0;
#X connect 116 8 37 0;
#X connect 116 9 38 0;
#X connect 116 10 26 0;
#X connect 116 11 27 0;
#X connect 116 12 28 0;
#X connect 116 13 29 0;
#X connect 116 14 47 0;
#X connect 116 15 48 0;
#X connect 116 16 49 0;
#X connect 116 17 50 0;
#X connect 116 18 21 0;
#X connect 116 19 25 0;
#X connect 121 0 122 2;
#X connect 122 0 16 0;
#X connect 122 1 17 0;
#X connect 123 0 121 0;
#X connect 124 0 123 0;
#X connect 125 0 126 0;
#X connect 126 0 19 0;
#X connect 127 0 128 0;
#X connect 128 0 23 0;
#X coords 0 -1 1 1 206 120 2 100 100;
