#N canvas 1610 61 980 690 12;
#X obj 76 27 inlet~;
#X obj 129 27 inlet~;
#X obj 178 26 inlet~;
#X obj 26 27 inlet~;
#X obj 96 489 *~;
#X obj 141 492 *~;
#X obj 168 492 *~;
#X obj 197 492 *~;
#X obj 171 535 *~;
#X obj 230 525 *~;
#X obj 257 525 *~;
#X obj 286 525 *~;
#X obj -17 569 outlet~ L;
#X obj 732 504 outlet~ R;
#X obj 554 289 *~;
#X obj 276 121 vsl 8 55 0 1.5 0 1 empty empty empty 0 -9 0 10 -262144
-1 -1 3600 0;
#X obj 554 314 *~;
#X obj 276 182 tgl 8 0 empty empty empty 17 7 0 10 -262144 -1 -1 1
1;
#X obj 609 289 *~;
#X obj 289 121 vsl 8 55 0 1.5 0 1 empty empty empty 0 -9 0 10 -262144
-1 -1 3600 0;
#X obj 608 314 *~;
#X obj 289 182 tgl 8 0 empty empty empty 17 7 0 10 -262144 -1 -1 1
1;
#X obj 105 188 tgl 8 0 empty empty empty 17 7 0 10 -262144 -1 -1 1
1;
#X obj 127 188 tgl 8 0 empty empty empty 17 7 0 10 -262144 -1 -1 1
1;
#X obj 148 188 tgl 8 0 empty empty empty 17 7 0 10 -262144 -1 -1 1
1;
#X obj 169 188 tgl 8 0 empty empty empty 17 7 0 10 -262144 -1 -1 1
1;
#X obj 279 27 inlet~;
#X obj 332 27 inlet~;
#X obj 381 26 inlet~;
#X obj 229 27 inlet~;
#X obj 231 493 *~;
#X obj 258 493 *~;
#X obj 285 493 *~;
#X obj 323 494 *~;
#X obj 320 526 *~;
#X obj 347 526 *~;
#X obj 374 526 *~;
#X obj 414 527 *~;
#X obj 189 188 tgl 8 0 empty empty empty 17 7 0 10 -262144 -1 -1 1
1;
#X obj 211 188 tgl 8 0 empty empty empty 17 7 0 10 -262144 -1 -1 1
1;
#X obj 232 188 tgl 8 0 empty empty empty 17 7 0 10 -262144 -1 -1 1
1;
#X obj 252 188 tgl 8 0 empty empty empty 17 7 0 10 -262144 -1 -1 1
1;
#X obj 436 26 inlet cmd;
#X msg 495 108 1;
#X obj 447 94 t b b;
#X obj 527 64 bng 15 250 50 0 empty empty empty 17 7 0 10 -262144 -1
-1;
#X obj 492 193 pack s f;
#X obj 584 191 list trim;
#X obj 425 176 symbol;
#X obj 109 198 hsl 12 8 0 1 0 0 empty empty empty -2 -8 0 10 -262144
-1 -1 550 0;
#X obj 196 338 - 1;
#X obj 194 364 * -1;
#X obj 137 340 *~;
#X obj 167 338 *~;
#X obj 115 188 bng 8 250 50 0 empty empty empty 17 7 0 10 -262144 -1
-1;
#X msg 160 314 0.5;
#X obj 130 198 hsl 12 8 0 1 0 0 empty empty empty -2 -8 0 10 -262144
-1 -1 550 0;
#X obj 288 335 - 1;
#X obj 286 361 * -1;
#X obj 227 335 *~;
#X obj 259 335 *~;
#X obj 137 188 bng 8 250 50 0 empty empty empty 17 7 0 10 -262144 -1
-1;
#X msg 252 311 0.5;
#X obj 152 198 hsl 12 8 0 1 0 0 empty empty empty -2 -8 0 10 -262144
-1 -1 550 0;
#X obj 384 333 - 1;
#X obj 382 359 * -1;
#X obj 323 333 *~;
#X obj 355 333 *~;
#X obj 158 188 bng 8 250 50 0 empty empty empty 17 7 0 10 -262144 -1
-1;
#X msg 348 309 0.5;
#X obj 174 198 hsl 12 8 0 1 0 0 empty empty empty -2 -8 0 10 -262144
-1 -1 550 0;
#X obj 480 331 - 1;
#X obj 478 357 * -1;
#X obj 419 331 *~;
#X obj 451 331 *~;
#X obj 179 188 bng 8 250 50 0 empty empty empty 17 7 0 10 -262144 -1
-1;
#X msg 444 307 0.5;
#X obj 196 198 hsl 12 8 0 1 0 0 empty empty empty -2 -8 0 10 -262144
-1 -1 550 0;
#X obj 195 433 - 1;
#X obj 193 459 * -1;
#X obj 134 434 *~;
#X obj 166 433 *~;
#X obj 199 188 bng 8 250 50 0 empty empty empty 17 7 0 10 -262144 -1
-1;
#X msg 157 406 0.5;
#X obj 216 199 hsl 12 8 0 1 0 0 empty empty empty -2 -8 0 10 -262144
-1 -1 550 0;
#X obj 296 433 - 1;
#X obj 294 459 * -1;
#X obj 235 433 *~;
#X obj 267 433 *~;
#X obj 221 188 bng 8 250 50 0 empty empty empty 17 7 0 10 -262144 -1
-1;
#X msg 260 409 0.5;
#X obj 236 198 hsl 12 8 0 1 0 0 empty empty empty -2 -8 0 10 -262144
-1 -1 550 0;
#X obj 397 430 - 1;
#X obj 395 456 * -1;
#X obj 336 430 *~;
#X obj 368 430 *~;
#X obj 242 188 bng 8 250 50 0 empty empty empty 17 7 0 10 -262144 -1
-1;
#X msg 361 406 0.5;
#X obj 256 198 hsl 12 8 0 1 0 0 empty empty empty -2 -8 0 10 -262144
-1 -1 550 0;
#X obj 496 430 - 1;
#X obj 494 456 * -1;
#X obj 435 430 *~;
#X obj 467 430 *~;
#X obj 262 188 bng 8 250 50 0 empty empty empty 17 7 0 10 -262144 -1
-1;
#X msg 460 406 0.5;
#X msg 401 133 L \, R \, m1 \, m2 \, m3 \, m4 \, m5 \, m6 \, m7 \,
m8 \, t1 \, t2 \, t3 \, t4 \, t5 \, t6 \, t7 \, t8 \, Lt \, Rt;
#X obj 474 -3 route L R m1 m2 m3 m4 m5 m6 m7 m8 t1 t2 t3 t4 t5 t6 t7
t8 Lt Rt, f 66;
#X text 293 100 c;
#X text 197 103 m1 .. m8;
#X text 101 251 l;
#X text 292 250 r;
#X obj 277 195 hsl 12 8 -1 1 0 1 empty empty empty -2 -8 0 10 -262144
-1 -1 550 0;
#X obj 658 254 else/balance~;
#X msg 532 108 0;
#X obj 293 195 bng 8 250 50 0 empty empty empty 17 7 0 10 -262144 -1
-1;
#X obj 275 109 bng 8 250 50 0 empty empty empty 17 7 0 10 -262144 -1
-1;
#X msg 655 451 1;
#X obj 286 109 bng 8 250 50 0 empty empty empty 17 7 0 10 -262144 -1
-1;
#X msg 693 452 1;
#X obj 53 569 outlet~ m1;
#X obj 134 569 outlet~ m2;
#X obj 210 569 outlet~ m3;
#X obj 296 569 outlet~ m4;
#X obj 391 569 outlet~ m5;
#X obj 469 570 outlet~ m6;
#X obj 551 570 outlet~ m7;
#X obj 632 570 outlet~ m8;
#N canvas 0 50 450 250 (subpatch) 0;
#X array \$0-mixer 8 float 3;
#A 0 1 1 1 1 1 1 1 1;
#X coords 0 1 8 0 120 50 2 0 0;
#X restore 122 122 graph;
#X obj 767 273 cyclone/iter;
#X obj 773 320 else/count 1 8;
#X obj 771 296 t b f;
#X msg 770 345 m\$1;
#X obj 775 372 pack s f;
#X obj 766 219 array get \$0-mixer;
#X obj 765 195 metro 90;
#X obj 850 156 bng 15 250 50 0 empty empty empty 17 7 0 10 -262144
-1 -1;
#X obj 792 407 list trim;
#X text 149 203 8MIXERTOUCH~;
#X obj 259 124 tgl 8 0 empty empty link -1 14 0 6 -262144 -1 -1 1 1
;
#X obj 663 90 change;
#X obj 653 57 spigot;
#X obj 745 92 change;
#X obj 735 59 spigot;
#X floatatom 157 222 5 0 0 0 - - -;
#X floatatom 197 222 5 0 0 0 - - -;
#X floatatom 117 222 5 0 0 0 - - -;
#X floatatom 237 222 5 0 0 0 - - -;
#X floatatom 117 243 5 0 0 0 - - -;
#X floatatom 157 243 5 0 0 0 - - -;
#X floatatom 196 243 5 0 0 0 - - -;
#X floatatom 237 243 5 0 0 0 - - -;
#X obj 831 345 max 0;
#X obj 106 178 hradio 8 1 0 2 empty empty empty 0 -8 0 10 -262144 -1
-1 1;
#X obj 566 777 array set \$0-mixer;
#X obj 558 647 t f b;
#X msg 598 680 0;
#X obj 127 178 hradio 8 1 0 2 empty empty empty 0 -8 0 10 -262144 -1
-1 1;
#X obj 604 646 t f b;
#X msg 644 679 1;
#X obj 148 178 hradio 8 1 0 2 empty empty empty 0 -8 0 10 -262144 -1
-1 1;
#X obj 649 645 t f b;
#X obj 169 178 hradio 8 1 0 2 empty empty empty 0 -8 0 10 -262144 -1
-1 1;
#X obj 695 644 t f b;
#X msg 689 678 2;
#X msg 735 677 3;
#X obj 190 178 hradio 8 1 0 2 empty empty empty 0 -8 0 10 -262144 -1
-1 1;
#X obj 750 775 array set \$0-mixer;
#X obj 742 645 t f b;
#X obj 211 178 hradio 8 1 0 2 empty empty empty 0 -8 0 10 -262144 -1
-1 1;
#X obj 788 644 t f b;
#X obj 232 178 hradio 8 1 0 2 empty empty empty 0 -8 0 10 -262144 -1
-1 1;
#X obj 833 643 t f b;
#X obj 252 178 hradio 8 1 0 2 empty empty empty 0 -8 0 10 -262144 -1
-1 1;
#X obj 879 642 t f b;
#X msg 782 678 4;
#X msg 828 677 5;
#X msg 873 676 6;
#X msg 919 675 7;
#X obj 576 69 loadbang;
#X obj 162 601 loadbang;
#X msg 284 609 1;
#X obj 833 248 t a b;
#X msg 883 287 reset;
#X connect 0 0 5 0;
#X connect 1 0 6 0;
#X connect 2 0 7 0;
#X connect 3 0 4 0;
#X connect 4 0 8 0;
#X connect 4 0 119 0;
#X connect 5 0 9 0;
#X connect 5 0 120 0;
#X connect 6 0 10 0;
#X connect 6 0 121 0;
#X connect 7 0 11 0;
#X connect 7 0 122 0;
#X connect 8 0 53 0;
#X connect 8 0 52 0;
#X connect 9 0 59 0;
#X connect 9 0 60 0;
#X connect 10 0 66 0;
#X connect 10 0 67 0;
#X connect 11 0 73 0;
#X connect 11 0 74 0;
#X connect 14 0 16 0;
#X connect 15 0 14 1;
#X connect 15 0 142 0;
#X connect 16 0 112 0;
#X connect 17 0 16 1;
#X connect 18 0 20 0;
#X connect 19 0 18 1;
#X connect 19 0 140 0;
#X connect 20 0 112 1;
#X connect 21 0 20 1;
#X connect 22 0 8 1;
#X connect 23 0 9 1;
#X connect 24 0 10 1;
#X connect 25 0 11 1;
#X connect 26 0 31 0;
#X connect 27 0 32 0;
#X connect 28 0 33 0;
#X connect 29 0 30 0;
#X connect 30 0 34 0;
#X connect 30 0 123 0;
#X connect 31 0 35 0;
#X connect 31 0 124 0;
#X connect 32 0 36 0;
#X connect 32 0 125 0;
#X connect 33 0 37 0;
#X connect 33 0 126 0;
#X connect 34 0 80 0;
#X connect 34 0 81 0;
#X connect 35 0 87 0;
#X connect 35 0 88 0;
#X connect 36 0 94 0;
#X connect 36 0 95 0;
#X connect 37 0 101 0;
#X connect 37 0 102 0;
#X connect 38 0 34 1;
#X connect 39 0 35 1;
#X connect 40 0 36 1;
#X connect 41 0 37 1;
#X connect 42 0 106 0;
#X connect 43 0 46 1;
#X connect 43 0 138 0;
#X connect 44 0 105 0;
#X connect 44 0 55 0;
#X connect 44 0 62 0;
#X connect 44 0 69 0;
#X connect 44 0 76 0;
#X connect 44 0 83 0;
#X connect 44 0 90 0;
#X connect 44 0 97 0;
#X connect 44 0 104 0;
#X connect 44 1 43 0;
#X connect 44 1 113 0;
#X connect 45 0 44 0;
#X connect 46 0 47 0;
#X connect 47 0 106 0;
#X connect 48 0 46 0;
#X connect 49 0 50 0;
#X connect 49 0 53 1;
#X connect 50 0 51 0;
#X connect 51 0 52 1;
#X connect 52 0 14 0;
#X connect 53 0 18 0;
#X connect 54 0 55 0;
#X connect 55 0 49 0;
#X connect 56 0 57 0;
#X connect 56 0 60 1;
#X connect 57 0 58 0;
#X connect 58 0 59 1;
#X connect 59 0 14 0;
#X connect 60 0 18 0;
#X connect 61 0 62 0;
#X connect 62 0 56 0;
#X connect 63 0 64 0;
#X connect 63 0 67 1;
#X connect 64 0 65 0;
#X connect 65 0 66 1;
#X connect 66 0 14 0;
#X connect 67 0 18 0;
#X connect 68 0 69 0;
#X connect 69 0 63 0;
#X connect 70 0 71 0;
#X connect 70 0 74 1;
#X connect 71 0 72 0;
#X connect 72 0 73 1;
#X connect 73 0 14 0;
#X connect 74 0 18 0;
#X connect 75 0 76 0;
#X connect 76 0 70 0;
#X connect 77 0 78 0;
#X connect 77 0 81 1;
#X connect 78 0 79 0;
#X connect 79 0 80 1;
#X connect 80 0 14 0;
#X connect 81 0 18 0;
#X connect 82 0 83 0;
#X connect 83 0 77 0;
#X connect 84 0 85 0;
#X connect 84 0 88 1;
#X connect 85 0 86 0;
#X connect 86 0 87 1;
#X connect 87 0 14 0;
#X connect 88 0 18 0;
#X connect 89 0 90 0;
#X connect 90 0 84 0;
#X connect 91 0 92 0;
#X connect 91 0 95 1;
#X connect 92 0 93 0;
#X connect 93 0 94 1;
#X connect 94 0 14 0;
#X connect 95 0 18 0;
#X connect 96 0 97 0;
#X connect 97 0 91 0;
#X connect 98 0 99 0;
#X connect 98 0 102 1;
#X connect 99 0 100 0;
#X connect 100 0 101 1;
#X connect 101 0 14 0;
#X connect 102 0 18 0;
#X connect 103 0 104 0;
#X connect 104 0 98 0;
#X connect 105 0 48 0;
#X connect 106 0 15 0;
#X connect 106 1 19 0;
#X connect 106 2 4 1;
#X connect 106 2 145 0;
#X connect 106 3 5 1;
#X connect 106 3 143 0;
#X connect 106 4 6 1;
#X connect 106 4 144 0;
#X connect 106 5 7 1;
#X connect 106 5 146 0;
#X connect 106 6 30 1;
#X connect 106 6 147 0;
#X connect 106 7 31 1;
#X connect 106 7 148 0;
#X connect 106 8 32 1;
#X connect 106 8 149 0;
#X connect 106 9 33 1;
#X connect 106 9 150 0;
#X connect 106 10 22 0;
#X connect 106 11 23 0;
#X connect 106 12 24 0;
#X connect 106 13 25 0;
#X connect 106 14 38 0;
#X connect 106 15 39 0;
#X connect 106 16 40 0;
#X connect 106 17 41 0;
#X connect 106 18 17 0;
#X connect 106 19 21 0;
#X connect 111 0 112 2;
#X connect 112 0 12 0;
#X connect 112 1 13 0;
#X connect 113 0 111 0;
#X connect 114 0 113 0;
#X connect 115 0 116 0;
#X connect 116 0 15 0;
#X connect 117 0 118 0;
#X connect 118 0 19 0;
#X connect 128 0 130 0;
#X connect 129 0 131 0;
#X connect 130 0 129 0;
#X connect 130 1 151 0;
#X connect 131 0 132 0;
#X connect 132 0 136 0;
#X connect 133 0 181 0;
#X connect 134 0 133 0;
#X connect 135 0 134 0;
#X connect 136 0 106 0;
#X connect 138 0 140 1;
#X connect 138 0 142 1;
#X connect 139 0 15 0;
#X connect 140 0 139 0;
#X connect 141 0 19 0;
#X connect 142 0 141 0;
#X connect 143 0 5 1;
#X connect 144 0 6 1;
#X connect 145 0 4 1;
#X connect 146 0 7 1;
#X connect 147 0 30 1;
#X connect 148 0 31 1;
#X connect 149 0 32 1;
#X connect 150 0 33 1;
#X connect 151 0 132 1;
#X connect 152 0 154 0;
#X connect 154 0 153 0;
#X connect 154 1 155 0;
#X connect 155 0 153 1;
#X connect 156 0 157 0;
#X connect 157 0 153 0;
#X connect 157 1 158 0;
#X connect 158 0 153 1;
#X connect 159 0 160 0;
#X connect 160 0 153 0;
#X connect 160 1 163 0;
#X connect 161 0 162 0;
#X connect 162 0 153 0;
#X connect 162 1 164 0;
#X connect 163 0 153 1;
#X connect 164 0 153 1;
#X connect 165 0 167 0;
#X connect 167 0 166 0;
#X connect 167 1 174 0;
#X connect 168 0 169 0;
#X connect 169 0 166 0;
#X connect 169 1 175 0;
#X connect 170 0 171 0;
#X connect 171 0 166 0;
#X connect 171 1 176 0;
#X connect 172 0 173 0;
#X connect 173 0 166 0;
#X connect 173 1 177 0;
#X connect 174 0 166 1;
#X connect 175 0 166 1;
#X connect 176 0 166 1;
#X connect 177 0 166 1;
#X connect 178 0 44 0;
#X connect 178 0 134 0;
#X connect 179 0 180 0;
#X connect 180 0 152 0;
#X connect 180 0 156 0;
#X connect 180 0 159 0;
#X connect 180 0 161 0;
#X connect 180 0 165 0;
#X connect 180 0 168 0;
#X connect 180 0 170 0;
#X connect 180 0 172 0;
#X connect 181 0 128 0;
#X connect 181 1 182 0;
#X connect 182 0 129 0;
#X coords 0 -1 1 1 206 170 2 100 100;
