#N canvas 1726 208 958 530 12;
#X obj 18 28 inlet~ src;
#X text 102 107 ALLPASS~;
#X floatatom 143 132 5 0 0 0 - - -;
#X floatatom 103 132 5 0 0 0 - - -;
#X obj 436 58 loadbang;
#X obj 248 131 pack f f;
#X obj 242 183 line;
#X obj 323 131 pack f f;
#X obj 328 175 line;
#X obj 37 276 else/allpass.rev~ \$1 \$2;
#X obj 451 155 + \$3;
#X obj 503 161 + \$4;
#X obj 68 345 *~;
#X obj 471 268 hsl 128 15 0 1 0 0 empty empty empty -2 -8 0 10 -262144
-1 -1 12700 1;
#X msg 468 127 1;
#X obj 586 163 line;
#X obj 44 237 *~;
#X obj 747 184 tgl 15 0 empty empty empty 17 7 0 10 -262144 -1 -1 0
1;
#X obj 41 484 outlet~ dry;
#X msg 520 114 \$1 150;
#X obj 384 321 list \$1;
#X obj 465 325 list \$2;
#X floatatom 104 169 5 0 0 2 delay - -;
#X floatatom 146 170 5 0 0 2 decay - -;
#X msg 456 81 150;
#X obj 105 239 *~;
#X obj 662 248 line;
#X obj 753 217 hsl 128 15 0 1 0 0 empty empty empty -2 -8 0 10 -262144
-1 -1 0 1;
#X obj 855 262 - 1;
#X obj 857 289 * -1;
#X msg 664 223 \$1 220;
#X msg 609 90 0;
#X obj 155 486 outlet~ wet;
#X obj 673 6 inlet~ wet;
#X obj 159 393 +~;
#X obj 68 316 +~;
#X obj 66 385 *~ 0.8;
#X obj 143 26 inlet cmd;
#X floatatom 876 410 5 0 0 0 - - -;
#X obj 856 316 clip 0 1;
#X obj 723 312 clip 0 1;
#X floatatom 704 386 5 0 0 0 - - -;
#X obj 829 371 max 0;
#X obj 334 230 line;
#X msg 334 207 \$1 100;
#X obj 283 376 line;
#X msg 283 353 \$1 100;
#X obj 410 384 line;
#X msg 410 361 \$1 100;
#X obj 51 413 lop~;
#X obj 178 421 lop~;
#X obj 519 396 line;
#X msg 519 373 \$1 100;
#X obj 646 404 line;
#X msg 646 381 \$1 100;
#X obj 53 442 hip~;
#X obj 175 453 hip~;
#X text 13 216 bypass;
#X text 100 346 mix \, or postboost;
#X text 4 383 drymult;
#X obj 4 180 *~;
#X obj 41 180 *~;
#X obj 789 133 tgl 15 0 empty empty empty 17 7 0 10 -262144 -1 -1 0
1;
#X obj 19 132 == 0;
#X obj 238 34 route delay decay delayenv decayenv mix bypass drymult
lop lopw hip hipw fullbypass, f 84;
#X text 6 157 fullbypass;
#X msg 492 452 8000;
#X msg 494 492 0;
#X obj 852 96 <= 0;
#X msg 856 169 0;
#X obj 828 139 sel 0 1;
#X msg 815 170 1;
#X obj 631 459 else/xgate~ 2 200 1;
#X msg 813 195 1;
#X msg 860 193 2;
#X connect 0 0 60 0;
#X connect 0 0 72 0;
#X connect 2 0 7 1;
#X connect 3 0 5 1;
#X connect 4 0 24 0;
#X connect 4 0 14 0;
#X connect 4 0 31 0;
#X connect 4 0 20 0;
#X connect 4 0 21 0;
#X connect 4 0 66 0;
#X connect 5 0 6 0;
#X connect 6 0 9 1;
#X connect 7 0 8 0;
#X connect 8 0 9 2;
#X connect 9 0 35 0;
#X connect 10 0 3 0;
#X connect 11 0 2 0;
#X connect 12 0 34 0;
#X connect 12 0 36 0;
#X connect 13 0 12 1;
#X connect 14 0 13 0;
#X connect 15 0 13 0;
#X connect 16 0 9 0;
#X connect 17 0 30 0;
#X connect 19 0 15 0;
#X connect 20 0 22 0;
#X connect 21 0 23 0;
#X connect 24 0 10 0;
#X connect 24 0 11 0;
#X connect 25 0 35 1;
#X connect 26 0 27 0;
#X connect 27 0 28 0;
#X connect 27 0 40 0;
#X connect 28 0 29 0;
#X connect 29 0 39 0;
#X connect 30 0 26 0;
#X connect 31 0 17 0;
#X connect 31 0 62 0;
#X connect 33 0 34 1;
#X connect 34 0 50 0;
#X connect 35 0 12 0;
#X connect 36 0 49 0;
#X connect 37 0 64 0;
#X connect 39 0 42 0;
#X connect 40 0 25 1;
#X connect 40 0 41 0;
#X connect 42 0 38 0;
#X connect 42 0 16 1;
#X connect 43 0 36 1;
#X connect 44 0 43 0;
#X connect 45 0 49 1;
#X connect 46 0 45 0;
#X connect 47 0 50 1;
#X connect 48 0 47 0;
#X connect 49 0 55 0;
#X connect 50 0 56 0;
#X connect 51 0 55 1;
#X connect 52 0 51 0;
#X connect 53 0 56 1;
#X connect 54 0 53 0;
#X connect 55 0 18 0;
#X connect 56 0 32 0;
#X connect 60 0 16 0;
#X connect 61 0 25 0;
#X connect 62 0 63 0;
#X connect 62 0 61 1;
#X connect 63 0 60 1;
#X connect 64 0 5 0;
#X connect 64 1 7 0;
#X connect 64 2 3 0;
#X connect 64 3 2 0;
#X connect 64 4 19 0;
#X connect 64 5 17 0;
#X connect 64 6 44 0;
#X connect 64 7 46 0;
#X connect 64 8 48 0;
#X connect 64 9 52 0;
#X connect 64 10 54 0;
#X connect 64 11 68 0;
#X connect 66 0 49 1;
#X connect 66 0 50 1;
#X connect 66 0 67 0;
#X connect 67 0 56 1;
#X connect 67 0 55 1;
#X connect 68 0 70 0;
#X connect 69 0 62 0;
#X connect 70 0 71 0;
#X connect 70 0 73 0;
#X connect 70 1 69 0;
#X connect 71 0 62 0;
#X connect 72 0 61 0;
#X connect 72 1 18 0;
#X connect 73 0 72 0;
#X connect 74 0 72 0;
#X coords 0 -1 1 1 85 100 2 100 100;
