#N canvas 1371 94 1348 669 12;
#X obj 37 57 allpass~ 47 223;
#X obj 40 165 allpass~ 67 317;
#X obj 44 280 allpass~ 89 419;
#X obj 44 391 allpass~ 107 521;
#X obj 44 509 allpass~ 127 617;
#X obj 44 616 allpass~ 149 719;
#X obj 42 723 allpass~ 167 821;
#X obj 41 831 allpass~ 191 919;
#X obj 41 937 allpass~ 211 1013;
#X obj 37 1060 allpass~ 229 1109;
#X obj 35 1177 allpass~ 251 1213;
#X obj 36 1286 allpass~ 269 1307;
#X obj 35 1398 allpass~ 293 1409;
#X obj 33 1511 allpass~ 311 1511;
#X obj 32 1623 allpass~ 331 1607;
#X obj 31 1728 allpass~ 349 1709;
#X obj 33 1843 allpass~ 367 1811;
#X obj 35 1954 allpass~ 389 1907;
#X obj 375 1563 allpass~ 409 2003;
#X obj 376 1674 allpass~ 431 2099;
#X obj 376 1787 allpass~ 449 2203;
#X obj 490 1566 allpass~ 467 2297;
#X obj 487 1684 allpass~ 487 2393;
#X obj 486 1801 allpass~ 509 2503;
#X obj 326 179 route 0 1 2 3 4 5 6 7 8 9 10 11 12 13 14 15 16 17 18
19 20 21 22 23;
#X obj 312 251 s \$0-cmd-0;
#X obj 452 251 s \$0-cmd-1;
#X obj 312 278 s \$0-cmd-2;
#X obj 452 278 s \$0-cmd-3;
#X obj 312 305 s \$0-cmd-4;
#X obj 452 305 s \$0-cmd-5;
#X obj 312 332 s \$0-cmd-6;
#X obj 452 332 s \$0-cmd-7;
#X obj 312 359 s \$0-cmd-8;
#X obj 452 359 s \$0-cmd-9;
#X obj 312 386 s \$0-cmd-10;
#X obj 452 386 s \$0-cmd-11;
#X obj 312 413 s \$0-cmd-12;
#X obj 452 413 s \$0-cmd-13;
#X obj 312 440 s \$0-cmd-14;
#X obj 452 440 s \$0-cmd-15;
#X obj 312 467 s \$0-cmd-16;
#X obj 452 467 s \$0-cmd-17;
#X obj 312 494 s \$0-cmd-18;
#X obj 452 494 s \$0-cmd-19;
#X obj 312 521 s \$0-cmd-20;
#X obj 452 521 s \$0-cmd-21;
#X obj 312 549 s \$0-cmd-22;
#X obj 452 549 s \$0-cmd-23;
#X obj 321 581 r \$0-cmd-0;
#X obj 461 581 r \$0-cmd-1;
#X obj 321 608 r \$0-cmd-2;
#X obj 461 608 r \$0-cmd-3;
#X obj 321 635 r \$0-cmd-4;
#X obj 461 635 r \$0-cmd-5;
#X obj 321 662 r \$0-cmd-6;
#X obj 461 662 r \$0-cmd-7;
#X obj 321 689 r \$0-cmd-8;
#X obj 461 689 r \$0-cmd-9;
#X obj 321 716 r \$0-cmd-10;
#X obj 461 716 r \$0-cmd-11;
#X obj 321 743 r \$0-cmd-12;
#X obj 461 743 r \$0-cmd-13;
#X obj 321 770 r \$0-cmd-14;
#X obj 461 770 r \$0-cmd-15;
#X obj 321 797 r \$0-cmd-16;
#X obj 461 797 r \$0-cmd-17;
#X obj 321 824 r \$0-cmd-18;
#X obj 461 824 r \$0-cmd-19;
#X obj 321 851 r \$0-cmd-20;
#X obj 461 851 r \$0-cmd-21;
#X obj 321 879 r \$0-cmd-22;
#X obj 461 879 r \$0-cmd-23;
#X obj 168 50 inlet~ src;
#X msg 679 73 size 4000;
#X obj 487 50 inlet cmd;
#X obj 311 50 inlet~ wet;
#X obj 350 1943 outlet~ src;
#X obj 459 1948 outlet~ wet;
#X obj 804 288 random 10;
#X obj 839 196 bng 15 250 50 0 empty empty empty 17 7 0 10 -262144
-1 -1;
#X obj 839 266 bng 15 250 50 0 empty empty empty 17 7 0 10 -262144
-1 -1;
#X obj 828 146 lb;
#X obj 823 240 metro 220;
#X obj 420 1440 else/xgate~ 11 5000 0;
#X obj 338 15 route delay decay delayenv decayenv mix bypass drymult
lop lopw hip hipw fullbypass, f 84;
#X connect 0 0 84 0;
#X connect 0 0 1 0;
#X connect 0 1 1 2;
#X connect 1 0 2 0;
#X connect 1 1 2 2;
#X connect 2 0 3 0;
#X connect 2 1 3 2;
#X connect 3 0 4 0;
#X connect 3 1 4 2;
#X connect 4 0 5 0;
#X connect 4 1 5 2;
#X connect 5 0 6 0;
#X connect 5 1 6 2;
#X connect 6 0 7 0;
#X connect 6 1 7 2;
#X connect 7 0 8 0;
#X connect 7 1 8 2;
#X connect 8 0 9 0;
#X connect 8 1 9 2;
#X connect 9 0 10 0;
#X connect 9 1 10 2;
#X connect 10 0 11 0;
#X connect 10 1 11 2;
#X connect 11 0 12 0;
#X connect 11 1 12 2;
#X connect 12 0 13 0;
#X connect 12 1 13 2;
#X connect 13 0 14 0;
#X connect 13 1 14 2;
#X connect 14 0 15 0;
#X connect 14 1 15 2;
#X connect 15 0 16 0;
#X connect 15 1 16 2;
#X connect 16 0 17 0;
#X connect 16 1 17 2;
#X connect 17 0 18 0;
#X connect 17 1 18 2;
#X connect 18 0 19 0;
#X connect 18 1 19 2;
#X connect 19 0 20 0;
#X connect 19 1 20 2;
#X connect 20 0 21 0;
#X connect 20 1 21 2;
#X connect 21 0 22 0;
#X connect 21 1 22 2;
#X connect 22 0 23 0;
#X connect 22 1 23 2;
#X connect 23 0 77 0;
#X connect 23 1 78 0;
#X connect 24 0 25 0;
#X connect 24 1 26 0;
#X connect 24 2 27 0;
#X connect 24 3 28 0;
#X connect 24 4 29 0;
#X connect 24 5 30 0;
#X connect 24 6 31 0;
#X connect 24 7 32 0;
#X connect 24 8 33 0;
#X connect 24 9 34 0;
#X connect 24 10 35 0;
#X connect 24 11 36 0;
#X connect 24 12 37 0;
#X connect 24 13 38 0;
#X connect 24 14 39 0;
#X connect 24 15 40 0;
#X connect 24 16 41 0;
#X connect 24 17 42 0;
#X connect 24 18 43 0;
#X connect 24 19 44 0;
#X connect 24 20 45 0;
#X connect 24 21 46 0;
#X connect 24 22 47 0;
#X connect 24 23 48 0;
#X connect 49 0 0 1;
#X connect 50 0 1 1;
#X connect 51 0 2 1;
#X connect 52 0 3 1;
#X connect 53 0 4 1;
#X connect 54 0 5 1;
#X connect 55 0 6 1;
#X connect 56 0 7 1;
#X connect 57 0 8 1;
#X connect 58 0 9 1;
#X connect 59 0 10 1;
#X connect 60 0 11 1;
#X connect 61 0 12 1;
#X connect 62 0 13 1;
#X connect 63 0 14 1;
#X connect 64 0 15 1;
#X connect 65 0 16 1;
#X connect 66 0 17 1;
#X connect 67 0 18 1;
#X connect 68 0 19 1;
#X connect 69 0 20 1;
#X connect 70 0 21 1;
#X connect 71 0 22 1;
#X connect 72 0 23 1;
#X connect 73 0 0 0;
#X connect 74 0 2 0;
#X connect 74 0 3 0;
#X connect 74 0 4 0;
#X connect 74 0 5 0;
#X connect 74 0 6 0;
#X connect 74 0 7 0;
#X connect 74 0 8 0;
#X connect 74 0 9 0;
#X connect 74 0 10 0;
#X connect 74 0 11 0;
#X connect 74 0 12 0;
#X connect 74 0 13 0;
#X connect 74 0 14 0;
#X connect 74 0 15 0;
#X connect 74 0 16 0;
#X connect 74 0 17 0;
#X connect 74 0 18 0;
#X connect 74 0 19 0;
#X connect 74 0 20 0;
#X connect 74 0 21 0;
#X connect 74 0 22 0;
#X connect 74 0 23 0;
#X connect 75 0 24 0;
#X connect 76 0 0 2;
#X connect 79 0 84 0;
#X connect 80 0 83 0;
#X connect 82 0 83 0;
#X connect 83 0 79 0;
#X connect 83 0 81 0;
#X connect 84 0 2 2;
#X connect 84 1 4 2;
#X connect 84 2 6 2;
#X connect 84 3 8 2;
#X connect 84 3 10 2;
#X connect 84 4 12 2;
#X connect 84 5 14 2;
#X connect 84 6 16 2;
#X connect 84 7 18 2;
#X connect 84 8 20 2;
#X connect 84 9 22 2;
#X connect 84 10 23 2;
