#N canvas 1371 145 1121 588 12;
#X obj 48 72 inlet multistep;
#X obj 161 72 inlet start;
#X obj 249 72 inlet NoOfPoints;
#X obj 487 219 cyclone/uzi;
#X floatatom 192 163 5 0 0 2 pts - -;
#X obj 485 249 else/count 0 32;
#X obj 485 194 t b f f;
#X msg 732 191 reset;
#X obj 637 201 t f f;
#X obj 653 227 - 1;
#X msg 653 250 max \$1;
#X floatatom 234 163 5 1 1000 2 srcsize - -;
#X obj 185 339 metro 100;
#X obj 203 118 bng 8 250 50 0 empty empty empty 17 7 0 10 -262144 -1
-1;
#X obj 110 134 bng 10 250 50 0 empty empty START 17 7 0 6 -262144 -1
-1;
#X msg 215 313 stop;
#X obj 413 313 f;
#X obj 413 289 t b f;
#X obj 352 371 else/count 0 10;
#X obj 352 418 *;
#X obj 352 442 +;
#X obj 352 466 %;
#X floatatom 110 162 5 1 1000 2 mstp - -;
#X obj 353 336 t f f f;
#X floatatom 150 163 5 0 1000 2 start - -;
#X msg 383 440 set \$1;
#X obj 487 276 t f f;
#X obj 413 337 - 1;
#X obj 383 417 t b f f;
#X obj 352 395 t f f;
#X obj 786 289 else/count 0 32;
#X obj 729 243 t f f;
#X obj 372 72 inlet SourceSize;
#X obj 500 72 inlet DestStart;
#X obj 793 243 t f f;
#X msg 729 265 min \$1;
#X msg 793 265 max \$1;
#X obj 730 289 t f b;
#X floatatom 109 202 5 0 100 2 deststart - -;
#X floatatom 222 201 5 0 100 2 destend - -;
#X obj 619 72 inlet DestEnd;
#X obj 221 118 hsl 40 8 30 3000 1 0 empty empty empty -2 -8 0 10 -262144
-1 -1 1200 0;
#X text 110 109 ARRAYREADER;
#X floatatom 218 130 5 0 0 0 - - -;
#X obj 152 134 bng 10 250 50 0 empty empty STOP 17 7 0 6 -262144 -1
-1;
#X obj 726 72 inlet src;
#X obj 798 72 inlet dest;
#X msg 716 128 set \$1;
#X obj 108 227 else/display;
#X obj 108 255 else/display;
#X obj 771 130 list trim;
#X msg 858 134 set \$1;
#X obj 915 134 list trim;
#X obj 882 72 inlet tempo;
#X obj 972 71 inlet bang;
#X obj 33 436 outlet bang;
#X obj 120 436 outlet srcidx;
#X obj 231 436 outlet destidx;
#X text 222 101 s d t b;
#X obj 735 105 t a a;
#X obj 887 108 t a a;
#X obj 849 108 list;
#X obj 697 104 list;
#X obj 928 215 loadbang;
#X msg 943 264 24;
#X msg 982 269 23;
#X msg 905 253 320;
#X obj 495 423 tabread dtab;
#X obj 730 316 tabwrite dtab2;
#X text 170 270 b srcidx dstidx;
#X connect 0 0 22 0;
#X connect 1 0 24 0;
#X connect 2 0 4 0;
#X connect 3 0 5 0;
#X connect 4 0 6 0;
#X connect 5 0 26 0;
#X connect 6 1 19 1;
#X connect 6 2 3 1;
#X connect 7 0 5 0;
#X connect 7 0 18 0;
#X connect 8 0 21 1;
#X connect 8 1 9 0;
#X connect 9 0 10 0;
#X connect 10 0 5 0;
#X connect 11 0 8 0;
#X connect 12 0 13 0;
#X connect 12 0 55 0;
#X connect 13 0 18 0;
#X connect 14 0 12 0;
#X connect 15 0 12 0;
#X connect 16 0 27 0;
#X connect 17 0 16 0;
#X connect 17 1 16 1;
#X connect 18 0 29 0;
#X connect 19 0 20 0;
#X connect 20 0 21 0;
#X connect 21 0 28 0;
#X connect 22 0 17 0;
#X connect 23 2 20 1;
#X connect 24 0 23 0;
#X connect 25 0 5 0;
#X connect 26 0 67 0;
#X connect 26 1 56 0;
#X connect 27 0 18 1;
#X connect 28 0 3 0;
#X connect 28 1 25 0;
#X connect 29 0 19 0;
#X connect 30 0 57 0;
#X connect 30 0 68 1;
#X connect 31 1 35 0;
#X connect 32 0 11 0;
#X connect 33 0 38 0;
#X connect 34 1 36 0;
#X connect 35 0 30 0;
#X connect 36 0 30 0;
#X connect 37 0 68 0;
#X connect 37 1 30 0;
#X connect 38 0 31 0;
#X connect 39 0 34 0;
#X connect 40 0 39 0;
#X connect 41 0 43 0;
#X connect 43 0 12 1;
#X connect 44 0 15 0;
#X connect 45 0 62 0;
#X connect 46 0 61 0;
#X connect 47 0 67 0;
#X connect 50 0 48 0;
#X connect 51 0 68 0;
#X connect 52 0 49 0;
#X connect 53 0 41 0;
#X connect 54 0 12 0;
#X connect 59 0 47 0;
#X connect 59 1 50 0;
#X connect 60 0 51 0;
#X connect 60 1 52 0;
#X connect 61 0 60 0;
#X connect 62 0 59 0;
#X connect 63 0 64 0;
#X connect 63 0 65 0;
#X connect 63 0 66 0;
#X connect 63 0 24 0;
#X connect 63 0 22 0;
#X connect 63 0 38 0;
#X connect 64 0 4 0;
#X connect 64 0 11 0;
#X connect 65 0 39 0;
#X connect 66 0 41 0;
#X connect 67 0 37 0;
#X coords 0 -1 1 1 185 190 2 100 100;
