#N canvas 1649 299 969 418 12;
#X obj 220 122 bng 8 250 50 0 empty empty empty 17 7 0 10 -262144 -1
-1;
#X obj 270 140 cyclone/iter;
#X obj 264 235 pack f f;
#X obj 272 176 t b f;
#X msg 379 169 reset;
#X obj 94 354 array get \$0-decaySend;
#X obj 350 55 spigot;
#X obj 184 52 metro 450;
#X obj 194 136 hsl 40 8 50 5000 1 1 empty empty empty -2 -8 0 10 -262144
-1 -1 1861 0;
#X floatatom 190 148 5 0 0 0 - - -;
#X obj 341 11 inlet min;
#X obj 415 11 inlet max;
#X floatatom 104 180 5 0 0 2 min - -;
#X floatatom 148 179 5 0 0 2 max - -;
#X msg 507 188 min \$1;
#X msg 569 188 max \$1;
#X obj 503 71 loadbang;
#X msg 681 151 23;
#X obj 584 11 inlet name;
#X obj 564 83 list;
#X obj 632 97 t a a;
#X obj 105 203 else/display;
#X msg 437 275 symbol \$1;
#X text 102 115 ARRAYREADERSMALL;
#X obj 162 301 outlet data;
#X obj 257 301 outlet bang;
#X obj 90 11 inlet bang;
#X obj 611 229 list trim;
#X obj 160 231 bng 8 250 50 0 empty empty reset 9 4 0 8 -262144 -1
-1;
#X floatatom 104 146 5 0 0 2 start - -;
#X floatatom 145 146 5 0 0 2 size - -;
#X obj 177 11 inlet start;
#X msg 433 56 0;
#X obj 262 11 inlet size;
#X obj 492 11 inlet reset;
#X msg 462 110 -1;
#X text 183 102 mx r nm;
#X text 216 224 b, f 2;
#X text 103 224 d;
#X text 102 102 b s sz mn;
#X obj 377 347 spigot;
#X obj 526 375 hradio 8 1 0 2 empty empty empty 0 -8 0 10 -262144 -1
-1 1;
#X obj 538 278 t b b;
#X msg 548 313 0;
#X obj 489 299 t b f;
#X msg 496 336 1;
#X obj 191 184 hradio 8 1 0 4 empty empty empty 0 -8 0 10 -262144 -1
-1 1;
#X text 266 385 off on chain both;
#X obj 746 194 else/router 2;
#X obj 847 194 - 1, f 4;
#X msg 724 242 stop;
#X msg 764 243 0;
#X msg 794 242 1;
#X msg 836 242 stop;
#X msg 875 242 1;
#X obj 746 170 route 0 1 2 3;
#X obj 748 218 t b b;
#X obj 794 218 t b b;
#X obj 836 218 t b b;
#X msg 633 63 0;
#X text 207 166 xb;
#X text 189 166 -1;
#X msg 617 152 0;
#X msg 743 57 450;
#X obj 266 206 else/count 0 23;
#X connect 0 0 44 0;
#X connect 1 0 40 0;
#X connect 2 0 24 0;
#X connect 3 0 64 0;
#X connect 3 1 2 1;
#X connect 4 0 64 0;
#X connect 5 0 1 0;
#X connect 6 0 0 0;
#X connect 6 0 25 0;
#X connect 7 0 6 0;
#X connect 8 0 9 0;
#X connect 9 0 7 1;
#X connect 10 0 12 0;
#X connect 11 0 13 0;
#X connect 12 0 14 0;
#X connect 13 0 15 0;
#X connect 14 0 64 0;
#X connect 15 0 64 0;
#X connect 16 0 62 0;
#X connect 16 0 17 0;
#X connect 16 0 32 0;
#X connect 16 0 29 0;
#X connect 16 0 30 0;
#X connect 16 0 35 0;
#X connect 16 0 59 0;
#X connect 16 0 63 0;
#X connect 17 0 13 0;
#X connect 18 0 19 0;
#X connect 19 0 20 0;
#X connect 20 0 22 0;
#X connect 20 1 27 0;
#X connect 22 0 5 2;
#X connect 26 0 48 0;
#X connect 27 0 21 0;
#X connect 28 0 42 0;
#X connect 29 0 5 0;
#X connect 30 0 5 1;
#X connect 31 0 29 0;
#X connect 32 0 29 0;
#X connect 33 0 30 0;
#X connect 34 0 28 0;
#X connect 35 0 30 0;
#X connect 40 0 3 0;
#X connect 41 0 40 1;
#X connect 42 0 4 0;
#X connect 42 1 43 0;
#X connect 43 0 41 0;
#X connect 44 0 5 0;
#X connect 44 1 45 0;
#X connect 45 0 41 0;
#X connect 46 0 49 0;
#X connect 46 0 55 0;
#X connect 48 0 6 0;
#X connect 48 1 6 0;
#X connect 49 0 48 1;
#X connect 50 0 7 0;
#X connect 51 0 6 1;
#X connect 52 0 6 1;
#X connect 53 0 7 0;
#X connect 54 0 6 1;
#X connect 55 0 56 0;
#X connect 55 1 57 0;
#X connect 55 2 58 0;
#X connect 55 3 57 0;
#X connect 56 0 50 0;
#X connect 56 1 51 0;
#X connect 57 0 7 0;
#X connect 57 1 52 0;
#X connect 58 0 53 0;
#X connect 58 1 54 0;
#X connect 59 0 46 0;
#X connect 62 0 12 0;
#X connect 63 0 8 0;
#X connect 64 0 2 0;
#X coords 0 -1 1 1 140 142 2 100 100;
