#N canvas 1933 272 788 447 12;
#X obj 104 78 inlet;
#X obj 147 78 inlet;
#X obj 192 78 inlet;
#X obj 236 78 inlet;
#X obj 210 391 outlet;
#X obj 334 150 <= 0;
#X obj 288 206 else/router;
#X obj 373 180 + 1;
#X obj 331 241 * -1;
#X obj 276 115 t f f;
#X msg 275 154 1;
#X obj 292 305 f 0;
#X obj 248 279 t f b;
#X obj 270 354 +;
#X obj 210 117 t f f;
#X msg 219 153 2;
#X obj 145 117 t f f;
#X msg 151 151 4;
#X obj 93 121 t f f;
#X msg 94 151 8;
#X msg 394 267 0;
#X obj 55 79 inlet;
#X obj 37 122 t f f;
#X msg 38 152 16;
#X floatatom 404 334 5 0 0 0 - - -;
#X obj 309 279 bng 15 250 50 0 empty empty empty 17 7 0 10 -262144
-1 -1;
#X connect 0 0 18 0;
#X connect 1 0 16 0;
#X connect 2 0 14 0;
#X connect 3 0 9 0;
#X connect 5 0 7 0;
#X connect 6 0 12 0;
#X connect 6 1 8 0;
#X connect 7 0 6 1;
#X connect 8 0 12 0;
#X connect 9 0 10 0;
#X connect 9 1 5 0;
#X connect 10 0 6 0;
#X connect 11 0 13 1;
#X connect 11 0 24 0;
#X connect 12 0 13 0;
#X connect 12 1 11 0;
#X connect 13 0 4 0;
#X connect 13 0 11 1;
#X connect 14 0 15 0;
#X connect 14 1 5 0;
#X connect 15 0 6 0;
#X connect 16 0 17 0;
#X connect 16 1 5 0;
#X connect 17 0 6 0;
#X connect 18 0 19 0;
#X connect 18 1 5 0;
#X connect 19 0 6 0;
#X connect 20 0 11 1;
#X connect 21 0 22 0;
#X connect 22 0 23 0;
#X connect 22 1 5 0;
#X connect 23 0 6 0;
#X connect 25 0 11 0;
