#N canvas 2256 237 450 300 12;
#X obj 150 59 inlet~;
#X obj 230 58 inlet~;
#X obj 140 260 outlet~;
#X obj 277 260 outlet~;
#X obj 181 161 *~;
#X obj 145 162 *~;
#X obj 103 116 tgl 8 0 empty empty empty 12 4 0 8 -262144 -1 -1 0 1
;
#X obj 242 111 == 0;
#X obj 267 153 *~;
#X obj 225 161 *~;
#X obj 376 58 loadbang;
#X msg 374 94 0;
#X text 101 100 BYPASS~;
#X obj 81 259 outlet~;
#X obj 210 259 outlet~;
#X text 114 117 b;
#X text 146 117 b;
#X connect 0 0 5 0;
#X connect 0 0 4 0;
#X connect 1 0 9 0;
#X connect 1 0 8 0;
#X connect 4 0 2 0;
#X connect 5 0 13 0;
#X connect 6 0 7 0;
#X connect 6 0 4 1;
#X connect 6 0 8 1;
#X connect 7 0 5 1;
#X connect 7 0 9 1;
#X connect 8 0 3 0;
#X connect 9 0 14 0;
#X connect 10 0 11 0;
#X connect 11 0 6 0;
#X coords 0 -1 1 1 60 35 2 100 100;
