#N canvas 1907 202 450 300 12;
#X obj 148 35 inlet;
#X obj 172 121 list-abs/list-compare;
#X obj 133 211 outlet;
#X obj 127 180 spigot;
#X obj 150 76 t a a;
#X obj 226 183 == 0;
#X connect 0 0 4 0;
#X connect 1 0 5 0;
#X connect 3 0 1 1;
#X connect 3 0 2 0;
#X connect 4 0 3 0;
#X connect 4 1 1 0;
#X connect 5 0 3 1;
