#N canvas 1733 141 582 300 12;
#X obj 176 53 inlet;
#X obj 218 53 inlet;
#X obj 201 210 outlet;
#X obj 204 105 unpack s s s f;
#X obj 250 129 sel a;
#X obj 201 183 spigot;
#X msg 257 155 1;
#X msg 292 156 0;
#X obj 172 81 t a a;
#X obj 150 129 list split 1;
#X connect 0 0 8 0;
#X connect 1 0 4 1;
#X connect 3 0 4 0;
#X connect 4 0 6 0;
#X connect 4 1 7 0;
#X connect 5 0 2 0;
#X connect 6 0 5 1;
#X connect 7 0 5 1;
#X connect 8 0 9 0;
#X connect 8 1 3 0;
#X connect 9 1 5 0;
