#N canvas 2264 254 450 388 12;
#X obj 105 17 inlet;
#X obj 154 83 list length;
#X obj 161 108 == 4;
#X obj 129 139 spigot;
#X obj 126 169 unpack s s s f;
#X obj 162 211 select update;
#X msg 164 250 1;
#X msg 202 248 0;
#X obj 111 282 spigot;
#X obj 110 43 t a a a;
#X obj 111 382 outlet;
#X obj 276 31 inlet;
#X obj 286 258 select sendcmd;
#X msg 287 284 1;
#X msg 324 285 0;
#X obj 120 319 spigot;
#X connect 0 0 9 0;
#X connect 1 0 2 0;
#X connect 2 0 3 1;
#X connect 3 0 4 0;
#X connect 4 1 5 0;
#X connect 4 2 12 0;
#X connect 5 0 6 0;
#X connect 5 1 7 0;
#X connect 6 0 8 1;
#X connect 7 0 8 1;
#X connect 8 0 15 0;
#X connect 9 0 8 0;
#X connect 9 1 3 0;
#X connect 9 2 1 0;
#X connect 11 0 12 1;
#X connect 12 0 13 0;
#X connect 12 1 14 0;
#X connect 13 0 15 1;
#X connect 14 0 15 1;
#X connect 15 0 10 0;
