#N canvas 1641 158 450 300 12;
#X obj 299 66 inlet~ R;
#X obj 226 66 inlet~ L;
#X obj 204 124 clip~ -1 1;
#X obj 311 128 clip~ -1 1;
#X obj 240 185 outlet~ L;
#X obj 327 186 outlet~ R;
#X text 102 102 CLIPPY~;
#X obj 108 126 hsl 40 8 0.01 1 1 1 empty empty empty -2 -8 0 10 -262144
-1 -1 1700 1;
#X obj 112 233 * -1;
#X floatatom 107 138 5 0 1 0 - - -;
#X obj 34 182 change;
#X obj 64 34 loadbang;
#X msg 58 66 1;
#X obj 210 246 *~;
#X obj 261 246 *~;
#X obj 162 126 hsl 40 8 0.01 4 1 1 empty empty empty -2 -8 0 10 -262144
-1 -1 3900 1;
#X floatatom 161 138 5 0 10 0 - - -;
#X obj 315 267 change;
#X obj 26 242 env~;
#X floatatom 107 163 5 0 0 0 - - -;
#X obj 79 242 env~;
#X floatatom 161 163 5 0 0 0 - - -;
#X text 162 107 gain;
#X obj 196 114 bng 8 250 50 0 empty empty empty 17 7 0 10 -262144 -1
-1;
#X msg 162 70 1;
#X connect 0 0 3 0;
#X connect 1 0 2 0;
#X connect 2 0 13 0;
#X connect 3 0 14 0;
#X connect 7 0 8 0;
#X connect 7 0 2 2;
#X connect 7 0 3 2;
#X connect 7 0 9 0;
#X connect 8 0 2 1;
#X connect 8 0 3 1;
#X connect 9 0 10 0;
#X connect 10 0 7 0;
#X connect 11 0 12 0;
#X connect 12 0 7 0;
#X connect 12 0 15 0;
#X connect 13 0 4 0;
#X connect 13 0 18 0;
#X connect 14 0 5 0;
#X connect 14 0 20 0;
#X connect 15 0 16 0;
#X connect 15 0 14 1;
#X connect 15 0 13 1;
#X connect 16 0 17 0;
#X connect 17 0 15 0;
#X connect 18 0 19 0;
#X connect 20 0 21 0;
#X connect 23 0 24 0;
#X connect 24 0 15 0;
#X coords 0 -1 1 1 110 90 2 100 100;
