#N canvas 1405 92 1316 633 12;
#X obj 982 433 outlet;
#X text 377 -1 quarter note;
#X obj 1100 107 metro 1 120 permin;
#X msg 1093 82 tempo \$1 permin;
#X obj 213 145 hradio 8 1 0 4 empty empty 0_1_X_B 0 -5 0 8 -262144
-1 -1 0;
#X msg 723 37 0;
#X msg 759 37 1;
#X msg 795 38 0;
#X obj 865 147 spigot;
#X msg 758 89 0;
#X msg 817 96 1;
#X obj 726 14 route 0 1 2 3;
#X obj 830 36 t f f;
#X msg 912 62 1;
#X msg 876 63 1;
#X obj 936 180 spigot 1;
#X obj 937 207 t b b b;
#X obj 161 170 hradio 8 1 0 8 empty empty 32_16_8_4_38_t16_t8_t4 -6
-4 0 6 -262144 -1 -1 3;
#X msg 549 43 0;
#X msg 584 43 1;
#X obj 687 346 spigot;
#X obj 175 138 tgl 8 0 empty empty sync 10 2 0 8 -262144 -1 -1 0 1
;
#X obj 710 284 route 0 1;
#X obj 734 308 t b b;
#X msg 745 347 1;
#X msg 697 307 0;
#X msg 733 400 0;
#X obj 688 373 t b b b;
#X obj 156 125 hradio 8 1 0 9 empty empty 32_16_8_4_O8_O4_t16_t8_t4
-6 -5 0 6 -262144 -1 -1 3;
#X msg 950 327 1.5;
#X msg 903 325 0.75;
#X msg 854 297 0.25;
#X msg 835 326 0.5;
#X msg 869 322 1;
#X msg 805 297 0.125;
#X msg 1029 297 0.666;
#X msg 929 297 0.166;
#X msg 981 298 0.333;
#X obj 832 266 sel 0 1 2 3 4 5 6 7 8;
#X obj 640 424 timer;
#X obj 632 376 tgl 15 0 empty empty empty 17 7 0 10 -262144 -1 -1 1
1;
#X obj 639 399 route 0 1;
#X obj 638 310 t b b;
#X obj 128 53 inlet clk;
#X obj 866 170 spigot 0;
#X obj 1136 151 spigot 1;
#X obj 749 63 t f f f;
#X text 103 112 CLOCK;
#X text 722 522 triplet in quarter = 0.333;
#X text 745 486 quarter note triplets at 120bpm 1 quarter note is 500ms
= 333.33msec;
#X msg 1081 237 0.25;
#X msg 1124 238 0.5;
#X msg 1160 238 1;
#X msg 1032 237 0.125;
#X msg 1194 238 1.5;
#X obj 1034 204 route 0 1 2 3 4 5 6 7;
#X msg 1263 270 0.666;
#X msg 1163 270 0.166;
#X msg 1215 271 0.333;
#X obj 1176 323 1port;
#X floatatom 105 140 5 0 0 1 bpm - -;
#X obj 175 149 tgl 8 0 empty empty allowb 10 4 0 6 -262144 -1 -1 0
1;
#X obj 21 53 inlet bang;
#X text 104 100 b;
#X text 166 100 clk;
#X text 100 164 clk;
#X obj 128 171 bng 8 250 50 0 empty empty empty 17 7 0 10 -262144 -1
-1;
#X obj 79 205 loadbang;
#X obj 83 231 t b b b b b;
#X msg 180 261 0;
#X msg 139 259 3;
#X obj 250 58 inlet cmd;
#X text 241 100 c;
#X msg 97 257 120;
#X msg 64 257 0;
#X obj 270 314 route bpm;
#X obj 549 73 metro 1 120 permin;
#X obj 467 493 expr 1 /( $f1 /(1000 * 60 ));
#X msg 484 530 tempo \$1 permin;
#X obj 873 382 t b f;
#X obj 870 424 f;
#X obj 1081 150 bng 15 250 50 0 empty empty empty 17 7 0 10 -262144
-1 -1;
#X obj 800 66 t f f f b;
#X obj 677 60 t f f f b;
#X msg 1100 358 stop;
#X obj 1084 434 outlet cmd;
#X text 242 165 c;
#X connect 2 0 45 0;
#X connect 2 0 81 0;
#X connect 3 0 2 0;
#X connect 4 0 11 0;
#X connect 5 0 83 0;
#X connect 6 0 46 0;
#X connect 7 0 82 0;
#X connect 8 0 15 0;
#X connect 9 0 8 1;
#X connect 10 0 8 1;
#X connect 11 0 5 0;
#X connect 11 1 6 0;
#X connect 11 2 7 0;
#X connect 11 3 12 0;
#X connect 12 0 14 0;
#X connect 12 1 13 0;
#X connect 13 0 2 0;
#X connect 13 0 45 1;
#X connect 14 0 8 1;
#X connect 15 0 16 0;
#X connect 16 1 0 0;
#X connect 16 2 66 0;
#X connect 17 0 55 0;
#X connect 18 0 76 0;
#X connect 19 0 76 0;
#X connect 20 0 27 0;
#X connect 21 0 22 0;
#X connect 22 0 25 0;
#X connect 22 1 23 0;
#X connect 23 0 24 0;
#X connect 24 0 20 1;
#X connect 25 0 20 1;
#X connect 26 0 21 0;
#X connect 27 0 76 0;
#X connect 27 1 2 0;
#X connect 27 2 26 0;
#X connect 28 0 38 0;
#X connect 29 0 79 0;
#X connect 30 0 79 0;
#X connect 31 0 79 0;
#X connect 32 0 79 0;
#X connect 33 0 79 0;
#X connect 34 0 79 0;
#X connect 35 0 79 0;
#X connect 36 0 79 0;
#X connect 37 0 79 0;
#X connect 38 0 34 0;
#X connect 38 1 31 0;
#X connect 38 2 32 0;
#X connect 38 3 33 0;
#X connect 38 4 30 0;
#X connect 38 5 29 0;
#X connect 38 6 36 0;
#X connect 38 7 37 0;
#X connect 38 8 35 0;
#X connect 39 0 77 0;
#X connect 40 0 41 0;
#X connect 41 0 39 0;
#X connect 41 1 39 1;
#X connect 42 0 40 0;
#X connect 42 1 20 0;
#X connect 43 0 42 0;
#X connect 44 0 15 0;
#X connect 45 0 15 0;
#X connect 46 0 2 0;
#X connect 46 1 9 0;
#X connect 46 2 45 1;
#X connect 50 0 59 0;
#X connect 51 0 59 0;
#X connect 52 0 59 0;
#X connect 53 0 59 0;
#X connect 54 0 59 0;
#X connect 55 0 53 0;
#X connect 55 1 50 0;
#X connect 55 2 51 0;
#X connect 55 3 52 0;
#X connect 55 4 54 0;
#X connect 55 5 57 0;
#X connect 55 6 58 0;
#X connect 55 7 56 0;
#X connect 56 0 59 0;
#X connect 57 0 59 0;
#X connect 58 0 59 0;
#X connect 59 0 2 1;
#X connect 60 0 3 0;
#X connect 61 0 44 1;
#X connect 62 0 44 0;
#X connect 67 0 68 0;
#X connect 68 0 74 0;
#X connect 68 1 73 0;
#X connect 68 2 18 0;
#X connect 68 3 70 0;
#X connect 68 4 69 0;
#X connect 69 0 4 0;
#X connect 69 0 61 0;
#X connect 70 0 17 0;
#X connect 70 0 28 0;
#X connect 71 0 75 0;
#X connect 73 0 60 0;
#X connect 74 0 2 0;
#X connect 75 0 60 0;
#X connect 76 0 8 0;
#X connect 77 0 78 0;
#X connect 78 0 76 0;
#X connect 79 0 80 0;
#X connect 79 1 80 1;
#X connect 80 0 76 1;
#X connect 82 0 10 0;
#X connect 82 1 2 0;
#X connect 82 2 45 1;
#X connect 82 3 76 0;
#X connect 83 0 2 0;
#X connect 83 1 8 1;
#X connect 83 2 45 1;
#X connect 83 3 84 0;
#X connect 84 0 85 0;
#X coords 0 -1 1 1 155 85 2 100 100;
