#N canvas 1716 71 928 663 12;
#X obj 88 48 inlet;
#X text 233 10 ionian \, dorian \, phrygian \, lydian \, mixolydian
\, aeolian \, locrian;
#X text 240 45 convert incoming notes to these scale degrees;
#X text 625 153 main note;
#X obj 506 127 loadbang;
#X obj 514 163 t b b b;
#X msg 476 96 0 \, 1 \, 2 \, 3 \, 4 \, 5 \, 6 \, 7 \, 8 \, 9 \, 10
;
#X floatatom 146 136 5 0 0 0 - - -;
#X text 285 112 base incoming;
#X msg 446 239 40;
#X text 598 32 60 62 64 65 67 69 71 (72) 0 2 4 5 7 9 11 (12);
#X obj 70 216 t f f;
#X obj 138 246 % 7;
#X obj 122 339 array get ionian;
#X msg 157 313 1;
#X obj 124 286 t f b;
#X obj 73 305 * 12;
#X obj 89 382 +;
#X text 105 117 CONVERTTOSCALE;
#X obj 95 415 mtof;
#X text 268 65 expects all incoming notes to be scale degrees from
0 at root;
#X obj 78 334 +;
#X floatatom 104 136 5 0 0 0 - - -;
#X floatatom 19 253 5 0 0 0 - - -;
#X obj 98 247 / 7;
#X obj 533 401 list-abs/list-rot;
#X obj 532 428 cyclone/iter;
#X obj 548 488 + 0;
#X obj 518 489 i 0;
#X msg 643 454 0;
#X msg 536 377 2 2 1 2 2 2 1;
#X obj 627 428 t a b;
#X floatatom 220 135 5 0 0 0 - - -;
#X obj 627 321 i 0;
#X msg 629 226 7;
#X obj 629 291 until;
#X msg 700 276 0;
#X obj 631 260 t f b f;
#X obj 631 347 t b f f;
#X obj 665 321 + 1;
#X obj 548 575 array set ionian;
#X obj 530 452 t b f b;
#X obj 594 488 i 0;
#X obj 625 488 + 1;
#X obj 717 399 route 0 1 2 3 4 5 6;
#X msg 705 438 ionian;
#X msg 767 438 dorian;
#X msg 703 463 phrygian;
#X msg 775 463 lydian;
#X msg 701 493 mixolydian;
#X msg 790 491 aeolian;
#X msg 806 524 locrian;
#X obj 712 567 symbol;
#X obj 185 112 hradio 8 1 0 7 empty empty io_do_phr_lyd_mix_aeo_loc
-50 -6 0 8 -262144 -1 -1 0;
#X text 217 116 shift;
#X text 184 138 base;
#X obj 55 472 route 0 1 2 3 4 5 6;
#X msg 43 511 ionian;
#X msg 105 511 dorian;
#X msg 41 536 phrygian;
#X msg 113 536 lydian;
#X msg 39 566 mixolydian;
#X msg 128 564 aeolian;
#X msg 144 597 locrian;
#X obj 54 608 symbol;
#X floatatom 144 373 5 0 0 0 - - -;
#X obj 72 275 int;
#X obj 379 304 list \$0;
#X msg 334 374 \$1-\$2;
#X obj 351 268 t s b;
#X obj 338 343 pack s f;
#X obj 202 456 array define ionian-\$0 7;
#X obj 202 480 array define dorian-\$0 7;
#X obj 202 504 array define phrygian-\$0 7;
#X obj 202 528 array define lydian-\$0 7;
#X obj 202 552 array define mixolydian-\$0 7;
#X obj 202 576 array define aeolian-\$0 7;
#X obj 202 600 array define locrian-\$0 7;
#X obj 491 316 list \$0;
#X msg 446 386 \$1-\$2;
#X obj 463 280 t s b;
#X obj 450 355 pack s f;
#X obj 585 141 bng 15 250 50 0 empty empty empty 17 7 0 10 -262144
-1 -1;
#X obj 290 409 symbol;
#X obj 398 411 symbol;
#X msg 430 188 0;
#X obj 108 110 bng 8 250 50 0 empty empty reset 10 4 0 8 -262144 -1
-1;
#X obj 58 441 outlet freq;
#X obj 161 435 outlet midi;
#X text 225 152 note;
#X text 100 152 freq;
#X obj 70 180 +;
#X connect 0 0 22 0;
#X connect 4 0 5 0;
#X connect 5 1 85 0;
#X connect 5 2 9 0;
#X connect 5 2 34 0;
#X connect 7 0 21 1;
#X connect 9 0 7 0;
#X connect 11 0 24 0;
#X connect 11 1 12 0;
#X connect 12 0 15 0;
#X connect 13 0 17 1;
#X connect 13 0 65 0;
#X connect 14 0 13 1;
#X connect 15 0 13 0;
#X connect 15 1 14 0;
#X connect 16 0 21 0;
#X connect 17 0 19 0;
#X connect 17 0 88 0;
#X connect 19 0 87 0;
#X connect 21 0 17 0;
#X connect 22 0 91 0;
#X connect 24 0 23 0;
#X connect 24 0 66 0;
#X connect 25 0 31 0;
#X connect 26 0 41 0;
#X connect 27 0 28 1;
#X connect 28 0 27 0;
#X connect 28 0 40 0;
#X connect 29 0 28 1;
#X connect 29 0 27 1;
#X connect 29 0 42 1;
#X connect 30 0 25 0;
#X connect 31 0 26 0;
#X connect 31 1 29 0;
#X connect 32 0 91 1;
#X connect 33 0 38 0;
#X connect 33 0 39 0;
#X connect 34 0 37 0;
#X connect 35 0 33 0;
#X connect 36 0 33 1;
#X connect 37 0 35 0;
#X connect 37 1 36 0;
#X connect 38 0 30 0;
#X connect 38 1 25 1;
#X connect 38 2 44 0;
#X connect 39 0 33 1;
#X connect 41 0 28 0;
#X connect 41 1 27 1;
#X connect 41 2 42 0;
#X connect 42 0 43 0;
#X connect 42 0 40 1;
#X connect 43 0 42 1;
#X connect 44 0 45 0;
#X connect 44 1 46 0;
#X connect 44 2 47 0;
#X connect 44 3 48 0;
#X connect 44 4 49 0;
#X connect 44 5 50 0;
#X connect 44 6 51 0;
#X connect 45 0 52 0;
#X connect 46 0 52 0;
#X connect 47 0 52 0;
#X connect 48 0 52 0;
#X connect 49 0 52 0;
#X connect 50 0 52 0;
#X connect 51 0 52 0;
#X connect 52 0 80 0;
#X connect 53 0 56 0;
#X connect 56 0 57 0;
#X connect 56 1 58 0;
#X connect 56 2 59 0;
#X connect 56 3 60 0;
#X connect 56 4 61 0;
#X connect 56 5 62 0;
#X connect 56 6 63 0;
#X connect 57 0 64 0;
#X connect 58 0 64 0;
#X connect 59 0 64 0;
#X connect 60 0 64 0;
#X connect 61 0 64 0;
#X connect 62 0 64 0;
#X connect 63 0 64 0;
#X connect 64 0 69 0;
#X connect 66 0 16 0;
#X connect 67 0 70 1;
#X connect 68 0 83 0;
#X connect 69 0 70 0;
#X connect 69 1 67 0;
#X connect 70 0 68 0;
#X connect 78 0 81 1;
#X connect 79 0 84 0;
#X connect 80 0 81 0;
#X connect 80 1 78 0;
#X connect 81 0 79 0;
#X connect 82 0 5 0;
#X connect 83 0 13 2;
#X connect 84 0 40 2;
#X connect 85 0 53 0;
#X connect 85 0 32 0;
#X connect 86 0 5 0;
#X connect 91 0 11 0;
#X coords 0 -1 1 1 160 70 2 100 100;
