#N canvas 1607 89 1043 562 12;
#X obj 156 20 inlet cmd;
#X obj 157 52 t a a;
#X obj 206 79 list length;
#X obj 214 109 == 4;
#X obj 154 133 spigot;
#X obj 149 433 route prg;
#X obj 138 341 symbol;
#X msg 241 457 \$1 set \$2;
#X obj 131 305 t b s;
#X obj 133 374 pack s s f;
#X obj 147 406 list trim;
#X obj 148 464 list;
#X text 272 139 t1 update prg 1;
#X obj 130 168 unpack s s s f;
#X obj 172 515 outlet;
#X obj 157 210 select update;
#X msg 346 79 t1 x prg 1;
#X msg 336 110 t1 update prg 1;
#X msg 214 240 1;
#X msg 248 239 0;
#X obj 121 269 spigot;
#X obj 259 509 print >>>;
#X connect 0 0 1 0;
#X connect 1 0 4 0;
#X connect 1 1 2 0;
#X connect 2 0 3 0;
#X connect 3 0 4 1;
#X connect 4 0 13 0;
#X connect 5 0 11 0;
#X connect 6 0 9 0;
#X connect 7 0 14 0;
#X connect 8 0 6 0;
#X connect 8 1 9 1;
#X connect 9 0 10 0;
#X connect 10 0 5 0;
#X connect 11 0 7 0;
#X connect 13 0 20 0;
#X connect 13 1 15 0;
#X connect 13 2 6 1;
#X connect 13 3 9 2;
#X connect 15 0 18 0;
#X connect 15 1 19 0;
#X connect 16 0 13 0;
#X connect 17 0 13 0;
#X connect 18 0 20 1;
#X connect 19 0 20 1;
#X connect 20 0 8 0;
