#N canvas 1910 180 450 300 12;
#X obj 100 100 tgl 8 0 empty empty empty 17 7 0 10 -262144 -262144
-262144 0 1;
#X obj 210 192 route 0 1;
#X msg 180 244 color 0 0 0;
#X msg 289 248 color 2 2 6;
#X obj 154 43 inlet;
#X obj 60 197 outlet;
#X obj 201 76 route set;
#X connect 0 0 1 0;
#X connect 0 0 5 0;
#X connect 1 0 2 0;
#X connect 1 1 3 0;
#X connect 2 0 0 0;
#X connect 3 0 0 0;
#X connect 4 0 0 0;
#X connect 4 0 6 0;
#X connect 6 0 1 0;
#X coords 0 -1 1 1 8 8 2 100 100;
