#N canvas 1458 66 1263 697 12;
#X obj 67 53 euclideanseq;
#X obj 13 437 wetdryinout~;
#X obj 96 299 *~;
#X obj 218 206 tgl 15 0 empty empty empty 17 7 0 10 -262144 -1 -1 0
1;
#X obj 96 661 dac~;
#X obj 60 557 clippy~;
#X obj 384 45 euclideanseq;
#X obj 496 337 line 100;
#X msg 494 312 \$1 60;
#X obj 584 237 tgl 15 0 empty empty empty 17 7 0 10 -262144 -1 -1 0
1;
#X obj 580 268 route 0 1;
#X obj 497 286 pack f f;
#X obj 496 263 + 10;
#X obj 137 349 freeverb/freeverb~;
#X msg 299 263 roomsize \$1;
#X obj 299 241 hsl 128 15 0 1.4 0 0 empty empty empty -2 -8 0 10 -262144
-1 -1 0 0;
#X floatatom 396 264 5 0 0 0 - - -;
#X obj 303 288 hsl 128 15 0 1.4 0 0 empty empty empty -2 -8 0 10 -262144
-1 -1 0 0;
#X floatatom 383 306 5 0 0 0 - - -;
#X msg 299 307 damping \$1;
#X obj 54 233 else/bl.square~ 220;
#X obj 463 239 random 11650;
#X obj 719 273 bng 15 250 50 0 empty empty empty 17 7 0 10 -262144
-1 -1;
#X obj 679 246 bng 15 250 50 0 empty empty empty 17 7 0 10 -262144
-1 -1;
#X msg 306 11 init;
#X obj 368 533 converttoscale;
#X floatatom 360 624 10 0 0 0 - - -;
#X obj 711 395 *~;
#X obj 743 320 tgl 15 0 empty empty empty 17 7 0 10 -262144 -1 -1 0
1;
#X obj 1056 657 line 100;
#X msg 1054 632 \$1 60;
#X obj 1144 557 tgl 15 0 empty empty empty 17 7 0 10 -262144 -1 -1
0 1;
#X obj 1140 588 route 0 1;
#X obj 1057 606 pack f f;
#X obj 1056 583 + 10;
#X obj 1023 559 random 11650;
#X obj 750 463 converttoscale;
#X msg 583 301 20;
#X msg 626 303 53;
#X obj 181 269 else/tri~ 220;
#X obj 715 354 else/bl.sine~ 220;
#X obj 32 310 r~ xx;
#X obj 255 216 r~ xr;
#X obj 106 383 tanh~;
#X obj 879 342 16stepseq;
#X msg 208 467 1;
#X obj 330 424 16stepseq;
#X msg 616 423 init;
#X msg 954 266 init;
#X obj 167 664 else/envgen~ 0 120 1 430 0;
#X obj 901 648 noteout;
#X msg 1034 450 64;
#X obj 996 485 makenote;
#X floatatom 1081 460 5 0 0 0 - - -;
#X obj 600 588 converttoscale;
#X obj 553 461 16stepseq;
#X msg 214 494 0;
#X obj 1213 460 loadbang;
#X obj 987 637 mtof;
#X msg 1143 621 20;
#X msg 1186 623 30;
#X msg 590 329 20;
#X msg 647 332 10;
#X msg 1150 648 20;
#X msg 1207 652 40;
#X connect 0 0 55 0;
#X connect 0 0 46 0;
#X connect 0 3 6 0;
#X connect 1 2 5 0;
#X connect 1 5 5 1;
#X connect 2 0 13 0;
#X connect 2 0 13 1;
#X connect 2 0 1 0;
#X connect 2 0 1 2;
#X connect 3 0 49 0;
#X connect 5 0 4 0;
#X connect 5 1 4 1;
#X connect 6 0 31 0;
#X connect 6 0 44 0;
#X connect 6 1 9 0;
#X connect 6 1 21 0;
#X connect 7 0 36 0;
#X connect 8 0 7 0;
#X connect 9 0 10 0;
#X connect 10 0 37 0;
#X connect 10 0 23 0;
#X connect 10 1 38 0;
#X connect 10 1 22 0;
#X connect 11 0 8 0;
#X connect 12 0 11 0;
#X connect 13 0 43 0;
#X connect 13 1 43 1;
#X connect 14 0 13 0;
#X connect 15 0 14 0;
#X connect 15 0 16 0;
#X connect 17 0 19 0;
#X connect 17 0 18 0;
#X connect 19 0 13 0;
#X connect 20 0 2 0;
#X connect 21 0 12 0;
#X connect 24 0 0 1;
#X connect 25 0 20 0;
#X connect 25 0 26 0;
#X connect 25 0 39 0;
#X connect 25 1 53 0;
#X connect 27 0 2 0;
#X connect 28 0 27 1;
#X connect 29 0 54 0;
#X connect 30 0 29 0;
#X connect 31 0 32 0;
#X connect 32 0 59 0;
#X connect 32 1 60 0;
#X connect 33 0 30 0;
#X connect 34 0 33 0;
#X connect 35 0 34 0;
#X connect 36 1 52 0;
#X connect 37 0 11 1;
#X connect 37 0 61 0;
#X connect 38 0 11 1;
#X connect 38 0 62 0;
#X connect 39 0 2 0;
#X connect 40 0 27 0;
#X connect 41 0 13 0;
#X connect 41 0 2 0;
#X connect 42 0 13 1;
#X connect 42 0 2 0;
#X connect 43 0 1 1;
#X connect 43 1 1 3;
#X connect 44 0 36 0;
#X connect 45 0 2 1;
#X connect 46 0 25 0;
#X connect 47 0 46 1;
#X connect 48 0 44 1;
#X connect 51 0 52 1;
#X connect 52 0 50 0;
#X connect 52 1 50 1;
#X connect 53 0 52 2;
#X connect 54 1 52 0;
#X connect 55 0 54 0;
#X connect 56 0 2 1;
#X connect 57 0 51 0;
#X connect 59 0 33 1;
#X connect 59 0 63 0;
#X connect 60 0 33 1;
#X connect 60 0 64 0;
#X connect 61 0 21 1;
#X connect 62 0 21 1;
#X connect 63 0 35 1;
#X connect 64 0 35 1;
