#N canvas 1371 73 1350 690 12;
#N canvas 5 90 450 250 (subpatch) 0;
#X array beats-\$0 26 float 3;
#A 0 1 -1 1 -1 1 -1 1 -1 1 -1 1 -1 1 1 -1 1 -1 1 -1 1 -1 1 -1 1 -1
1;
#X coords 0 1.5 26 -1.5 50 40 2 0 0;
#X restore 107 142 graph;
#X obj 173 170 hsl 40 8 1 64 1 0 empty empty empty -2 -8 0 10 -262144
-1 -1 3055 0;
#X obj 226 170 hsl 40 8 1 64 1 0 empty empty empty -2 -8 0 10 -262144
-1 -1 2475 0;
#X text 168 197 beats;
#X obj 471 348 i;
#X obj 473 315 until;
#X msg 528 321 0;
#X obj 509 346 + 1;
#X obj 472 408 * 1;
#X obj 476 432 %;
#X obj 506 578 f;
#X obj 472 510 route 0 1;
#X obj 473 482 <= 0;
#X obj 489 547 t b b;
#X obj 475 457 t f f f;
#X obj 440 548 t b b;
#X msg 472 578 1;
#X floatatom 223 181 5 1 64 0 - - -;
#X obj 502 190 int;
#X floatatom 172 181 5 0 0 0 - - -;
#X obj 538 210 int;
#X obj 282 170 hsl 30 8 0 10 0 0 empty empty empty -2 -8 0 10 -262144
-1 -1 0 0;
#X obj 674 205 int;
#X text 275 197 rotate;
#X obj 585 510 %;
#X floatatom 279 181 5 0 0 0 - - -;
#X obj 473 375 t f f;
#X obj 510 286 t f b f f;
#X obj 631 120 t b f;
#X text 114 109 EUCLIDEANSEQ;
#X obj 170 140 hradio 8 1 0 5 empty empty 3_4_5_7_8 2 -6 0 7 -262144
-1 -1 4;
#X obj 224 140 hradio 8 1 0 5 empty empty 4_5_7_8_9 2 -6 0 7 -262144
-1 -1 0;
#X obj 569 115 min 1;
#X obj 565 186 max 1;
#X obj 567 156 t b f f;
#X obj 170 159 hradio 8 1 0 4 empty empty 9_12_16_32 -2 -6 0 7 -262144
-1 -1 0;
#X obj 224 159 hradio 8 1 0 5 empty empty 12_16_17_19_32 -4 -6 0 7
-262144 -1 -1 0;
#X msg 105 258 3;
#X msg 144 258 4;
#X msg 174 257 5;
#X msg 214 257 7;
#X obj 113 230 route 0 1 2 3 4;
#X msg 255 257 8;
#X msg 114 317 9;
#X msg 145 317 12;
#X msg 175 316 16;
#X msg 215 316 32;
#X obj 114 289 route 0 1 2 3;
#X obj 43 334 1port;
#X text 219 197 pulses;
#X obj 112 346 route 0 1 2 3 4;
#X msg 112 374 4;
#X msg 143 374 5;
#X msg 173 373 7;
#X msg 213 373 8;
#X msg 254 373 9;
#X obj 47 400 1port;
#X obj 115 409 route 0 1 2 3 4;
#X obj 50 463 1port;
#X msg 115 437 12;
#X msg 146 437 16;
#X msg 176 436 17;
#X msg 216 436 19;
#X msg 257 436 32;
#X obj 41 268 1port;
#X obj 849 102 metro 1 120 permin;
#X floatatom 282 138 5 0 20000 1 bpm - -;
#X msg 822 72 tempo \$1 permin;
#X obj 312 217 bng 8 250 50 0 empty empty clk -16 4 0 8 -262144 -1
-1;
#X obj 836 201 + 1;
#X obj 735 234 bng 15 250 50 0 empty empty empty 17 7 0 10 -262144
-1 -1;
#X obj 836 394 t f f;
#X obj 996 57 loadbang;
#X text 609 188 size;
#X obj 800 276 t f f;
#X obj 804 199 i 0;
#X obj 809 518 route 0 1;
#X obj 53 711 outlet;
#X obj 105 217 bng 8 250 50 0 empty empty on 12 4 0 8 -262144 -1 -1
;
#X msg 1030 116 4;
#X msg 1066 109 0;
#X obj 930 334 print cnt;
#X obj 913 370 print retrieve;
#X obj 681 339 - 1;
#X obj 804 226 %;
#X obj 801 250 t f f f;
#X msg 931 481 beat;
#X obj 951 509 pack s f;
#X obj 954 544 print OUT;
#X msg 914 522 0;
#X obj 853 494 < 0;
#X obj 781 454 f;
#X msg 436 577 -1;
#X text 104 152 -------;
#X obj 872 258 ==;
#X obj 903 284 route 1;
#X msg 935 308 0;
#X obj 350 143 hradio 8 1 0 4 empty empty 0_1_X_B 0 -5 0 8 -262144
-1 -1 1;
#X msg 447 43 0;
#X msg 483 43 1;
#X msg 519 44 0;
#X obj 700 102 spigot;
#X msg 492 95 0;
#X msg 526 90 1;
#X obj 450 20 route 0 1 2 3;
#X obj 579 29 t f f;
#X msg 653 32 1;
#X msg 604 55 1;
#X obj 734 173 spigot 1;
#X obj 999 11 inlet cmd;
#X msg 1006 136 120;
#X text 102 100 b;
#X text 376 102 c;
#X obj 1104 90 bng 15 250 50 0 empty empty empty 17 7 0 10 -262144
-1 -1;
#X obj 168 58 change;
#X obj 218 58 change;
#X obj 1043 270 s copyBtoBB-\$0;
#X obj 1050 295 r copyBtoBB-\$0;
#X obj 1042 355 array get beats-\$0;
#X obj 1033 379 array set backbeats-\$0;
#X msg 1041 325 0;
#X obj 1184 443 array size beats-\$0;
#X obj 1186 416 bng 15 250 50 0 empty empty empty 17 7 0 10 -262144
-1 -1;
#X obj 1185 516 array get backbeats-\$0;
#X obj 1184 469 t b f;
#X msg 1185 493 0;
#X obj 1185 546 array set beats-\$0;
#X obj 1081 214 s copyBBtoB-\$0;
#X obj 1210 315 r copyBBtoB-\$0;
#X obj 110 185 hsl 50 8 1 64 0 0 empty empty empty -2 -8 0 10 -262144
-1 -1 1944 0;
#X floatatom 121 196 5 1 64 0 - - -;
#X obj 1190 214 array size beats-\$0;
#X obj 1164 131 max 1;
#X obj 1184 108 int;
#X obj 1218 398 t f f;
#X text 1688 50 SPACE;
#X obj 1043 423 s copyBBtoB-\$0;
#X obj 681 316 i;
#X text 583 280 size of read;
#X obj 1224 182 s copyBtoBB-\$0;
#X obj 859 451 tabread beats-\$0;
#X obj 1138 159 t f b f b;
#X obj 991 209 t f f;
#X obj 965 244 - 1;
#X obj 484 241 t f f f f b f;
#X floatatom 635 545 5 0 0 0 - - -;
#X obj 1232 149 change;
#X obj 438 609 tabwrite beats-\$0;
#X floatatom 400 293 5 0 0 0 - - -;
#N canvas 0 50 450 250 (subpatch) 0;
#X array backbeats-\$0 64 float 3;
#A 0 1 -1 1 -1 1 -1 1 -1 1 -1 1 -1 1 1 -1 1 -1 1 -1 1 -1 1 -1 1 -1
1 1 -1 1 -1 -1 -1 -1 -1 -1 -1 -1 -1 -1 0.6 -1 -1 -1 -1 -1 -1 0.9 -1
-1 -1 -1 1.125 1.125 1.2 1.2 1.2 0 -0.825 0 0 0 0 0 0;
#X coords 0 1.5 64 -1.5 120 80 1 0 0;
#X restore 1212 31 graph;
#X floatatom 423 244 5 0 0 0 - - -;
#X obj 311 302 change;
#X obj 633 380 t b f;
#X obj 628 441 list-abs/list-rot;
#X obj 615 412 array get beats-\$0;
#X obj 625 472 array set beats-\$0;
#X obj 167 217 bng 8 250 50 0 empty empty diff 12 4 0 8 -262144 -1
-1;
#X obj 736 207 t b b b;
#X obj 329 569 change;
#X obj 795 547 t b b b;
#X msg 848 577 1;
#X msg 890 579 -1;
#X obj 317 711 outlet bang;
#X obj 119 713 outlet diff;
#X obj 350 187 hradio 8 1 0 4 empty empty 0.5_1_3_4 -2 -4 0 6 -262144
-1 -1 2;
#X obj 708 15 route 0 1 2 3;
#X msg 1103 125 1;
#X msg 816 15 0.5;
#X msg 861 16 1;
#X msg 895 12 3;
#X msg 933 13 4;
#X msg 907 42 1 \$1;
#X obj 955 60 /;
#X msg 977 113 0;
#X obj 260 116 tgl 8 0 empty empty kb 12 4 0 8 -262144 -1 -1 0 1;
#X text 141 515 winsize/(8/bpm);
#X obj 136 566 *;
#X obj 136 591 / 8;
#X obj 134 654 f;
#X msg 213 652 tempo \$1 permin;
#X obj 18 542 route 0 1;
#X obj 135 539 else/hot;
#X obj 27 610 bng 15 250 50 0 empty empty empty 17 7 0 10 -262144 -1
-1;
#X msg 209 572 set 0;
#X floatatom 233 109 5 0 0 0 - - -;
#X obj 129 615 t b f;
#X obj 57 640 spigot;
#X obj 4 491 t f f;
#X msg 278 6 0;
#X msg 333 3 1;
#X obj 675 701 spigot;
#X obj 351 155 tgl 8 0 empty empty sync 10 2 0 8 -262144 -1 -1 0 1
;
#X obj 698 639 route 0 1;
#X obj 722 663 t b b;
#X msg 733 702 1;
#X msg 685 662 0;
#X msg 734 754 0;
#X obj 676 728 t b b b;
#X obj 283 116 hradio 8 1 0 9 empty empty 32_16_8_4_O8_O4_t16_t8_t4
-6 -5 0 6 -262144 -1 -1 3;
#X msg 938 682 1.5;
#X msg 891 680 0.75;
#X msg 842 652 0.25;
#X msg 820 677 0.5;
#X msg 857 677 1;
#X msg 793 652 0.125;
#X msg 1017 652 0.666;
#X msg 917 652 0.166;
#X msg 969 653 0.333;
#X obj 820 621 sel 0 1 2 3 4 5 6 7 8;
#X obj 565 721 timer;
#X obj 574 679 tgl 15 0 empty empty empty 17 7 0 10 -262144 -1 -1 0
1;
#X obj 564 696 route 0 1;
#X obj 626 665 t b b;
#X obj 784 478 t f f;
#X obj 209 712 outlet noteval;
#X text 228 210 val;
#X obj 1000 81 t b b b b b b;
#X msg 1141 81 3;
#X obj 407 712 outlet cmd;
#X text 375 210 c;
#X obj 757 102 spigot 1;
#X obj 404 68 t f f f;
#X obj 464 68 t f f f;
#X obj 1030 29 route init tempo beats pulses;
#X obj 279 33 metro 1 120 permin;
#X obj 899 751 1port;
#X obj 399 647 expr 1 /( $f1 /(1000 * 60 ));
#X msg 399 669 tempo \$1 permin;
#X obj 137 29 inlet clock;
#X obj 56 29 inlet bang;
#X obj 527 69 t f f f b;
#X obj 897 193 spigot 1;
#X obj 350 168 tgl 8 0 empty empty allowb 10 4 0 6 -262144 -1 -1 0
1;
#X text 206 101 clk;
#X connect 1 0 33 0;
#X connect 2 0 32 0;
#X connect 4 0 7 0;
#X connect 4 0 26 0;
#X connect 5 0 4 0;
#X connect 6 0 4 1;
#X connect 7 0 4 1;
#X connect 8 0 9 0;
#X connect 9 0 14 0;
#X connect 10 0 12 1;
#X connect 11 0 15 0;
#X connect 11 1 13 0;
#X connect 12 0 11 0;
#X connect 13 0 16 0;
#X connect 13 1 10 0;
#X connect 14 0 12 0;
#X connect 14 2 10 1;
#X connect 15 0 92 0;
#X connect 15 1 10 0;
#X connect 16 0 147 0;
#X connect 17 0 115 0;
#X connect 18 0 8 1;
#X connect 18 0 17 0;
#X connect 18 0 150 0;
#X connect 19 0 114 0;
#X connect 20 0 19 0;
#X connect 20 0 144 0;
#X connect 21 0 28 0;
#X connect 22 0 25 0;
#X connect 22 0 152 0;
#X connect 24 0 145 0;
#X connect 24 0 147 1;
#X connect 25 0 151 0;
#X connect 26 0 8 0;
#X connect 26 1 24 0;
#X connect 27 0 5 0;
#X connect 27 0 148 0;
#X connect 27 1 6 0;
#X connect 27 2 9 1;
#X connect 27 3 24 1;
#X connect 28 1 22 0;
#X connect 30 0 41 0;
#X connect 31 0 50 0;
#X connect 32 0 34 0;
#X connect 33 0 20 0;
#X connect 34 0 1 0;
#X connect 34 1 18 0;
#X connect 34 2 33 1;
#X connect 35 0 47 0;
#X connect 36 0 57 0;
#X connect 37 0 64 0;
#X connect 38 0 64 0;
#X connect 39 0 64 0;
#X connect 40 0 64 0;
#X connect 41 0 37 0;
#X connect 41 1 38 0;
#X connect 41 2 39 0;
#X connect 41 3 40 0;
#X connect 41 4 42 0;
#X connect 42 0 64 0;
#X connect 43 0 48 0;
#X connect 44 0 48 0;
#X connect 45 0 48 0;
#X connect 46 0 48 0;
#X connect 47 0 43 0;
#X connect 47 1 44 0;
#X connect 47 2 45 0;
#X connect 47 3 46 0;
#X connect 48 0 64 0;
#X connect 50 0 51 0;
#X connect 50 1 52 0;
#X connect 50 2 53 0;
#X connect 50 3 54 0;
#X connect 50 4 55 0;
#X connect 51 0 56 0;
#X connect 52 0 56 0;
#X connect 53 0 56 0;
#X connect 54 0 56 0;
#X connect 55 0 56 0;
#X connect 56 0 2 0;
#X connect 57 0 59 0;
#X connect 57 1 60 0;
#X connect 57 2 61 0;
#X connect 57 3 62 0;
#X connect 57 4 63 0;
#X connect 58 0 56 0;
#X connect 59 0 58 0;
#X connect 60 0 58 0;
#X connect 61 0 58 0;
#X connect 62 0 58 0;
#X connect 63 0 58 0;
#X connect 64 0 1 0;
#X connect 65 0 220 0;
#X connect 66 0 67 0;
#X connect 66 0 181 1;
#X connect 67 0 65 0;
#X connect 68 0 162 0;
#X connect 69 0 75 1;
#X connect 70 0 75 0;
#X connect 71 0 140 0;
#X connect 71 1 87 1;
#X connect 72 0 216 0;
#X connect 74 0 71 0;
#X connect 75 0 69 0;
#X connect 75 0 84 0;
#X connect 76 0 159 0;
#X connect 76 1 161 0;
#X connect 78 0 77 0;
#X connect 79 0 30 0;
#X connect 80 0 21 0;
#X connect 80 0 97 0;
#X connect 80 0 232 0;
#X connect 83 0 94 1;
#X connect 84 0 85 0;
#X connect 85 0 74 0;
#X connect 85 2 94 0;
#X connect 86 0 87 0;
#X connect 89 0 90 1;
#X connect 90 0 76 0;
#X connect 91 0 213 0;
#X connect 92 0 147 0;
#X connect 94 0 95 0;
#X connect 95 0 96 0;
#X connect 96 0 75 1;
#X connect 97 0 104 0;
#X connect 98 0 221 0;
#X connect 99 0 222 0;
#X connect 100 0 230 0;
#X connect 101 0 108 0;
#X connect 102 0 101 1;
#X connect 103 0 101 1;
#X connect 104 0 98 0;
#X connect 104 1 99 0;
#X connect 104 2 100 0;
#X connect 104 3 105 0;
#X connect 105 0 107 0;
#X connect 105 1 106 0;
#X connect 106 0 65 0;
#X connect 106 0 220 1;
#X connect 107 0 101 1;
#X connect 108 0 157 0;
#X connect 109 0 223 0;
#X connect 110 0 66 0;
#X connect 113 0 216 0;
#X connect 114 0 1 0;
#X connect 115 0 2 0;
#X connect 117 0 120 0;
#X connect 118 0 119 0;
#X connect 120 0 118 0;
#X connect 121 0 124 0;
#X connect 122 0 121 0;
#X connect 123 0 126 0;
#X connect 124 0 125 0;
#X connect 124 1 123 1;
#X connect 125 0 123 0;
#X connect 128 0 134 0;
#X connect 129 0 133 0;
#X connect 130 0 146 0;
#X connect 130 0 181 0;
#X connect 132 0 141 0;
#X connect 133 0 130 0;
#X connect 133 0 132 0;
#X connect 133 0 137 1;
#X connect 134 0 122 0;
#X connect 137 0 83 0;
#X connect 137 0 84 1;
#X connect 140 0 91 0;
#X connect 141 0 142 0;
#X connect 141 1 127 0;
#X connect 141 2 131 0;
#X connect 141 3 139 0;
#X connect 142 0 84 1;
#X connect 142 1 143 0;
#X connect 143 0 94 1;
#X connect 144 0 129 0;
#X connect 144 1 27 0;
#X connect 144 2 32 1;
#X connect 144 4 137 0;
#X connect 146 0 129 0;
#X connect 151 0 21 0;
#X connect 152 0 154 0;
#X connect 152 1 153 1;
#X connect 153 0 155 0;
#X connect 154 0 153 0;
#X connect 156 0 163 0;
#X connect 157 0 68 0;
#X connect 157 2 75 0;
#X connect 158 0 156 0;
#X connect 159 0 78 0;
#X connect 159 1 86 0;
#X connect 159 2 160 0;
#X connect 160 0 158 0;
#X connect 161 0 158 0;
#X connect 164 0 165 0;
#X connect 165 0 167 0;
#X connect 165 1 168 0;
#X connect 165 2 169 0;
#X connect 165 3 170 0;
#X connect 166 0 164 0;
#X connect 166 0 224 0;
#X connect 167 0 171 0;
#X connect 168 0 171 0;
#X connect 169 0 171 0;
#X connect 170 0 171 0;
#X connect 171 0 172 0;
#X connect 172 0 65 1;
#X connect 173 0 31 0;
#X connect 173 0 183 0;
#X connect 174 0 187 0;
#X connect 176 0 177 0;
#X connect 177 0 185 0;
#X connect 178 0 179 0;
#X connect 178 0 184 0;
#X connect 179 0 65 0;
#X connect 180 0 182 0;
#X connect 180 1 178 0;
#X connect 181 0 176 0;
#X connect 181 1 176 1;
#X connect 182 0 66 0;
#X connect 183 0 174 0;
#X connect 185 0 186 0;
#X connect 185 1 178 1;
#X connect 186 0 178 0;
#X connect 187 0 180 0;
#X connect 187 1 186 1;
#X connect 188 0 224 0;
#X connect 189 0 224 0;
#X connect 190 0 197 0;
#X connect 191 0 192 0;
#X connect 192 0 195 0;
#X connect 192 1 193 0;
#X connect 193 0 194 0;
#X connect 194 0 190 1;
#X connect 195 0 190 1;
#X connect 196 0 191 0;
#X connect 197 0 224 0;
#X connect 197 1 65 0;
#X connect 197 2 196 0;
#X connect 198 0 208 0;
#X connect 199 0 225 0;
#X connect 200 0 225 0;
#X connect 201 0 225 0;
#X connect 202 0 225 0;
#X connect 203 0 225 0;
#X connect 204 0 225 0;
#X connect 205 0 225 0;
#X connect 206 0 225 0;
#X connect 207 0 225 0;
#X connect 208 0 204 0;
#X connect 208 1 201 0;
#X connect 208 2 202 0;
#X connect 208 3 203 0;
#X connect 208 4 200 0;
#X connect 208 5 199 0;
#X connect 208 6 206 0;
#X connect 208 7 207 0;
#X connect 208 8 205 0;
#X connect 209 0 226 0;
#X connect 210 0 211 0;
#X connect 211 0 209 0;
#X connect 211 1 209 1;
#X connect 212 0 210 0;
#X connect 212 1 190 0;
#X connect 213 0 214 0;
#X connect 213 1 90 0;
#X connect 216 0 173 0;
#X connect 216 1 110 0;
#X connect 216 2 79 0;
#X connect 216 3 80 0;
#X connect 216 4 166 0;
#X connect 216 5 217 0;
#X connect 217 0 198 0;
#X connect 220 0 108 0;
#X connect 221 0 65 0;
#X connect 221 1 101 1;
#X connect 221 2 220 1;
#X connect 222 0 65 0;
#X connect 222 1 102 0;
#X connect 222 2 220 1;
#X connect 223 0 113 0;
#X connect 223 1 67 0;
#X connect 223 2 19 0;
#X connect 223 3 17 0;
#X connect 224 0 101 0;
#X connect 225 0 224 1;
#X connect 226 0 227 0;
#X connect 227 0 224 0;
#X connect 228 0 212 0;
#X connect 229 0 231 0;
#X connect 230 0 103 0;
#X connect 230 1 65 0;
#X connect 230 2 220 1;
#X connect 230 3 224 0;
#X connect 231 0 108 0;
#X connect 232 0 231 1;
#X coords 0 -1 1 1 290 130 2 100 100;
