#N canvas 1871 280 449 394 12;
#X obj 110 143 f;
#X obj 75 167 -;
#X obj 75 193 abs;
#X obj 71 245 route 0 1;
#X obj 75 216 > 4;
#X obj 101 292 outlet;
#X obj 83 104 t f f b f;
#X obj 173 148 > 70;
#X obj 163 182 route;
#X msg 157 215 4;
#X msg 201 215 3.6;
#X obj 148 74 env~;
#X obj 77 60 inlet~;
#X connect 0 0 1 1;
#X connect 1 0 2 0;
#X connect 2 0 4 0;
#X connect 3 1 5 0;
#X connect 4 0 3 0;
#X connect 6 0 0 1;
#X connect 6 1 1 0;
#X connect 6 2 0 0;
#X connect 6 3 7 0;
#X connect 7 0 8 0;
#X connect 8 0 9 0;
#X connect 8 1 10 0;
#X connect 9 0 4 1;
#X connect 10 0 4 1;
#X connect 11 0 6 0;
#X connect 12 0 11 0;
