#N canvas 1366 56 1360 712 12;
#X text 118 104 LFO;
#X obj 265 189 else/count 0 359;
#X obj 250 266 sin;
#X obj 310 240 else/pi;
#X obj 254 242 / 180;
#X obj 481 85 loadbang;
#X obj 266 215 * 1;
#X floatatom 337 273 8 0 0 0 - - -;
#X obj 112 394 else/rescale -1 0 -1 0;
#X obj 279 393 else/rescale 0 1 0 1;
#X obj 92 244 t f f;
#X obj 104 295 route 0 1;
#X obj 65 270 < 0;
#X obj 48 331 f;
#X obj 102 331 f;
#X floatatom 106 171 5 0 0 0 - - -;
#X floatatom 147 171 5 0 0 0 - - -;
#X floatatom 188 171 5 0 0 0 - - -;
#X floatatom 105 126 5 0 0 0 - - -;
#X obj 149 148 hsl 40 8 0 1 0 0 empty empty empty -2 -8 0 10 -262144
-1 -1 3700 0;
#X obj 166 159 bng 8 250 50 0 empty empty empty 17 7 0 10 -262144 -1
-1;
#X obj 97 468 outlet;
#X obj 152 37 inlet cmd;
#X text 235 106 c;
#X floatatom 105 148 5 0 0 0 - - -;
#X obj 430 311 else/hot;
#X obj 461 367 -;
#X obj 489 341 t f f;
#X obj 448 429 +;
#X obj 448 404 * 1;
#X msg 443 144 0.5;
#X msg 475 147 0;
#X obj 428 23 route min max tempo;
#X msg 509 148 0;
#X msg 554 146 1;
#X text 102 101 b;
#X obj 58 35 inlet bang;
#X obj 1074 197 metro 1 120 permin;
#X floatatom 146 126 5 0 20000 1 bpm - -;
#X msg 1085 168 tempo \$1 permin;
#X obj 211 137 hradio 8 1 0 4 empty empty 0_1_X_B 0 -5 0 8 -262144
-1 -1 2;
#X msg 790 98 0;
#X msg 826 98 1;
#X msg 862 99 0;
#X obj 821 123 t f f;
#X obj 869 122 t f f;
#X obj 899 225 spigot;
#X obj 777 126 t f f;
#X msg 825 150 0;
#X msg 869 145 1;
#X obj 793 75 route 0 1 2 3;
#X obj 905 99 t f f;
#X msg 954 124 1;
#X msg 917 123 1;
#X obj 901 255 spigot 1;
#X obj 904 282 t b b b;
#X msg 621 61 0;
#X msg 676 58 1;
#X obj 796 420 spigot;
#X obj 212 149 tgl 8 0 empty empty sync 10 2 0 8 -262144 -1 -1 0 1
;
#X obj 818 368 route 0 1;
#X obj 842 392 t b b;
#X msg 854 421 1;
#X msg 805 391 0;
#X msg 855 473 0;
#X obj 797 447 t b b b;
#X obj 152 112 hradio 8 1 0 9 empty empty 32_16_8_4_O8_O4_t16_t8_t4
-6 -5 0 6 -262144 -1 -1 3;
#X msg 1045 396 1.5;
#X msg 1004 396 0.75;
#X msg 961 370 0.25;
#X msg 1002 370 0.5;
#X msg 1036 370 1;
#X msg 914 371 0.125;
#X msg 1111 424 0.666;
#X msg 1011 423 0.166;
#X msg 1061 424 0.333;
#X obj 941 340 sel 0 1 2 3 4 5 6 7 8;
#X obj 1012 496 *;
#X obj 720 442 timer;
#X obj 735 392 tgl 15 0 empty empty empty 17 7 0 10 -262144 -1 -1 1
1;
#X obj 719 417 route 0 1;
#X obj 732 365 t b b;
#X obj 664 93 metro 500;
#X obj 275 469 outlet clock;
#X text 224 181 clk;
#X msg 588 146 120;
#X obj 482 108 t b b b b b b b;
#X msg 633 147 3;
#X msg 626 183 500;
#X connect 1 0 6 0;
#X connect 1 0 18 0;
#X connect 2 0 7 0;
#X connect 2 0 10 0;
#X connect 3 0 6 1;
#X connect 4 0 2 0;
#X connect 5 0 86 0;
#X connect 6 0 4 0;
#X connect 8 0 24 0;
#X connect 9 0 24 0;
#X connect 10 0 12 0;
#X connect 10 1 14 1;
#X connect 10 1 13 1;
#X connect 11 0 13 0;
#X connect 11 1 14 0;
#X connect 12 0 11 0;
#X connect 13 0 9 0;
#X connect 14 0 8 0;
#X connect 15 0 8 3;
#X connect 15 0 25 1;
#X connect 16 0 8 4;
#X connect 16 0 9 3;
#X connect 17 0 9 4;
#X connect 17 0 25 0;
#X connect 19 0 29 0;
#X connect 20 0 30 0;
#X connect 22 0 32 0;
#X connect 24 0 21 0;
#X connect 25 0 26 0;
#X connect 25 1 27 0;
#X connect 26 0 29 1;
#X connect 27 0 26 1;
#X connect 27 1 28 1;
#X connect 28 0 16 0;
#X connect 29 0 28 0;
#X connect 30 0 19 0;
#X connect 32 0 15 0;
#X connect 32 1 17 0;
#X connect 32 2 39 0;
#X connect 33 0 15 0;
#X connect 34 0 17 0;
#X connect 36 0 81 0;
#X connect 37 0 54 0;
#X connect 38 0 39 0;
#X connect 39 0 37 0;
#X connect 40 0 50 0;
#X connect 41 0 47 0;
#X connect 42 0 44 0;
#X connect 43 0 45 0;
#X connect 44 0 37 0;
#X connect 44 1 48 0;
#X connect 45 0 49 0;
#X connect 45 1 37 0;
#X connect 46 0 54 0;
#X connect 47 0 37 0;
#X connect 47 1 46 1;
#X connect 48 0 46 1;
#X connect 49 0 46 1;
#X connect 50 0 41 0;
#X connect 50 1 42 0;
#X connect 50 2 43 0;
#X connect 50 3 51 0;
#X connect 51 0 53 0;
#X connect 51 1 52 0;
#X connect 52 0 37 0;
#X connect 53 0 46 1;
#X connect 54 0 55 0;
#X connect 55 0 1 0;
#X connect 55 1 83 0;
#X connect 56 0 82 0;
#X connect 57 0 82 0;
#X connect 58 0 65 0;
#X connect 59 0 60 0;
#X connect 60 0 63 0;
#X connect 60 1 61 0;
#X connect 61 0 62 0;
#X connect 62 0 58 1;
#X connect 63 0 58 1;
#X connect 64 0 59 0;
#X connect 65 0 82 0;
#X connect 65 1 37 0;
#X connect 65 2 64 0;
#X connect 66 0 76 0;
#X connect 67 0 77 1;
#X connect 68 0 77 1;
#X connect 69 0 77 1;
#X connect 70 0 77 1;
#X connect 71 0 77 1;
#X connect 72 0 77 1;
#X connect 73 0 77 1;
#X connect 74 0 77 1;
#X connect 75 0 77 1;
#X connect 76 0 72 0;
#X connect 76 1 69 0;
#X connect 76 2 70 0;
#X connect 76 3 71 0;
#X connect 76 4 68 0;
#X connect 76 5 67 0;
#X connect 76 6 74 0;
#X connect 76 7 75 0;
#X connect 76 8 73 0;
#X connect 77 0 82 1;
#X connect 78 0 77 0;
#X connect 79 0 80 0;
#X connect 80 0 78 0;
#X connect 80 1 78 1;
#X connect 81 0 79 0;
#X connect 81 1 58 0;
#X connect 82 0 46 0;
#X connect 85 0 38 0;
#X connect 85 0 88 0;
#X connect 86 0 3 0;
#X connect 86 1 30 0;
#X connect 86 2 31 0;
#X connect 86 3 33 0;
#X connect 86 4 34 0;
#X connect 86 5 85 0;
#X connect 86 6 87 0;
#X connect 87 0 66 0;
#X connect 88 0 82 1;
#X coords 0 -1 1 1 150 100 2 100 100;
