#N canvas 2074 416 450 300 12;
#X obj 116 44 inlet start;
#X obj 234 45 inlet end;
#X obj 105 117 -;
#X obj 95 190 route 0 1;
#X obj 170 193 f;
#X obj 105 151 < 0;
#X obj 172 175 bng 15 250 50 0 empty empty empty 17 7 0 10 -262144
-1 -1;
#X obj 155 92 f;
#X obj 136 118 t b f f;
#X obj 88 227 outlet tolimitend;
#X obj 256 125 -;
#X obj 248 173 route 0 1;
#X obj 257 150 < 0;
#X obj 246 226 outlet tolimitstart;
#X obj 318 126 f;
#X obj 248 72 t f f;
#X obj 357 188 bng 15 250 50 0 empty empty empty 17 7 0 10 -262144
-1 -1;
#X connect 0 0 8 0;
#X connect 0 0 10 1;
#X connect 1 0 7 1;
#X connect 1 0 15 0;
#X connect 2 0 5 0;
#X connect 3 1 6 0;
#X connect 4 0 9 0;
#X connect 5 0 3 0;
#X connect 6 0 4 0;
#X connect 7 0 2 0;
#X connect 8 0 7 0;
#X connect 8 1 2 1;
#X connect 8 2 4 1;
#X connect 10 0 12 0;
#X connect 11 1 16 0;
#X connect 12 0 11 0;
#X connect 14 0 13 0;
#X connect 15 0 10 0;
#X connect 15 1 14 1;
#X connect 16 0 14 0;
