#N canvas 1366 56 1360 712 12;
#X obj 171 79 adc~;
#X obj 164 110 wetdryinout~;
#X obj 156 345 wetdryinout~;
#X obj 155 453 clippy~;
#X obj 154 554 else/out~;
#X obj 368 351 8mixertouch~;
#X obj 602 32 8mixertouch~;
#X obj 847 370 8mixertouch~;
#X obj 854 543 8mixertouch~;
#X obj 365 531 8mixertouch~;
#X obj 237 227 delread~ \$0-dR1 37;
#X obj 258 253 delread~ \$0-dR2 51;
#X obj 265 281 delread~ \$0-dR3 170;
#X obj 545 229 delwrite~ \$0-dR2 2300;
#X obj 705 207 delwrite~ \$0-dR3 2300;
#X obj 819 290 delread~ \$0-dL2 51;
#X obj 809 263 delread~ \$0-dL1 37;
#X obj 837 317 delread~ \$0-dL3 170;
#X obj 843 340 delread~ \$0-dL4 213;
#X obj 1063 161 delwrite~ \$0-dL1 2300;
#X obj 1061 186 delwrite~ \$0-dL2 2300;
#X obj 1064 210 delwrite~ \$0-dL3 2300;
#X obj 1057 232 delwrite~ \$0-dL4 2300;
#X obj 705 231 delwrite~ \$0-dR4 2300;
#X obj 1003 261 delread~ \$0-dL1 275;
#X obj 1013 288 delread~ \$0-dL2 293;
#X obj 1032 314 delread~ \$0-dL3 313;
#X obj 1037 338 delread~ \$0-dL4 377;
#X obj 546 206 delwrite~ \$0-dR1 2300;
#X obj 277 304 delread~ \$0-dR4 213;
#X obj 445 257 delread~ \$0-dR1 575;
#X obj 453 280 delread~ \$0-dR2 693;
#X obj 467 303 delread~ \$0-dR3 723;
#X obj 629 543 *~;
#X obj 637 493 hsl 128 15 0 2 0 0 empty empty empty -2 -8 0 10 -262144
-1 -1 12700 0;
#X obj 544 326 delread~ \$0-dR4 973;
#X msg 615 597 L 0.707;
#X connect 0 0 1 0;
#X connect 0 1 1 2;
#X connect 1 0 2 0;
#X connect 1 3 2 2;
#X connect 1 4 6 0;
#X connect 2 2 3 0;
#X connect 2 5 3 1;
#X connect 3 0 4 0;
#X connect 3 1 4 1;
#X connect 5 1 9 0;
#X connect 5 1 6 1;
#X connect 5 2 9 1;
#X connect 5 2 6 2;
#X connect 5 3 9 2;
#X connect 5 3 6 3;
#X connect 5 4 9 3;
#X connect 5 4 6 4;
#X connect 5 5 9 4;
#X connect 5 5 6 5;
#X connect 5 6 9 5;
#X connect 5 6 6 6;
#X connect 5 7 9 6;
#X connect 5 7 6 7;
#X connect 5 8 9 7;
#X connect 5 8 33 0;
#X connect 6 1 28 0;
#X connect 6 2 13 0;
#X connect 6 3 14 0;
#X connect 6 4 23 0;
#X connect 6 5 28 0;
#X connect 6 6 13 0;
#X connect 6 7 14 0;
#X connect 6 8 23 0;
#X connect 7 1 8 0;
#X connect 7 2 8 1;
#X connect 7 3 8 2;
#X connect 7 4 8 3;
#X connect 7 5 8 4;
#X connect 7 6 8 5;
#X connect 7 7 8 6;
#X connect 7 8 8 7;
#X connect 9 9 6 2;
#X connect 10 0 5 0;
#X connect 11 0 5 1;
#X connect 12 0 5 2;
#X connect 15 0 7 1;
#X connect 16 0 7 0;
#X connect 17 0 7 2;
#X connect 18 0 7 3;
#X connect 24 0 7 4;
#X connect 25 0 7 5;
#X connect 26 0 7 6;
#X connect 27 0 7 7;
#X connect 29 0 5 3;
#X connect 30 0 5 4;
#X connect 31 0 5 5;
#X connect 32 0 5 6;
#X connect 33 0 2 3;
#X connect 33 0 2 1;
#X connect 34 0 33 1;
#X connect 35 0 5 7;
#X connect 36 0 9 8;
