#N canvas 1543 214 552 370 12;
#X obj 109 123 hsl 60 8 0 10000 0 1 empty empty empty -2 -8 0 10 -262144
-1 -1 700 0;
#X obj 263 146 sig~;
#X floatatom 103 154 5 0 0 0 - - -;
#X obj 307 145 change;
#X obj 67 37 inlet~;
#X obj 66 253 outlet~ bp;
#X obj 172 257 outlet~ lop;
#X obj 109 143 hsl 60 8 0 600 0 1 empty empty empty -2 -8 0 10 -262144
-1 -1 5 0;
#X floatatom 145 154 5 0 0 0 - - -;
#X obj 445 218 change;
#X text 100 102 MYVCF~;
#X obj 109 133 hsl 60 8 0.05 5 1 1 empty empty empty -2 -8 0 10 -262144
-1 -1 3008 0;
#X obj 209 193 bob~;
#X text 175 103 c;
#X obj 126 37 inlet cmd;
#X obj 402 150 line;
#X msg 401 117 \$1 \$2;
#X obj 401 51 f 1;
#X obj 400 82 pack f f;
#X obj 398 13 t b f;
#X obj 444 48 t b f;
#X obj 238 73 route q qenv f;
#X connect 0 0 2 0;
#X connect 1 0 12 1;
#X connect 2 0 3 0;
#X connect 2 0 1 0;
#X connect 3 0 0 0;
#X connect 4 0 12 0;
#X connect 7 0 8 0;
#X connect 8 0 9 0;
#X connect 8 0 12 2;
#X connect 9 0 7 0;
#X connect 11 0 8 0;
#X connect 12 0 5 0;
#X connect 14 0 21 0;
#X connect 17 0 18 0;
#X connect 18 0 11 0;
#X connect 19 0 17 0;
#X connect 19 1 17 1;
#X connect 20 0 17 0;
#X connect 20 1 18 1;
#X connect 21 0 19 0;
#X connect 21 1 20 0;
#X connect 21 2 0 0;
#X coords 0 -1 1 1 90 78 2 100 100;
