#N canvas 1807 116 568 647 12;
#X obj 135 257 until;
#X msg 179 188 6;
#X obj 177 291 + 1;
#X obj 146 226 t f b;
#X obj 86 19 inlet;
#X obj 25 79 unpack f f f f f f f;
#X obj 343 195 ==;
#X obj 343 220 route 0 1;
#X obj 189 164 t b f;
#X msg 188 260 1;
#X obj 140 290 i 1;
#X obj 191 133 f;
#X obj 225 133 f;
#X obj 266 133 f;
#X obj 301 133 f;
#X obj 345 133 f;
#X msg 405 312 \$1 rec 1;
#X obj 137 324 t f f;
#X msg 281 564 \$1 prg 1;
#X obj 415 281 f;
#X obj 278 533 f;
#X obj 298 268 t b b;
#X obj 272 376 + 1;
#X obj 238 378 i 0;
#X obj 59 392 route 0 1 2 3 4;
#X obj 283 422 f;
#X obj 278 448 == 1;
#X obj 260 473 route 0 1;
#X obj 269 499 t b b;
#X obj 368 602 outlet;
#X msg 17 47 1 1 0 0 1 0 0;
#X obj 465 261 bng 15 250 50 0 empty empty empty 17 7 0 10 -262144
-1 -1;
#X msg 56 261 0;
#X connect 0 0 10 0;
#X connect 1 0 3 0;
#X connect 2 0 10 1;
#X connect 3 0 0 0;
#X connect 3 1 9 0;
#X connect 3 1 32 0;
#X connect 4 0 5 0;
#X connect 5 0 8 0;
#X connect 5 2 11 1;
#X connect 5 3 12 1;
#X connect 5 4 13 1;
#X connect 5 5 14 1;
#X connect 5 6 15 1;
#X connect 6 0 7 0;
#X connect 7 0 21 0;
#X connect 7 1 19 0;
#X connect 8 0 1 0;
#X connect 8 1 6 1;
#X connect 9 0 10 1;
#X connect 10 0 2 0;
#X connect 10 0 17 0;
#X connect 11 0 25 1;
#X connect 12 0 25 1;
#X connect 13 0 25 1;
#X connect 14 0 25 1;
#X connect 15 0 25 1;
#X connect 16 0 29 0;
#X connect 17 0 6 0;
#X connect 17 1 19 1;
#X connect 17 1 20 1;
#X connect 18 0 29 0;
#X connect 19 0 16 0;
#X connect 20 0 18 0;
#X connect 21 0 25 0;
#X connect 21 1 23 0;
#X connect 22 0 23 1;
#X connect 23 0 22 0;
#X connect 23 0 24 0;
#X connect 24 0 11 0;
#X connect 24 1 12 0;
#X connect 24 2 13 0;
#X connect 24 3 14 0;
#X connect 24 4 15 0;
#X connect 25 0 26 0;
#X connect 26 0 27 0;
#X connect 27 1 28 0;
#X connect 28 1 20 0;
#X connect 30 0 5 0;
#X connect 31 0 19 0;
#X connect 32 0 23 1;
