#N canvas 1814 155 870 596 12;
#X obj 440 228 scaler;
#X obj 408 105 lfo2;
#X msg 549 55 tempo 400;
#X msg 576 111 tempo 900;
#X obj 317 433 else/graph~ 771 0 -1 1 200 140;
#X obj 354 327 sig~;
#X obj 562 379 nbx 5 14 64 44100 0 1 empty empty empty 0 -8 0 10 -228856
-1 -1 771 256;
#X msg 562 400 size \$1;
#X msg 638 380 192000;
#X obj 164 405 clippy~;
#X obj 168 532 dac~;
#X msg 625 154 tempo 22050;
#X obj 689 119 hsl 128 15 0 192000 0 0 empty empty empty -2 -8 0 10
-262144 -1 -1 3400 0;
#X floatatom 744 156 8 0 0 0 - - -;
#X floatatom 780 191 5 0 0 0 - - -;
#X obj 765 225 * 1;
#X obj 292 374 hip~ 5;
#X floatatom 376 239 5 0 0 0 - - -;
#X obj 53 46 euclideanseq;
#X msg 673 197 tempo \$1;
#X connect 0 0 5 0;
#X connect 1 0 0 0;
#X connect 1 0 17 0;
#X connect 2 0 1 1;
#X connect 3 0 1 1;
#X connect 5 0 16 0;
#X connect 6 0 7 0;
#X connect 7 0 4 0;
#X connect 8 0 7 0;
#X connect 9 0 10 0;
#X connect 9 1 10 1;
#X connect 11 0 1 1;
#X connect 12 0 13 0;
#X connect 12 0 15 0;
#X connect 14 0 15 1;
#X connect 15 0 19 0;
#X connect 16 0 4 0;
#X connect 16 0 9 1;
#X connect 16 0 9 0;
#X connect 18 3 1 0;
#X connect 19 0 1 1;
