#N canvas 1788 61 896 702 12;
#X obj 69 44 inlet;
#X obj 112 175 hsl 100 8 0 1 0 0 empty empty empty -2 -8 0 10 -262144
-1 -1 5417 0;
#X obj 112 186 hsl 100 8 0 1 0 0 empty empty empty -2 -8 0 10 -262144
-1 -1 7800 0;
#X obj 15 274 limitvalue;
#X obj 40 298 change;
#X obj 90 298 change;
#X obj 246 45 inlet cmd;
#X floatatom 109 129 5 0 0 2 min - -;
#X floatatom 242 129 5 0 0 2 max - -;
#X floatatom 152 129 5 0 0 2 F1 - -;
#X floatatom 198 129 5 0 0 2 F2 - -;
#X text 101 101 SCALER;
#X text 267 101 c;
#X obj 412 681 outlet;
#X obj 319 322 -;
#X obj 319 294 else/hot;
#X obj 42 420 change;
#X obj 159 390 *;
#X obj 210 429 + 0;
#X obj 118 425 change;
#X obj 238 400 *;
#X obj 276 431 + 0;
#X obj 326 429 /;
#X floatatom 333 462 5 0 0 0 - - -;
#X obj 325 403 - 0;
#X obj 322 357 t f f f f;
#X obj 381 433 /;
#X obj 376 405 - 0;
#X floatatom 384 460 5 0 0 0 - - -;
#X floatatom 194 459 5 0 0 0 - - -;
#X floatatom 270 465 5 0 0 0 - - -;
#X obj 112 200 hsl 100 8 0 1 0 0 empty empty empty -2 -8 0 10 -262144
-1 -1 4500 0;
#X obj 112 211 hsl 100 8 0 1 0 0 empty empty empty -2 -8 0 10 -262144
-1 -1 6600 0;
#X obj 388 196 limitvalue;
#X obj 388 219 change;
#X obj 438 219 change;
#X floatatom 109 151 5 0 0 3 - - -;
#X floatatom 242 151 5 0 0 3 - - -;
#X floatatom 152 151 5 0 0 3 - - -;
#X floatatom 198 151 5 0 0 3 - - -;
#X obj 585 272 -;
#X obj 585 244 else/hot;
#X obj 687 563 change;
#X obj 674 469 *;
#X obj 696 493 + 0;
#X obj 750 563 change;
#X obj 742 471 *;
#X obj 762 495 + 0;
#X obj 674 350 /;
#X floatatom 681 383 5 0 0 0 - - -;
#X obj 673 324 - 0;
#X obj 677 286 t f f f f;
#X obj 725 352 /;
#X obj 724 326 - 0;
#X floatatom 743 390 5 0 0 0 - - -;
#X floatatom 680 523 5 0 0 0 - - -;
#X floatatom 756 529 5 0 0 0 - - -;
#X obj 658 43 loadbang;
#X msg 671 157 0.5;
#X obj 293 639 else/rescale -1 1 -1 1;
#X obj 554 514 < 0;
#X obj 431 530 route 0 1;
#X obj 554 540 route 0 1;
#X obj 489 617 else/rescale -1 1 -1 1;
#X obj 403 494 t f f;
#X msg 178 537 -1.223;
#X obj 388 534 < 0;
#X msg 158 509 -0.2 -0.2;
#X obj 417 570 f;
#X obj 451 586 f;
#X obj 499 563 t f f;
#X obj 553 564 f;
#X obj 591 563 f;
#X obj 651 616 else/rescale -1 1 -1 1;
#X obj 347 81 route inmin inmax outmin outmax inf1 inf2 outf1 outf2
init;
#X floatatom 243 186 5 0 0 0 - - -;
#X msg 752 153 1;
#X msg 786 153 0;
#X obj 696 120 t b b b b b;
#X msg 704 186 0.25;
#X msg 746 185 0.75;
#X obj 796 73 bng 15 250 50 0 empty empty empty 17 7 0 10 -262144 -1
-1;
#X obj 134 358 else/hot;
#X obj 235 371 else/hot;
#X obj 638 446 else/hot;
#X obj 730 447 else/hot;
#X text 214 173 in;
#X text 214 192 out;
#X obj 217 189 bng 8 250 50 0 empty empty empty 17 7 0 10 -262144 -1
-1;
#X msg 105 630 0.5;
#X obj 104 656 t f f;
#X obj 218 208 bng 8 250 50 0 empty empty empty 17 7 0 10 -262144 -1
-1;
#X msg 44 543 0.5;
#X obj 43 569 t f f;
#X floatatom 255 662 5 0 0 0 - - -;
#X msg 240 580 18;
#X floatatom 517 675 5 0 0 0 - - -;
#X floatatom 655 662 5 0 0 0 - - -;
#X connect 0 0 64 0;
#X connect 1 0 3 0;
#X connect 1 0 82 0;
#X connect 2 0 3 1;
#X connect 2 0 83 0;
#X connect 3 0 4 0;
#X connect 3 1 5 0;
#X connect 4 0 2 0;
#X connect 5 0 1 0;
#X connect 6 0 74 0;
#X connect 7 0 15 1;
#X connect 7 0 18 1;
#X connect 7 0 21 1;
#X connect 7 0 24 1;
#X connect 7 0 27 1;
#X connect 7 0 59 1;
#X connect 8 0 15 0;
#X connect 8 0 73 2;
#X connect 9 0 24 0;
#X connect 9 0 59 2;
#X connect 9 0 63 1;
#X connect 9 0 66 1;
#X connect 10 0 27 0;
#X connect 10 0 63 2;
#X connect 10 0 73 1;
#X connect 10 0 60 1;
#X connect 14 0 25 0;
#X connect 15 0 14 0;
#X connect 15 1 14 1;
#X connect 16 0 9 0;
#X connect 17 0 18 0;
#X connect 18 0 16 0;
#X connect 18 0 29 0;
#X connect 19 0 10 0;
#X connect 20 0 21 0;
#X connect 21 0 19 0;
#X connect 21 0 30 0;
#X connect 22 0 23 0;
#X connect 22 0 1 0;
#X connect 24 0 22 0;
#X connect 25 0 82 1;
#X connect 25 1 83 1;
#X connect 25 2 22 1;
#X connect 25 3 26 1;
#X connect 26 0 2 0;
#X connect 26 0 28 0;
#X connect 27 0 26 0;
#X connect 31 0 33 0;
#X connect 31 0 84 0;
#X connect 32 0 33 1;
#X connect 32 0 85 0;
#X connect 33 0 34 0;
#X connect 33 1 35 0;
#X connect 34 0 32 0;
#X connect 35 0 31 0;
#X connect 36 0 41 1;
#X connect 36 0 44 1;
#X connect 36 0 47 1;
#X connect 36 0 50 1;
#X connect 36 0 53 1;
#X connect 36 0 59 3;
#X connect 37 0 41 0;
#X connect 37 0 73 4;
#X connect 38 0 50 0;
#X connect 38 0 59 4;
#X connect 38 0 63 3;
#X connect 39 0 53 0;
#X connect 39 0 63 4;
#X connect 39 0 73 3;
#X connect 40 0 51 0;
#X connect 41 0 40 0;
#X connect 41 1 40 1;
#X connect 42 0 38 0;
#X connect 43 0 44 0;
#X connect 44 0 42 0;
#X connect 44 0 55 0;
#X connect 45 0 39 0;
#X connect 46 0 47 0;
#X connect 47 0 45 0;
#X connect 47 0 56 0;
#X connect 48 0 49 0;
#X connect 48 0 31 0;
#X connect 50 0 48 0;
#X connect 51 0 84 1;
#X connect 51 1 85 1;
#X connect 51 2 48 1;
#X connect 51 3 52 1;
#X connect 52 0 32 0;
#X connect 52 0 54 0;
#X connect 53 0 52 0;
#X connect 57 0 78 0;
#X connect 58 0 1 0;
#X connect 58 0 2 0;
#X connect 58 0 31 0;
#X connect 58 0 32 0;
#X connect 59 0 13 0;
#X connect 59 0 75 0;
#X connect 59 0 94 0;
#X connect 60 0 62 0;
#X connect 61 0 68 0;
#X connect 61 1 69 0;
#X connect 62 0 71 0;
#X connect 62 1 72 0;
#X connect 63 0 13 0;
#X connect 63 0 75 0;
#X connect 63 0 96 0;
#X connect 64 0 66 0;
#X connect 64 1 68 1;
#X connect 64 1 69 1;
#X connect 65 0 66 0;
#X connect 66 0 61 0;
#X connect 67 0 64 0;
#X connect 68 0 70 0;
#X connect 69 0 59 0;
#X connect 70 0 60 0;
#X connect 70 1 71 1;
#X connect 70 1 72 1;
#X connect 71 0 73 0;
#X connect 72 0 63 0;
#X connect 73 0 13 0;
#X connect 73 0 75 0;
#X connect 73 0 97 0;
#X connect 74 0 7 0;
#X connect 74 1 8 0;
#X connect 74 2 36 0;
#X connect 74 3 37 0;
#X connect 74 4 9 0;
#X connect 74 5 10 0;
#X connect 74 6 38 0;
#X connect 74 7 39 0;
#X connect 74 8 78 0;
#X connect 76 0 8 0;
#X connect 76 0 37 0;
#X connect 77 0 7 0;
#X connect 77 0 36 0;
#X connect 78 0 58 0;
#X connect 78 1 79 0;
#X connect 78 2 80 0;
#X connect 78 3 76 0;
#X connect 78 4 77 0;
#X connect 79 0 9 0;
#X connect 79 0 38 0;
#X connect 80 0 10 0;
#X connect 80 0 39 0;
#X connect 81 0 78 0;
#X connect 82 0 17 0;
#X connect 82 1 17 1;
#X connect 83 0 20 0;
#X connect 83 1 20 1;
#X connect 84 0 43 0;
#X connect 84 1 43 1;
#X connect 85 0 46 0;
#X connect 85 1 46 1;
#X connect 88 0 89 0;
#X connect 89 0 90 0;
#X connect 90 0 1 0;
#X connect 90 1 2 0;
#X connect 91 0 92 0;
#X connect 92 0 93 0;
#X connect 93 0 32 0;
#X connect 93 1 31 0;
#X connect 95 0 64 0;
#X coords 0 -1 1 1 185 125 2 100 100;
