#N canvas 1679 228 450 300 12;
#X obj 330 166 f;
#X obj 135 124 hsl 20 8 0 5000 0 1 empty empty empty -2 -8 0 10 -262144
-1 -1 380 0;
#X floatatom 164 105 5 0 0 0 - - -;
#X obj 106 106 bng 15 250 50 0 empty empty empty 17 7 0 10 -262144
-1 -1;
#X obj 52 55 inlet;
#X msg 45 247 \$1-\$2;
#X obj 40 223 pack f s;
#X obj 28 192 else/hot;
#X msg 192 249 \; \$1 const \$2;
#X obj 107 135 else/display;
#X obj 193 225 pack s f;
#X obj 21 164 list \$1;
#X obj 135 114 hsl 20 8 0 1000 0 1 empty empty empty -2 -8 0 10 -262144
-1 -1 1900 0;
#X obj 135 104 hsl 20 8 0 1 0 1 empty empty empty -2 -8 0 10 -262144
-1 -1 1900 0;
#X obj 114 56 inlet target;
#X obj 177 191 symbol;
#X obj 191 160 t b b b;
#X obj 115 256 symbol;
#X obj 25 78 symbol;
#X obj 222 57 inlet exec;
#X obj 251 95 t b f;
#X obj 35 107 loadbang;
#X connect 0 0 10 1;
#X connect 1 0 2 0;
#X connect 2 0 0 1;
#X connect 3 0 16 0;
#X connect 4 0 18 0;
#X connect 5 0 9 0;
#X connect 5 0 17 0;
#X connect 6 0 5 0;
#X connect 7 0 6 0;
#X connect 7 1 6 1;
#X connect 10 0 8 0;
#X connect 11 0 7 0;
#X connect 12 0 1 0;
#X connect 13 0 2 0;
#X connect 14 0 13 0;
#X connect 15 0 10 0;
#X connect 16 1 15 0;
#X connect 16 2 0 0;
#X connect 17 0 15 1;
#X connect 18 0 7 1;
#X connect 19 0 20 0;
#X connect 20 0 3 0;
#X connect 20 1 13 0;
#X connect 21 0 11 0;
#X coords 0 -1 1 1 120 60 2 100 100;
