#N canvas 1825 152 571 319 12;
#X obj 150 59 inlet~;
#X obj 230 58 inlet~;
#X obj 190 216 expr~ tanh($v1) \; tanh($v2);
#X obj 178 260 outlet~;
#X obj 303 264 outlet~;
#X obj 176 171 *~;
#X obj 230 150 *~;
#X obj 103 118 tgl 8 0 empty empty bypass 12 4 0 8 -262144 -1 -1 0
1;
#X obj 242 111 == 0;
#X text 100 101 TANH~;
#X obj 264 166 *~;
#X obj 305 151 *~;
#X obj 376 58 loadbang;
#X msg 374 94 0;
#X connect 0 0 6 0;
#X connect 0 0 5 0;
#X connect 1 0 11 0;
#X connect 1 0 10 0;
#X connect 2 0 3 0;
#X connect 2 1 4 0;
#X connect 5 0 3 0;
#X connect 6 0 2 0;
#X connect 7 0 8 0;
#X connect 7 0 5 1;
#X connect 7 0 10 1;
#X connect 8 0 6 1;
#X connect 8 0 11 1;
#X connect 10 0 4 0;
#X connect 11 0 2 1;
#X connect 12 0 13 0;
#X connect 13 0 7 0;
#X coords 0 -1 1 1 60 30 2 100 100;
