#N struct 1006-point float x0 float y0 float xs float ys float fg float
in float gridx float gridy;
#N struct 1040-point float x0 float y0 float xs float ys float fg float
in float gridx float gridy;
#N canvas 1861 83 787 673 12;
#X obj 47 87 waveshaper~;
#X obj 119 40 adc~;
#X obj 185 598 else/out~;
#X obj 497 486 else/graph~;
#X obj 180 507 clippy~;
#X obj 288 468 lop~;
#X obj 339 505 hsl 128 15 0 8000 0 1 empty empty empty -2 -8 0 10 -262144
-1 -1 4500 0;
#X floatatom 338 528 5 0 0 0 - - -;
#X obj 250 467 lop~;
#X obj 613 130 bp~;
#X obj 619 93 hsl 128 15 0 5000 0 0 empty empty empty -2 -8 0 10 -262144
-1 -1 7300 0;
#X obj 655 114 hsl 128 15 0 4 0 0 empty empty empty -2 -8 0 10 -262144
-1 -1 3000 0;
#X floatatom 658 147 5 0 0 0 - - -;
#X floatatom 576 99 5 0 0 0 - - -;
#X obj 352 52 bp~;
#X obj 358 15 hsl 128 15 0 5000 0 0 empty empty empty -2 -8 0 10 -262144
-1 -1 7300 0;
#X obj 394 36 hsl 128 15 0 4 0 0 empty empty empty -2 -8 0 10 -262144
-1 -1 3000 0;
#X floatatom 397 69 5 0 0 0 - - -;
#X floatatom 315 21 5 0 0 0 - - -;
#X connect 0 0 4 0;
#X connect 0 1 8 0;
#X connect 0 3 4 1;
#X connect 0 4 5 0;
#X connect 0 5 3 0;
#X connect 1 0 14 0;
#X connect 1 1 9 0;
#X connect 4 0 2 0;
#X connect 4 1 2 1;
#X connect 5 0 4 1;
#X connect 6 0 7 0;
#X connect 7 0 5 1;
#X connect 7 0 8 1;
#X connect 8 0 4 0;
#X connect 9 0 0 1;
#X connect 10 0 9 1;
#X connect 10 0 13 0;
#X connect 10 0 15 0;
#X connect 11 0 9 2;
#X connect 11 0 12 0;
#X connect 11 0 16 0;
#X connect 14 0 0 0;
#X connect 15 0 14 1;
#X connect 15 0 18 0;
#X connect 16 0 14 2;
#X connect 16 0 17 0;
