#N canvas 1713 305 805 406 12;
#X obj 165 107 hsl 40 10 0 1 0 0 empty empty empty -2 -8 0 10 -262144
-1 -1 1900 0;
#X obj 447 236 *~;
#X obj 56 18 - 1;
#X obj 58 41 * -1;
#X obj 408 238 *~;
#X obj 307 69 inlet~ R;
#X obj 198 69 inlet~ L;
#X obj 258 233 *~;
#X obj 219 235 *~;
#X text 105 103 WETDRY~;
#X obj 154 132 hsl 35 8 0 1 0 0 empty empty wet -2 -8 0 10 -262144
-1 -1 1656 0;
#X obj 108 132 hsl 35 8 0 1 0 0 empty empty dry -2 -8 0 10 -262144
-1 -1 1744 0;
#X obj 148 340 outlet~ LWET;
#X obj 480 339 outlet~ RWET;
#X text 120 163 lw;
#X text 162 163 rd;
#X text 181 163 rw;
#X text 101 163 ld;
#X obj 580 85 loadbang;
#X msg 584 119 0.5;
#X obj 249 340 outlet~ L;
#X obj 50 342 outlet~ LDRY;
#X obj 382 338 outlet~ RDRY;
#X obj 591 338 outlet~ R;
#X obj 252 307 /~ 2;
#X obj 594 305 /~ 2;
#X text 141 163 L;
#X text 206 163 R;
#X floatatom 152 143 5 0 0 0 - - -;
#X floatatom 105 143 5 0 0 0 - - -;
#X obj 30 250 change;
#X obj 90 249 change;
#X obj 209 107 bng 8 250 50 0 empty empty empty 17 7 0 10 -262144 -1
-1;
#X connect 0 0 2 0;
#X connect 0 0 28 0;
#X connect 1 0 13 0;
#X connect 1 0 25 0;
#X connect 2 0 3 0;
#X connect 3 0 29 0;
#X connect 4 0 22 0;
#X connect 4 0 25 0;
#X connect 5 0 1 0;
#X connect 5 0 4 0;
#X connect 6 0 8 0;
#X connect 6 0 7 0;
#X connect 7 0 12 0;
#X connect 7 0 24 0;
#X connect 8 0 21 0;
#X connect 8 0 24 0;
#X connect 10 0 1 1;
#X connect 10 0 7 1;
#X connect 10 0 31 0;
#X connect 11 0 4 1;
#X connect 11 0 8 1;
#X connect 11 0 30 0;
#X connect 18 0 19 0;
#X connect 19 0 0 0;
#X connect 24 0 20 0;
#X connect 25 0 23 0;
#X connect 28 0 10 0;
#X connect 29 0 11 0;
#X connect 30 0 29 0;
#X connect 31 0 28 0;
#X connect 32 0 19 0;
#X coords 0 -1 1 1 120 90 2 100 100;
